OswaldMonoline.ufo
<glyph name="exclam" format="1">
  <advance width="466"/>
  <unicode hex="0021"/>
  <outline>
    <contour>
      <point x="198" y="431" type="line"/>
      <point x="274" y="431" type="line"/>
      <point x="357" y="1765" type="line"/>
      <point x="109" y="1765" type="line"/>
    </contour>
    <contour>
      <point x="122" y="0" type="line"/>
      <point x="357" y="0" type="line"/>
      <point x="357" y="258" type="line"/>
      <point x="122" y="258" type="line"/>
    </contour>
  </outline>
</glyph>
<glyph name="quotedbl" format="1">
  <advance width="717"/>
  <unicode hex="0022"/>
  <outline>
    <contour>
      <point x="144" y="1290" type="line"/>
      <point x="260" y="1290" type="line"/>
      <point x="277" y="1354"/>
      <point x="276" y="1699"/>
      <point x="293" y="1764" type="curve"/>
      <point x="80" y="1764" type="line"/>
    </contour>
    <contour>
      <point x="460" y="1290" type="line"/>
      <point x="569" y="1290" type="line"/>
      <point x="585" y="1354"/>
      <point x="621" y="1699"/>
      <point x="638" y="1764" type="curve"/>
      <point x="428" y="1764" type="line"/>
    </contour>
  </outline>
</glyph>
<glyph name="numbersign" format="1">
  <advance width="1067"/>
  <unicode hex="0023"/>
  <outline>
    <contour>
      <point x="67" y="0" type="line"/>
      <point x="233" y="0" type="line"/>
      <point x="383" y="635" type="line"/>
      <point x="548" y="635" type="line"/>
      <point x="398" y="0" type="line"/>
      <point x="564" y="0" type="line"/>
      <point x="715" y="635" type="line"/>
      <point x="949" y="635" type="line"/>
      <point x="949" y="834" type="line"/>
      <point x="751" y="834" type="line"/>
      <point x="799" y="1002" type="line"/>
      <point x="981" y="1002" type="line"/>
      <point x="981" y="1197" type="line"/>
      <point x="834" y="1197" type="line"/>
      <point x="967" y="1767" type="line"/>
      <point x="799" y="1767" type="line"/>
      <point x="666" y="1197" type="line"/>
      <point x="502" y="1197" type="line"/>
      <point x="636" y="1767" type="line"/>
      <point x="468" y="1767" type="line"/>
      <point x="334" y="1197" type="line"/>
      <point x="98" y="1197" type="line"/>
      <point x="98" y="1002" type="line"/>
      <point x="301" y="1002" type="line"/>
      <point x="252" y="834" type="line"/>
      <point x="66" y="834" type="line"/>
      <point x="66" y="635" type="line"/>
      <point x="217" y="635" type="line"/>
    </contour>
    <contour>
      <point x="419" y="834" type="line"/>
      <point x="468" y="1002" type="line"/>
      <point x="632" y="1002" type="line"/>
      <point x="584" y="834" type="line"/>
    </contour>
  </outline>
</glyph>
<glyph name="dollar" format="1">
  <advance width="1019"/>
  <unicode hex="0024"/>
  <outline>
    <contour>
      <point x="476" y="-116" type="line"/>
      <point x="567" y="-116" type="line"/>
      <point x="567" y="42" type="line"/>
      <point x="791" y="54"/>
      <point x="966" y="200"/>
      <point x="966" y="436" type="curve" smooth="yes"/>
      <point x="966" y="657"/>
      <point x="829" y="778"/>
      <point x="664" y="916" type="curve"/>
      <point x="438" y="1065" type="line"/>
      <point x="351" y="1133"/>
      <point x="293" y="1203"/>
      <point x="293" y="1298" type="curve" smooth="yes"/>
      <point x="293" y="1402"/>
      <point x="378" y="1465"/>
      <point x="515" y="1465" type="curve" smooth="yes"/>
      <point x="648" y="1465"/>
      <point x="721" y="1355"/>
      <point x="737" y="1246" type="curve" smooth="yes"/>
      <point x="737" y="1228"/>
      <point x="737" y="1212"/>
      <point x="736" y="1200" type="curve"/>
      <point x="952" y="1246" type="line"/>
      <point x="952" y="1249"/>
      <point x="951" y="1279"/>
      <point x="950" y="1282" type="curve" smooth="yes"/>
      <point x="922" y="1504"/>
      <point x="778" y="1658"/>
      <point x="567" y="1675" type="curve"/>
      <point x="567" y="1853" type="line"/>
      <point x="476" y="1853" type="line"/>
      <point x="476" y="1675" type="line"/>
      <point x="238" y="1658"/>
      <point x="70" y="1508"/>
      <point x="70" y="1264" type="curve" smooth="yes"/>
      <point x="70" y="1086"/>
      <point x="170" y="973"/>
      <point x="289" y="872" type="curve"/>
      <point x="518" y="724" type="line" smooth="yes"/>
      <point x="643" y="631"/>
      <point x="743" y="546"/>
      <point x="743" y="426" type="curve" smooth="yes"/>
      <point x="743" y="315"/>
      <point x="659" y="254"/>
      <point x="534" y="254" type="curve"/>
      <point x="371" y="256"/>
      <point x="312" y="405"/>
      <point x="293" y="531" type="curve" smooth="yes"/>
      <point x="292" y="535"/>
      <point x="291" y="568"/>
      <point x="291" y="572" type="curve"/>
      <point x="74" y="516" type="line"/>
      <point x="96" y="273"/>
      <point x="219" y="70"/>
      <point x="476" y="43" type="curve"/>
    </contour>
  </outline>
</glyph>
<glyph name="percent" format="1">
  <advance width="1540"/>
  <unicode hex="0025"/>
  <outline>
    <contour>
      <point x="424" y="0" type="line"/>
      <point x="567" y="0" type="line"/>
      <point x="1129" y="1787" type="line"/>
      <point x="985" y="1787" type="line"/>
    </contour>
    <contour>
      <point x="466" y="1250" type="line"/>
      <point x="466" y="1095"/>
      <point x="447" y="976"/>
      <point x="354" y="976" type="curve" smooth="yes"/>
      <point x="260" y="976"/>
      <point x="241" y="1095"/>
      <point x="241" y="1250" type="curve" smooth="yes"/>
      <point x="241" y="1354" type="line" smooth="yes"/>
      <point x="241" y="1505"/>
      <point x="260" y="1614"/>
      <point x="354" y="1614" type="curve" smooth="yes"/>
      <point x="448" y="1614"/>
      <point x="466" y="1505"/>
      <point x="466" y="1352" type="curve" smooth="yes"/>
    </contour>
    <contour>
      <point x="70" y="1249" type="line"/>
      <point x="70" y="1002"/>
      <point x="138" y="813"/>
      <point x="354" y="813" type="curve" smooth="yes"/>
      <point x="569" y="813"/>
      <point x="638" y="1002"/>
      <point x="638" y="1249" type="curve" smooth="yes"/>
      <point x="638" y="1353" type="line" smooth="yes"/>
      <point x="637" y="1604"/>
      <point x="567" y="1777"/>
      <point x="354" y="1777" type="curve" smooth="yes"/>
      <point x="139" y="1777"/>
      <point x="71" y="1604"/>
      <point x="70" y="1352" type="curve" smooth="yes"/>
    </contour>
    <contour>
      <point x="1318" y="426" type="line"/>
      <point x="1318" y="270"/>
      <point x="1299" y="151"/>
      <point x="1206" y="151" type="curve" smooth="yes"/>
      <point x="1113" y="151"/>
      <point x="1093" y="270"/>
      <point x="1093" y="426" type="curve" smooth="yes"/>
      <point x="1093" y="526" type="line" smooth="yes"/>
      <point x="1093" y="679"/>
      <point x="1111" y="789"/>
      <point x="1206" y="789" type="curve" smooth="yes"/>
      <point x="1301" y="789"/>
      <point x="1318" y="679"/>
      <point x="1318" y="525" type="curve" smooth="yes"/>
    </contour>
    <contour>
      <point x="923" y="424" type="line"/>
      <point x="923" y="177"/>
      <point x="990" y="-11"/>
      <point x="1206" y="-11" type="curve" smooth="yes"/>
      <point x="1421" y="-11"/>
      <point x="1490" y="177"/>
      <point x="1490" y="424" type="curve" smooth="yes"/>
      <point x="1490" y="529" type="line" smooth="yes"/>
      <point x="1489" y="780"/>
      <point x="1419" y="952"/>
      <point x="1206" y="952" type="curve" smooth="yes"/>
      <point x="992" y="952"/>
      <point x="923" y="779"/>
      <point x="923" y="529" type="curve" smooth="yes"/>
    </contour>
  </outline>
</glyph>
<glyph name="ampersand" format="1">
  <advance width="1144"/>
  <unicode hex="0026"/>
  <outline>
    <contour>
      <point x="1107" y="203" type="line"/>
      <point x="1043" y="205"/>
      <point x="974" y="237"/>
      <point x="918" y="294" type="curve"/>
      <point x="1040" y="454"/>
      <point x="1104" y="617"/>
      <point x="1104" y="823" type="curve"/>
      <point x="923" y="823" type="line"/>
      <point x="923" y="698"/>
      <point x="883" y="566"/>
      <point x="813" y="462" type="curve"/>
      <point x="540" y="851" type="line"/>
      <point x="747" y="1033"/>
      <point x="857" y="1230"/>
      <point x="857" y="1438" type="curve" smooth="yes"/>
      <point x="857" y="1655"/>
      <point x="719" y="1796"/>
      <point x="496" y="1796" type="curve" smooth="yes"/>
      <point x="272" y="1796"/>
      <point x="138" y="1628"/>
      <point x="138" y="1407" type="curve" smooth="yes"/>
      <point x="138" y="1264"/>
      <point x="221" y="1050"/>
      <point x="327" y="880" type="curve"/>
      <point x="165" y="733"/>
      <point x="67" y="542"/>
      <point x="67" y="350" type="curve" smooth="yes"/>
      <point x="67" y="139"/>
      <point x="188" y="-28"/>
      <point x="442" y="-28" type="curve" smooth="yes"/>
      <point x="580" y="-28"/>
      <point x="704" y="29"/>
      <point x="801" y="127" type="curve"/>
      <point x="874" y="51"/>
      <point x="971" y="-20"/>
      <point x="1073" y="-23" type="curve" smooth="yes"/>
      <point x="1084" y="-23"/>
      <point x="1096" y="-22"/>
      <point x="1107" y="-20" type="curve"/>
    </contour>
    <contour>
      <point x="688" y="277" type="curve"/>
      <point x="618" y="216"/>
      <point x="534" y="167"/>
      <point x="450" y="167" type="curve" smooth="yes"/>
      <point x="319" y="167"/>
      <point x="269" y="262"/>
      <point x="269" y="371" type="curve" smooth="yes"/>
      <point x="269" y="485"/>
      <point x="332" y="615"/>
      <point x="412" y="673" type="curve"/>
      <point x="432" y="611"/>
      <point x="665" y="337"/>
    </contour>
    <contour>
      <point x="465" y="1029" type="curve"/>
      <point x="381" y="1163"/>
      <point x="344" y="1293"/>
      <point x="344" y="1404" type="curve" smooth="yes"/>
      <point x="344" y="1479"/>
      <point x="378" y="1600"/>
      <point x="506" y="1600" type="curve" smooth="yes"/>
      <point x="621" y="1600"/>
      <point x="666" y="1514"/>
      <point x="666" y="1428" type="curve" smooth="yes"/>
      <point x="666" y="1298"/>
      <point x="585" y="1143"/>
    </contour>
  </outline>
</glyph>
<glyph name="quotesingle" format="1">
  <advance width="367"/>
  <unicode hex="0027"/>
  <outline>
    <contour>
      <point x="134" y="1289" type="line"/>
      <point x="236" y="1289" type="line"/>
      <point x="252" y="1354"/>
      <point x="277" y="1698"/>
      <point x="294" y="1763" type="curve"/>
      <point x="76" y="1763" type="line"/>
    </contour>
  </outline>
</glyph>
<glyph name="parenleft" format="1">
  <advance width="593"/>
  <unicode hex="0028"/>
  <outline>
    <contour>
      <point x="576" y="120" type="line"/>
      <point x="307" y="117"/>
      <point x="330" y="675"/>
      <point x="330" y="913" type="curve" smooth="yes"/>
      <point x="330" y="1146"/>
      <point x="320" y="1675"/>
      <point x="576" y="1672" type="curve"/>
      <point x="576" y="1856" type="line"/>
      <point x="119" y="1857"/>
      <point x="130" y="1240"/>
      <point x="130" y="896" type="curve" smooth="yes"/>
      <point x="130" y="552"/>
      <point x="119" y="-66"/>
      <point x="576" y="-64" type="curve"/>
    </contour>
  </outline>
</glyph>
<glyph name="parenright" format="1">
  <advance width="599"/>
  <unicode hex="0029"/>
  <outline>
    <contour>
      <point x="51" y="-64" type="line"/>
      <point x="508" y="-66"/>
      <point x="497" y="552"/>
      <point x="497" y="896" type="curve" smooth="yes"/>
      <point x="497" y="1239"/>
      <point x="508" y="1857"/>
      <point x="51" y="1856" type="curve"/>
      <point x="51" y="1672" type="line"/>
      <point x="306" y="1675"/>
      <point x="296" y="1145"/>
      <point x="296" y="913" type="curve" smooth="yes"/>
      <point x="296" y="675"/>
      <point x="319" y="117"/>
      <point x="51" y="120" type="curve"/>
    </contour>
  </outline>
</glyph>
<glyph name="asterisk" format="1">
  <advance width="815"/>
  <unicode hex="002A"/>
  <outline>
    <contour>
      <point x="151" y="969" type="line"/>
      <point x="278" y="881" type="line"/>
      <point x="415" y="1123" type="line"/>
      <point x="554" y="881" type="line"/>
      <point x="682" y="968" type="line"/>
      <point x="511" y="1207" type="line"/>
      <point x="769" y="1304" type="line"/>
      <point x="720" y="1457" type="line"/>
      <point x="477" y="1337" type="line"/>
      <point x="499" y="1617" type="line"/>
      <point x="333" y="1617" type="line"/>
      <point x="354" y="1337" type="line"/>
      <point x="112" y="1455" type="line"/>
      <point x="63" y="1304" type="line"/>
      <point x="320" y="1207" type="line"/>
    </contour>
  </outline>
</glyph>
<glyph name="plus" format="1">
  <advance width="690"/>
  <unicode hex="002B"/>
  <outline>
    <contour>
      <point x="200" y="498" type="line"/>
      <point x="348" y="498" type="line"/>
      <point x="348" y="468" type="line"/>
      <point x="551" y="468" type="line"/>
      <point x="551" y="629" type="line"/>
      <point x="498" y="629" type="line"/>
      <point x="498" y="839" type="line"/>
      <point x="351" y="839" type="line"/>
      <point x="351" y="869" type="line"/>
      <point x="148" y="869" type="line"/>
      <point x="148" y="708" type="line"/>
      <point x="200" y="708" type="line"/>
    </contour>
  </outline>
</glyph>
<glyph name="comma" format="1">
  <advance width="418"/>
  <unicode hex="002C"/>
  <outline>
    <contour>
      <point x="157" y="-249" type="line"/>
      <point x="350" y="-267"/>
      <point x="336" y="-36"/>
      <point x="336" y="258" type="curve"/>
      <point x="101" y="258" type="line"/>
      <point x="101" y="-1" type="line"/>
      <point x="223" y="-1" type="line"/>
      <point x="222" y="-69"/>
      <point x="211" y="-116"/>
      <point x="126" y="-130" type="curve"/>
    </contour>
  </outline>
</glyph>
<glyph name="hyphen" format="1">
  <advance width="495"/>
  <unicode hex="002D"/>
  <outline>
    <contour>
      <point x="76" y="451" type="line"/>
      <point x="427" y="451" type="line"/>
      <point x="427" y="628" type="line"/>
      <point x="76" y="628" type="line"/>
    </contour>
  </outline>
</glyph>
<glyph name="period" format="1">
  <advance width="442"/>
  <unicode hex="002E"/>
  <outline>
    <contour>
      <point x="109" y="0" type="line"/>
      <point x="344" y="0" type="line"/>
      <point x="344" y="258" type="line"/>
      <point x="109" y="258" type="line"/>
    </contour>
  </outline>
</glyph>
<glyph name="slash" format="1">
  <advance width="739"/>
  <unicode hex="002F"/>
  <outline>
    <contour>
      <point x="14" y="0" type="line"/>
      <point x="171" y="0" type="line"/>
      <point x="733" y="1787" type="line"/>
      <point x="575" y="1787" type="line"/>
    </contour>
  </outline>
</glyph>
<glyph name="zero" format="1">
  <advance width="1083"/>
  <unicode hex="0030"/>
  <outline>
    <contour>
      <point x="756" y="501" type="line"/>
      <point x="756" y="364"/>
      <point x="714" y="196"/>
      <point x="543" y="196" type="curve" smooth="yes"/>
      <point x="373" y="196"/>
      <point x="331" y="365"/>
      <point x="331" y="501" type="curve" smooth="yes"/>
      <point x="331" y="1263" type="line" smooth="yes"/>
      <point x="331" y="1402"/>
      <point x="369" y="1568"/>
      <point x="543" y="1568" type="curve" smooth="yes"/>
      <point x="717" y="1568"/>
      <point x="756" y="1402"/>
      <point x="756" y="1263" type="curve" smooth="yes"/>
    </contour>
    <contour>
      <point x="107" y="516" type="line"/>
      <point x="107" y="218"/>
      <point x="220" y="-32"/>
      <point x="543" y="-32" type="curve" smooth="yes"/>
      <point x="865" y="-32"/>
      <point x="979" y="220"/>
      <point x="979" y="516" type="curve" smooth="yes"/>
      <point x="979" y="1248" type="line" smooth="yes"/>
      <point x="979" y="1551"/>
      <point x="864" y="1796"/>
      <point x="543" y="1796" type="curve" smooth="yes"/>
      <point x="222" y="1796"/>
      <point x="107" y="1551"/>
      <point x="107" y="1248" type="curve" smooth="yes"/>
    </contour>
  </outline>
</glyph>
<glyph name="one" format="1">
  <advance width="584"/>
  <unicode hex="0031"/>
  <outline>
    <contour>
      <point x="230" y="0" type="line"/>
      <point x="451" y="0" type="line"/>
      <point x="451" y="1767" type="line"/>
      <point x="290" y="1767" type="line"/>
      <point x="227" y="1650"/>
      <point x="119" y="1619"/>
      <point x="42" y="1573" type="curve"/>
      <point x="42" y="1359" type="line"/>
      <point x="70" y="1363"/>
      <point x="192" y="1380"/>
      <point x="230" y="1397" type="curve"/>
    </contour>
  </outline>
</glyph>
<glyph name="two" format="1">
  <advance width="992"/>
  <unicode hex="0032"/>
  <outline>
    <contour>
      <point x="68" y="0" type="line"/>
      <point x="915" y="0" type="line"/>
      <point x="915" y="251" type="line"/>
      <point x="326" y="251" type="line"/>
      <point x="363" y="331"/>
      <point x="688" y="698"/>
      <point x="728" y="787" type="curve"/>
      <point x="825" y="936"/>
      <point x="928" y="1126"/>
      <point x="928" y="1311" type="curve" smooth="yes"/>
      <point x="928" y="1605"/>
      <point x="789" y="1797"/>
      <point x="512" y="1797" type="curve" smooth="yes"/>
      <point x="200" y="1797"/>
      <point x="74" y="1577"/>
      <point x="70" y="1260" type="curve" smooth="yes"/>
      <point x="70" y="1186" type="line"/>
      <point x="292" y="1186" type="line"/>
      <point x="292" y="1332"/>
      <point x="309" y="1570"/>
      <point x="513" y="1570" type="curve" smooth="yes"/>
      <point x="654" y="1570"/>
      <point x="707" y="1441"/>
      <point x="707" y="1311" type="curve" smooth="yes"/>
      <point x="707" y="1161"/>
      <point x="602" y="1008"/>
      <point x="521" y="889" type="curve" smooth="yes"/>
      <point x="68" y="232" type="line"/>
    </contour>
  </outline>
</glyph>
<glyph name="three" format="1">
  <advance width="1001"/>
  <unicode hex="0033"/>
  <outline>
    <contour>
      <point x="69" y="467" type="line"/>
      <point x="71" y="194"/>
      <point x="170" y="-32"/>
      <point x="486" y="-32" type="curve" smooth="yes"/>
      <point x="803" y="-32"/>
      <point x="915" y="195"/>
      <point x="915" y="501" type="curve" smooth="yes"/>
      <point x="915" y="724"/>
      <point x="813" y="865"/>
      <point x="699" y="939" type="curve"/>
      <point x="826" y="1001"/>
      <point x="915" y="1148"/>
      <point x="915" y="1328" type="curve"/>
      <point x="915" y="1597"/>
      <point x="787" y="1797"/>
      <point x="497" y="1797" type="curve" smooth="yes"/>
      <point x="194" y="1797"/>
      <point x="68" y="1598"/>
      <point x="68" y="1329" type="curve" smooth="yes"/>
      <point x="68" y="1252" type="line"/>
      <point x="285" y="1252" type="line"/>
      <point x="292" y="1412"/>
      <point x="346" y="1570"/>
      <point x="496" y="1570" type="curve" smooth="yes"/>
      <point x="634" y="1570"/>
      <point x="692" y="1480"/>
      <point x="692" y="1329" type="curve" smooth="yes"/>
      <point x="692" y="1128"/>
      <point x="617" y="1071"/>
      <point x="439" y="1070" type="curve"/>
      <point x="439" y="814" type="line"/>
      <point x="626" y="810"/>
      <point x="692" y="685"/>
      <point x="692" y="500" type="curve" smooth="yes"/>
      <point x="692" y="320"/>
      <point x="637" y="196"/>
      <point x="495" y="196" type="curve" smooth="yes"/>
      <point x="341" y="196"/>
      <point x="289" y="340"/>
      <point x="285" y="514" type="curve"/>
      <point x="68" y="514" type="line"/>
    </contour>
  </outline>
</glyph>
<glyph name="four" format="1">
  <advance width="941"/>
  <unicode hex="0034"/>
  <outline>
    <contour>
      <point x="524" y="0" type="line"/>
      <point x="745" y="0" type="line"/>
      <point x="745" y="468" type="line"/>
      <point x="915" y="468" type="line"/>
      <point x="915" y="677" type="line"/>
      <point x="745" y="677" type="line"/>
      <point x="745" y="1768" type="line"/>
      <point x="449" y="1768" type="line"/>
      <point x="36" y="674" type="line"/>
      <point x="36" y="468" type="line"/>
      <point x="524" y="468" type="line"/>
    </contour>
    <contour>
      <point x="249" y="677" type="line"/>
      <point x="523" y="1401" type="line"/>
      <point x="524" y="677" type="line"/>
    </contour>
  </outline>
</glyph>
<glyph name="five" format="1">
  <advance width="999"/>
  <unicode hex="0035"/>
  <outline>
    <contour>
      <point x="112" y="511" type="line"/>
      <point x="112" y="199"/>
      <point x="213" y="-32"/>
      <point x="524" y="-32" type="curve" smooth="yes"/>
      <point x="848" y="-32"/>
      <point x="945" y="267"/>
      <point x="945" y="590" type="curve" smooth="yes"/>
      <point x="945" y="879"/>
      <point x="851" y="1132"/>
      <point x="566" y="1132" type="curve" smooth="yes"/>
      <point x="476" y="1132"/>
      <point x="400" y="1101"/>
      <point x="341" y="1053" type="curve"/>
      <point x="346" y="1518" type="line"/>
      <point x="859" y="1518" type="line"/>
      <point x="868" y="1767" type="line"/>
      <point x="132" y="1767" type="line"/>
      <point x="132" y="775" type="line"/>
      <point x="316" y="775" type="line"/>
      <point x="366" y="851"/>
      <point x="449" y="915"/>
      <point x="526" y="915" type="curve" smooth="yes"/>
      <point x="673" y="915"/>
      <point x="726" y="778"/>
      <point x="726" y="592" type="curve" smooth="yes"/>
      <point x="726" y="385"/>
      <point x="681" y="190"/>
      <point x="518" y="190" type="curve" smooth="yes"/>
      <point x="383" y="190"/>
      <point x="333" y="297"/>
      <point x="333" y="516" type="curve"/>
    </contour>
  </outline>
</glyph>
<glyph name="six" format="1">
  <advance width="1037"/>
  <unicode hex="0036"/>
  <outline>
    <contour>
      <point x="109" y="525" type="line"/>
      <point x="109" y="224"/>
      <point x="228" y="-28"/>
      <point x="532" y="-28" type="curve" smooth="yes"/>
      <point x="848" y="-28"/>
      <point x="967" y="244"/>
      <point x="967" y="544" type="curve" smooth="yes"/>
      <point x="967" y="830"/>
      <point x="867" y="1070"/>
      <point x="564" y="1070" type="curve" smooth="yes"/>
      <point x="472" y="1070"/>
      <point x="393" y="1052"/>
      <point x="332" y="1015" type="curve"/>
      <point x="332" y="1212" type="line" smooth="yes"/>
      <point x="331" y="1409"/>
      <point x="387" y="1570"/>
      <point x="523" y="1570" type="curve" smooth="yes"/>
      <point x="661" y="1570"/>
      <point x="715" y="1460"/>
      <point x="719" y="1288" type="curve"/>
      <point x="932" y="1288" type="line"/>
      <point x="932" y="1318" type="line" smooth="yes"/>
      <point x="932" y="1578"/>
      <point x="816" y="1797"/>
      <point x="532" y="1797" type="curve" smooth="yes"/>
      <point x="208" y="1797"/>
      <point x="109" y="1509"/>
      <point x="109" y="1217" type="curve" smooth="yes"/>
    </contour>
    <contour>
      <point x="332" y="783" type="line"/>
      <point x="371" y="822"/>
      <point x="461" y="851"/>
      <point x="538" y="851" type="curve" smooth="yes"/>
      <point x="692" y="851"/>
      <point x="744" y="717"/>
      <point x="744" y="538" type="curve" smooth="yes"/>
      <point x="744" y="361"/>
      <point x="692" y="196"/>
      <point x="532" y="196" type="curve" smooth="yes"/>
      <point x="388" y="196"/>
      <point x="332" y="326"/>
      <point x="332" y="517" type="curve"/>
    </contour>
  </outline>
</glyph>
<glyph name="seven" format="1">
  <advance width="735"/>
  <unicode hex="0037"/>
  <outline>
    <contour>
      <point x="151" y="0" type="line"/>
      <point x="374" y="0" type="line"/>
      <point x="468" y="320"/>
      <point x="607" y="1312"/>
      <point x="701" y="1632" type="curve"/>
      <point x="698" y="1766" type="line"/>
      <point x="6" y="1766" type="line"/>
      <point x="6" y="1534" type="line"/>
      <point x="473" y="1534" type="line"/>
    </contour>
  </outline>
</glyph>
<glyph name="eight" format="1">
  <advance width="1048"/>
  <unicode hex="0038"/>
  <outline>
    <contour>
      <point x="307" y="934" type="curve"/>
      <point x="193" y="855"/>
      <point x="101" y="724"/>
      <point x="101" y="500" type="curve" smooth="yes"/>
      <point x="101" y="191"/>
      <point x="211" y="-29"/>
      <point x="530" y="-29" type="curve" smooth="yes"/>
      <point x="849" y="-29"/>
      <point x="959" y="190"/>
      <point x="959" y="500" type="curve" smooth="yes"/>
      <point x="959" y="725"/>
      <point x="865" y="855"/>
      <point x="752" y="934" type="curve"/>
      <point x="871" y="1008"/>
      <point x="950" y="1150"/>
      <point x="950" y="1328" type="curve" smooth="yes"/>
      <point x="950" y="1600"/>
      <point x="826" y="1797"/>
      <point x="530" y="1797" type="curve" smooth="yes"/>
      <point x="234" y="1797"/>
      <point x="109" y="1601"/>
      <point x="109" y="1328" type="curve" smooth="yes"/>
      <point x="109" y="1150"/>
      <point x="188" y="1009"/>
    </contour>
    <contour>
      <point x="530" y="822" type="curve"/>
      <point x="698" y="813"/>
      <point x="739" y="641"/>
      <point x="739" y="487" type="curve" smooth="yes"/>
      <point x="739" y="307"/>
      <point x="684" y="185"/>
      <point x="530" y="185" type="curve" smooth="yes"/>
      <point x="376" y="185"/>
      <point x="320" y="306"/>
      <point x="320" y="487" type="curve" smooth="yes"/>
      <point x="320" y="641"/>
      <point x="362" y="813"/>
    </contour>
    <contour>
      <point x="530" y="1033" type="curve"/>
      <point x="371" y="1037"/>
      <point x="331" y="1191"/>
      <point x="331" y="1346" type="curve" smooth="yes"/>
      <point x="331" y="1483"/>
      <point x="388" y="1587"/>
      <point x="530" y="1587" type="curve" smooth="yes"/>
      <point x="672" y="1587"/>
      <point x="728" y="1482"/>
      <point x="728" y="1346" type="curve" smooth="yes"/>
      <point x="728" y="1192"/>
      <point x="689" y="1037"/>
    </contour>
  </outline>
</glyph>
<glyph name="nine" format="1">
  <advance width="1040"/>
  <unicode hex="0039"/>
  <outline>
    <contour>
      <point x="110" y="449" type="line"/>
      <point x="114" y="188"/>
      <point x="226" y="-28"/>
      <point x="515" y="-28" type="curve" smooth="yes"/>
      <point x="839" y="-28"/>
      <point x="938" y="267"/>
      <point x="938" y="571" type="curve" smooth="yes"/>
      <point x="938" y="1219" type="line" smooth="yes"/>
      <point x="938" y="1530"/>
      <point x="817" y="1797"/>
      <point x="515" y="1797" type="curve" smooth="yes"/>
      <point x="199" y="1797"/>
      <point x="79" y="1521"/>
      <point x="79" y="1222" type="curve" smooth="yes"/>
      <point x="79" y="936"/>
      <point x="181" y="696"/>
      <point x="486" y="696" type="curve" smooth="yes"/>
      <point x="577" y="696"/>
      <point x="654" y="712"/>
      <point x="715" y="744" type="curve"/>
      <point x="715" y="580" type="line" smooth="yes"/>
      <point x="715" y="397"/>
      <point x="667" y="196"/>
      <point x="524" y="196" type="curve" smooth="yes"/>
      <point x="382" y="196"/>
      <point x="328" y="307"/>
      <point x="324" y="477" type="curve"/>
      <point x="110" y="477" type="line"/>
    </contour>
    <contour>
      <point x="715" y="980" type="line"/>
      <point x="676" y="942"/>
      <point x="584" y="914"/>
      <point x="508" y="914" type="curve" smooth="yes"/>
      <point x="354" y="914"/>
      <point x="303" y="1055"/>
      <point x="303" y="1232" type="curve" smooth="yes"/>
      <point x="303" y="1410"/>
      <point x="356" y="1570"/>
      <point x="515" y="1570" type="curve" smooth="yes"/>
      <point x="659" y="1570"/>
      <point x="715" y="1440"/>
      <point x="715" y="1248" type="curve"/>
    </contour>
  </outline>
</glyph>
<glyph name="colon" format="1">
  <advance width="459"/>
  <unicode hex="003A"/>
  <outline>
    <contour>
      <point x="116" y="861" type="line"/>
      <point x="350" y="861" type="line"/>
      <point x="350" y="1119" type="line"/>
      <point x="116" y="1119" type="line"/>
    </contour>
    <contour>
      <point x="116" y="204" type="line"/>
      <point x="350" y="204" type="line"/>
      <point x="350" y="461" type="line"/>
      <point x="116" y="461" type="line"/>
    </contour>
  </outline>
</glyph>
<glyph name="semicolon" format="1">
  <advance width="454"/>
  <unicode hex="003B"/>
  <outline>
    <contour>
      <point x="111" y="861" type="line"/>
      <point x="345" y="861" type="line"/>
      <point x="345" y="1119" type="line"/>
      <point x="111" y="1119" type="line"/>
    </contour>
    <contour>
      <point x="166" y="-55" type="line"/>
      <point x="358" y="-72"/>
      <point x="341" y="154"/>
      <point x="345" y="453" type="curve"/>
      <point x="111" y="453" type="line"/>
      <point x="111" y="194" type="line"/>
      <point x="232" y="194" type="line"/>
      <point x="232" y="126"/>
      <point x="219" y="78"/>
      <point x="135" y="64" type="curve"/>
    </contour>
  </outline>
</glyph>
<glyph name="less" format="1">
  <advance width="777"/>
  <unicode hex="003C"/>
  <outline>
    <contour>
      <point x="75" y="512" type="line"/>
      <point x="167" y="468"/>
      <point x="683" y="70"/>
      <point x="683" y="70" type="curve"/>
      <point x="683" y="309" type="line"/>
      <point x="500" y="432"/>
      <point x="400" y="514"/>
      <point x="218" y="638" type="curve"/>
      <point x="683" y="963" type="line"/>
      <point x="683" y="1202" type="line"/>
      <point x="75" y="761" type="line"/>
    </contour>
  </outline>
</glyph>
<glyph name="equal" format="1">
  <advance width="754"/>
  <unicode hex="003D"/>
  <outline>
    <contour>
      <point x="106" y="580" type="line"/>
      <point x="650" y="580" type="line"/>
      <point x="650" y="757" type="line"/>
      <point x="106" y="757" type="line"/>
    </contour>
    <contour>
      <point x="106" y="257" type="line"/>
      <point x="650" y="257" type="line"/>
      <point x="650" y="433" type="line"/>
      <point x="106" y="433" type="line"/>
    </contour>
  </outline>
</glyph>
<glyph name="greater" format="1">
  <advance width="777"/>
  <unicode hex="003E"/>
  <outline>
    <contour>
      <point x="107" y="70" type="line"/>
      <point x="714" y="512" type="line"/>
      <point x="714" y="761" type="line"/>
      <point x="622" y="803"/>
      <point x="107" y="1203"/>
      <point x="107" y="1203" type="curve"/>
      <point x="107" y="963" type="line"/>
      <point x="236" y="902"/>
      <point x="443" y="698"/>
      <point x="572" y="638" type="curve"/>
      <point x="107" y="309" type="line"/>
    </contour>
  </outline>
</glyph>
<glyph name="question" format="1">
  <advance width="906"/>
  <unicode hex="003F"/>
  <outline>
    <contour>
      <point x="285" y="468" type="line"/>
      <point x="491" y="468" type="line"/>
      <point x="491" y="750" type="line"/>
      <point x="735" y="892"/>
      <point x="871" y="1102"/>
      <point x="871" y="1355" type="curve" smooth="yes"/>
      <point x="871" y="1646"/>
      <point x="686" y="1797"/>
      <point x="455" y="1797" type="curve" smooth="yes"/>
      <point x="215" y="1797"/>
      <point x="38" y="1629"/>
      <point x="38" y="1373" type="curve" smooth="yes"/>
      <point x="38" y="1335"/>
      <point x="41" y="1232"/>
      <point x="48" y="1190" type="curve"/>
      <point x="247" y="1224" type="line"/>
      <point x="243" y="1247"/>
      <point x="241" y="1333"/>
      <point x="241" y="1356" type="curve" smooth="yes"/>
      <point x="241" y="1489"/>
      <point x="329" y="1576"/>
      <point x="455" y="1576" type="curve" smooth="yes"/>
      <point x="567" y="1576"/>
      <point x="662" y="1514"/>
      <point x="662" y="1366" type="curve" smooth="yes"/>
      <point x="662" y="1194"/>
      <point x="571" y="988"/>
      <point x="285" y="836" type="curve"/>
    </contour>
    <contour>
      <point x="269" y="0" type="line"/>
      <point x="507" y="0" type="line"/>
      <point x="507" y="263" type="line"/>
      <point x="269" y="263" type="line"/>
    </contour>
  </outline>
</glyph>
<glyph name="at" format="1">
  <advance width="1540"/>
  <unicode hex="0040"/>
  <outline>
    <contour>
      <point x="1147" y="172" type="line"/>
      <point x="1062" y="148"/>
      <point x="950" y="122"/>
      <point x="837" y="122" type="curve" smooth="yes"/>
      <point x="507" y="122"/>
      <point x="277" y="331"/>
      <point x="277" y="822" type="curve" smooth="yes"/>
      <point x="277" y="1284"/>
      <point x="572" y="1460"/>
      <point x="782" y="1460" type="curve" smooth="yes"/>
      <point x="1106" y="1460"/>
      <point x="1273" y="1258"/>
      <point x="1273" y="829" type="curve" smooth="yes"/>
      <point x="1273" y="680"/>
      <point x="1225" y="547"/>
      <point x="1153" y="547" type="curve" smooth="yes"/>
      <point x="1070" y="547"/>
      <point x="1067" y="626"/>
      <point x="1067" y="673" type="curve" smooth="yes"/>
      <point x="1067" y="1249" type="line"/>
      <point x="866" y="1249" type="line"/>
      <point x="866" y="1188" type="line"/>
      <point x="820" y="1235"/>
      <point x="759" y="1257"/>
      <point x="703" y="1257" type="curve" smooth="yes"/>
      <point x="531" y="1257"/>
      <point x="439" y="1012"/>
      <point x="439" y="768" type="curve" smooth="yes"/>
      <point x="439" y="600"/>
      <point x="504" y="360"/>
      <point x="711" y="360" type="curve" smooth="yes"/>
      <point x="791" y="360"/>
      <point x="870" y="392"/>
      <point x="911" y="493" type="curve"/>
      <point x="955" y="408"/>
      <point x="1055" y="359"/>
      <point x="1157" y="359" type="curve" smooth="yes"/>
      <point x="1343" y="359"/>
      <point x="1473" y="555"/>
      <point x="1473" y="832" type="curve" smooth="yes"/>
      <point x="1473" y="1334"/>
      <point x="1225" y="1639"/>
      <point x="779" y="1639" type="curve" smooth="yes"/>
      <point x="373" y="1639"/>
      <point x="76" y="1328"/>
      <point x="76" y="824" type="curve" smooth="yes"/>
      <point x="76" y="215"/>
      <point x="350" y="-58"/>
      <point x="840" y="-58" type="curve" smooth="yes"/>
      <point x="956" y="-58"/>
      <point x="1079" y="-36"/>
      <point x="1201" y="-9" type="curve"/>
    </contour>
    <contour>
      <point x="866" y="599" type="line"/>
      <point x="836" y="566"/>
      <point x="806" y="547"/>
      <point x="750" y="547" type="curve" smooth="yes"/>
      <point x="669" y="547"/>
      <point x="639" y="646"/>
      <point x="639" y="769" type="curve" smooth="yes"/>
      <point x="639" y="898"/>
      <point x="656" y="1079"/>
      <point x="767" y="1079" type="curve" smooth="yes"/>
      <point x="798" y="1079"/>
      <point x="831" y="1061"/>
      <point x="866" y="1034" type="curve"/>
    </contour>
  </outline>
</glyph>
<glyph name="A" format="1">
  <advance width="1036"/>
  <unicode hex="0041"/>
  <outline>
    <contour>
      <point x="517" y="1749" type="move" name="top"/>
    </contour>
    <contour>
      <point x="267" y="0" type="line"/>
      <point x="349" y="412" type="line"/>
      <point x="687" y="412" type="line"/>
      <point x="769" y="0" type="line"/>
      <point x="997" y="0" type="line"/>
      <point x="639" y="1766" type="line"/>
      <point x="397" y="1766" type="line"/>
      <point x="294" y="1427"/>
      <point x="142" y="339"/>
      <point x="39" y="0" type="curve"/>
    </contour>
    <contour>
      <point x="369" y="584" type="line"/>
      <point x="518" y="1399" type="line"/>
      <point x="666" y="584" type="line"/>
    </contour>
  </outline>
</glyph>
<glyph name="B" format="1">
  <advance width="1070"/>
  <unicode hex="0042"/>
  <outline>
    <contour>
      <point x="132" y="0" type="line"/>
      <point x="548" y="0" type="line" smooth="yes"/>
      <point x="890" y="0"/>
      <point x="990" y="199"/>
      <point x="990" y="523" type="curve" smooth="yes"/>
      <point x="990" y="715"/>
      <point x="927" y="901"/>
      <point x="733" y="963" type="curve"/>
      <point x="877" y="1022"/>
      <point x="950" y="1147"/>
      <point x="950" y="1313" type="curve" smooth="yes"/>
      <point x="950" y="1629"/>
      <point x="810" y="1766"/>
      <point x="502" y="1766" type="curve" smooth="yes"/>
      <point x="132" y="1766" type="line"/>
    </contour>
    <contour>
      <point x="360" y="197" type="line"/>
      <point x="360" y="858" type="line"/>
      <point x="547" y="858" type="line" smooth="yes"/>
      <point x="725" y="858"/>
      <point x="765" y="717"/>
      <point x="765" y="538" type="curve" smooth="yes"/>
      <point x="765" y="328"/>
      <point x="730" y="197"/>
      <point x="547" y="197" type="curve" smooth="yes"/>
    </contour>
    <contour>
      <point x="360" y="1045" type="line"/>
      <point x="360" y="1577" type="line"/>
      <point x="494" y="1577" type="line" smooth="yes"/>
      <point x="660" y="1577"/>
      <point x="726" y="1516"/>
      <point x="726" y="1317" type="curve" smooth="yes"/>
      <point x="726" y="1172"/>
      <point x="686" y="1045"/>
      <point x="538" y="1045" type="curve" smooth="yes"/>
    </contour>
  </outline>
</glyph>
<glyph name="C" format="1">
  <advance width="1110"/>
  <unicode hex="0043"/>
  <outline>
    <contour>
      <point x="574" y="1749" type="move" name="top"/>
    </contour>
    <contour>
      <point x="106" y="558" type="line"/>
      <point x="106" y="235"/>
      <point x="211" y="-32"/>
      <point x="574" y="-32" type="curve" smooth="yes"/>
      <point x="918" y="-32"/>
      <point x="1012" y="241"/>
      <point x="1014" y="550" type="curve" smooth="yes"/>
      <point x="1014" y="673" type="line"/>
      <point x="793" y="673" type="line"/>
      <point x="793" y="517" type="line" smooth="yes"/>
      <point x="794" y="347"/>
      <point x="750" y="182"/>
      <point x="574" y="182" type="curve" smooth="yes"/>
      <point x="381" y="182"/>
      <point x="335" y="338"/>
      <point x="335" y="491" type="curve" smooth="yes"/>
      <point x="335" y="1274" type="line" smooth="yes"/>
      <point x="335" y="1427"/>
      <point x="381" y="1583"/>
      <point x="574" y="1583" type="curve" smooth="yes"/>
      <point x="752" y="1583"/>
      <point x="793" y="1416"/>
      <point x="793" y="1249" type="curve" smooth="yes"/>
      <point x="793" y="1110" type="line"/>
      <point x="1014" y="1110" type="line"/>
      <point x="1014" y="1229" type="line" smooth="yes"/>
      <point x="1014" y="1552"/>
      <point x="907" y="1797"/>
      <point x="574" y="1797" type="curve" smooth="yes"/>
      <point x="216" y="1797"/>
      <point x="106" y="1535"/>
      <point x="106" y="1207" type="curve" smooth="yes"/>
    </contour>
  </outline>
</glyph>
<glyph name="D" format="1">
  <advance width="1117"/>
  <unicode hex="0044"/>
  <outline>
    <contour>
      <point x="360" y="198" type="line"/>
      <point x="360" y="1567" type="line"/>
      <point x="516" y="1567" type="line" smooth="yes"/>
      <point x="714" y="1567"/>
      <point x="783" y="1487"/>
      <point x="783" y="1331" type="curve" smooth="yes"/>
      <point x="783" y="447" type="line" smooth="yes"/>
      <point x="783" y="273"/>
      <point x="724" y="198"/>
      <point x="514" y="198" type="curve" smooth="yes"/>
    </contour>
    <contour>
      <point x="132" y="0" type="line"/>
      <point x="514" y="0" type="line" smooth="yes"/>
      <point x="919" y="0"/>
      <point x="1011" y="217"/>
      <point x="1011" y="576" type="curve" smooth="yes"/>
      <point x="1011" y="1213" type="line" smooth="yes"/>
      <point x="1011" y="1569"/>
      <point x="902" y="1766"/>
      <point x="515" y="1766" type="curve" smooth="yes"/>
      <point x="132" y="1766" type="line"/>
    </contour>
  </outline>
</glyph>
<glyph name="E" format="1">
  <advance width="837"/>
  <unicode hex="0045"/>
  <outline>
    <contour>
      <point x="451" y="1756" type="move" name="top"/>
    </contour>
    <contour>
      <point x="132" y="0" type="line"/>
      <point x="786" y="0" type="line"/>
      <point x="786" y="196" type="line"/>
      <point x="360" y="196" type="line"/>
      <point x="360" y="816" type="line"/>
      <point x="664" y="816" type="line"/>
      <point x="664" y="1012" type="line"/>
      <point x="360" y="1012" type="line"/>
      <point x="360" y="1571" type="line"/>
      <point x="786" y="1571" type="line"/>
      <point x="786" y="1766" type="line"/>
      <point x="132" y="1766" type="line"/>
    </contour>
  </outline>
</glyph>
<glyph name="F" format="1">
  <advance width="772"/>
  <unicode hex="0046"/>
  <outline>
    <contour>
      <point x="132" y="0" type="line"/>
      <point x="360" y="0" type="line"/>
      <point x="360" y="816" type="line"/>
      <point x="664" y="816" type="line"/>
      <point x="664" y="1012" type="line"/>
      <point x="360" y="1012" type="line"/>
      <point x="360" y="1571" type="line"/>
      <point x="786" y="1571" type="line"/>
      <point x="786" y="1766" type="line"/>
      <point x="132" y="1766" type="line"/>
    </contour>
  </outline>
</glyph>
<glyph name="G" format="1">
  <advance width="1161"/>
  <unicode hex="0047"/>
  <outline>
    <contour>
      <point x="106" y="528" type="line"/>
      <point x="106" y="300"/>
      <point x="165" y="-32"/>
      <point x="558" y="-32" type="curve" smooth="yes"/>
      <point x="689" y="-32"/>
      <point x="816" y="38"/>
      <point x="868" y="144" type="curve"/>
      <point x="913" y="0" type="line"/>
      <point x="1046" y="0" type="line"/>
      <point x="1046" y="881" type="line"/>
      <point x="608" y="881" type="line"/>
      <point x="608" y="682" type="line"/>
      <point x="817" y="682" type="line"/>
      <point x="817" y="476" type="line" smooth="yes"/>
      <point x="817" y="345"/>
      <point x="778" y="182"/>
      <point x="585" y="182" type="curve" smooth="yes"/>
      <point x="381" y="182"/>
      <point x="335" y="334"/>
      <point x="335" y="470" type="curve" smooth="yes"/>
      <point x="335" y="1282" type="line" smooth="yes"/>
      <point x="335" y="1426"/>
      <point x="389" y="1583"/>
      <point x="588" y="1583" type="curve" smooth="yes"/>
      <point x="804" y="1583"/>
      <point x="818" y="1391"/>
      <point x="818" y="1220" type="curve" smooth="yes"/>
      <point x="818" y="1142" type="line"/>
      <point x="1040" y="1142" type="line"/>
      <point x="1040" y="1208" type="line" smooth="yes"/>
      <point x="1039" y="1537"/>
      <point x="947" y="1797"/>
      <point x="589" y="1797" type="curve" smooth="yes"/>
      <point x="210" y="1797"/>
      <point x="106" y="1527"/>
      <point x="106" y="1203" type="curve" smooth="yes"/>
    </contour>
  </outline>
</glyph>
<glyph name="H" format="1">
  <advance width="1154"/>
  <unicode hex="0048"/>
  <outline>
    <contour>
      <point x="132" y="0" type="line"/>
      <point x="360" y="0" type="line"/>
      <point x="360" y="817" type="line"/>
      <point x="793" y="817" type="line"/>
      <point x="793" y="0" type="line"/>
      <point x="1023" y="0" type="line"/>
      <point x="1023" y="1766" type="line"/>
      <point x="793" y="1766" type="line"/>
      <point x="793" y="1011" type="line"/>
      <point x="360" y="1011" type="line"/>
      <point x="360" y="1766" type="line"/>
      <point x="132" y="1766" type="line"/>
    </contour>
  </outline>
</glyph>
<glyph name="I" format="1">
  <advance width="492"/>
  <unicode hex="0049"/>
  <outline>
    <contour>
      <point x="247" y="1749" type="move" name="top"/>
    </contour>
    <contour>
      <point x="131" y="0" type="line"/>
      <point x="360" y="0" type="line"/>
      <point x="360" y="1766" type="line"/>
      <point x="131" y="1766" type="line"/>
    </contour>
  </outline>
</glyph>
<glyph name="J" format="1">
  <advance width="607"/>
  <unicode hex="004A"/>
  <outline>
    <contour>
      <point x="8" y="-20" type="line"/>
      <point x="123" y="-20" type="line" smooth="yes"/>
      <point x="436" y="-20"/>
      <point x="479" y="124"/>
      <point x="479" y="423" type="curve" smooth="yes"/>
      <point x="479" y="1766" type="line"/>
      <point x="251" y="1766" type="line"/>
      <point x="251" y="424" type="line" smooth="yes"/>
      <point x="251" y="200"/>
      <point x="221" y="175"/>
      <point x="8" y="177" type="curve"/>
    </contour>
  </outline>
</glyph>
<glyph name="K" format="1">
  <advance width="1074"/>
  <unicode hex="004B"/>
  <outline>
    <contour>
      <point x="132" y="0" type="line"/>
      <point x="360" y="0" type="line"/>
      <point x="360" y="633" type="line"/>
      <point x="492" y="860" type="line"/>
      <point x="825" y="0" type="line"/>
      <point x="1064" y="0" type="line"/>
      <point x="643" y="1041" type="line"/>
      <point x="1003" y="1766" type="line"/>
      <point x="756" y="1766" type="line"/>
      <point x="360" y="989" type="line"/>
      <point x="360" y="1766" type="line"/>
      <point x="132" y="1766" type="line"/>
    </contour>
  </outline>
</glyph>
<glyph name="L" format="1">
  <advance width="808"/>
  <unicode hex="004C"/>
  <outline>
    <contour>
      <point x="132" y="0" type="line"/>
      <point x="797" y="0" type="line"/>
      <point x="797" y="196" type="line"/>
      <point x="360" y="196" type="line"/>
      <point x="360" y="1766" type="line"/>
      <point x="132" y="1766" type="line"/>
    </contour>
  </outline>
</glyph>
<glyph name="M" format="1">
  <advance width="1380"/>
  <unicode hex="004D"/>
  <outline>
    <contour>
      <point x="132" y="0" type="line"/>
      <point x="315" y="0" type="line"/>
      <point x="318" y="1317" type="line"/>
      <point x="601" y="0" type="line"/>
      <point x="784" y="0" type="line"/>
      <point x="805" y="224"/>
      <point x="1041" y="1089"/>
      <point x="1063" y="1313" type="curve"/>
      <point x="1066" y="0" type="line"/>
      <point x="1249" y="0" type="line"/>
      <point x="1249" y="1766" type="line"/>
      <point x="977" y="1766" type="line"/>
      <point x="895" y="1490"/>
      <point x="777" y="721"/>
      <point x="690" y="445" type="curve"/>
      <point x="409" y="1766" type="line"/>
      <point x="132" y="1766" type="line"/>
    </contour>
  </outline>
</glyph>
<glyph name="N" format="1">
  <advance width="1115"/>
  <unicode hex="004E"/>
  <outline>
    <contour>
      <point x="567" y="1749" type="move" name="top"/>
    </contour>
    <contour>
      <point x="132" y="0" type="line"/>
      <point x="329" y="0" type="line"/>
      <point x="329" y="1141" type="line"/>
      <point x="820" y="0" type="line"/>
      <point x="984" y="0" type="line"/>
      <point x="984" y="1767" type="line"/>
      <point x="792" y="1767" type="line"/>
      <point x="792" y="646" type="line"/>
      <point x="301" y="1767" type="line"/>
      <point x="132" y="1767" type="line"/>
    </contour>
  </outline>
</glyph>
<glyph name="O" format="1">
  <advance width="1154"/>
  <unicode hex="004F"/>
  <outline>
    <contour>
      <point x="577" y="1749" type="move" name="top"/>
    </contour>
    <contour>
      <point x="819" y="491" type="line"/>
      <point x="819" y="337"/>
      <point x="771" y="181"/>
      <point x="577" y="181" type="curve" smooth="yes"/>
      <point x="383" y="181"/>
      <point x="335" y="339"/>
      <point x="335" y="491" type="curve" smooth="yes"/>
      <point x="335" y="1274" type="line" smooth="yes"/>
      <point x="335" y="1425"/>
      <point x="384" y="1583"/>
      <point x="577" y="1583" type="curve" smooth="yes"/>
      <point x="770" y="1583"/>
      <point x="819" y="1426"/>
      <point x="819" y="1274" type="curve" smooth="yes"/>
    </contour>
    <contour>
      <point x="106" y="552" type="line"/>
      <point x="106" y="230"/>
      <point x="215" y="-32"/>
      <point x="577" y="-32" type="curve" smooth="yes"/>
      <point x="939" y="-32"/>
      <point x="1047" y="235"/>
      <point x="1047" y="558" type="curve" smooth="yes"/>
      <point x="1047" y="1207" type="line" smooth="yes"/>
      <point x="1047" y="1536"/>
      <point x="935" y="1797"/>
      <point x="577" y="1797" type="curve" smooth="yes"/>
      <point x="219" y="1797"/>
      <point x="106" y="1536"/>
      <point x="106" y="1207" type="curve" smooth="yes"/>
    </contour>
  </outline>
</glyph>
<glyph name="P" format="1">
  <advance width="1024"/>
  <unicode hex="0050"/>
  <outline>
    <contour>
      <point x="132" y="0" type="line"/>
      <point x="360" y="0" type="line"/>
      <point x="360" y="768" type="line"/>
      <point x="532" y="768" type="line" smooth="yes"/>
      <point x="858" y="769"/>
      <point x="980" y="935"/>
      <point x="980" y="1276" type="curve" smooth="yes"/>
      <point x="980" y="1565"/>
      <point x="871" y="1766"/>
      <point x="558" y="1766" type="curve" smooth="yes"/>
      <point x="132" y="1766" type="line"/>
    </contour>
    <contour>
      <point x="360" y="968" type="line"/>
      <point x="360" y="1566" type="line"/>
      <point x="550" y="1566" type="line" smooth="yes"/>
      <point x="708" y="1566"/>
      <point x="759" y="1462"/>
      <point x="759" y="1279" type="curve" smooth="yes"/>
      <point x="759" y="1068"/>
      <point x="717" y="967"/>
      <point x="549" y="967" type="curve" smooth="yes"/>
    </contour>
  </outline>
</glyph>
<glyph name="Q" format="1">
  <advance width="1161"/>
  <unicode hex="0051"/>
  <outline>
    <contour>
      <point x="106" y="552" type="line"/>
      <point x="106" y="220"/>
      <point x="225" y="-33"/>
      <point x="576" y="-33" type="curve" smooth="yes"/>
      <point x="620" y="-33"/>
      <point x="661" y="-30"/>
      <point x="700" y="-23" type="curve"/>
      <point x="779" y="-116"/>
      <point x="877" y="-217"/>
      <point x="1041" y="-225" type="curve"/>
      <point x="1041" y="-49" type="line"/>
      <point x="979" y="-44"/>
      <point x="890" y="-21"/>
      <point x="842" y="41" type="curve"/>
      <point x="1000" y="156"/>
      <point x="1050" y="354"/>
      <point x="1050" y="558" type="curve" smooth="yes"/>
      <point x="1050" y="1207" type="line" smooth="yes"/>
      <point x="1050" y="1536"/>
      <point x="936" y="1797"/>
      <point x="578" y="1797" type="curve" smooth="yes"/>
      <point x="220" y="1797"/>
      <point x="106" y="1536"/>
      <point x="106" y="1207" type="curve" smooth="yes"/>
    </contour>
    <contour>
      <point x="822" y="491" type="line"/>
      <point x="822" y="337"/>
      <point x="773" y="182"/>
      <point x="578" y="182" type="curve" smooth="yes"/>
      <point x="384" y="182"/>
      <point x="335" y="338"/>
      <point x="335" y="491" type="curve" smooth="yes"/>
      <point x="335" y="1274" type="line" smooth="yes"/>
      <point x="335" y="1426"/>
      <point x="385" y="1583"/>
      <point x="578" y="1583" type="curve" smooth="yes"/>
      <point x="772" y="1583"/>
      <point x="822" y="1427"/>
      <point x="822" y="1274" type="curve" smooth="yes"/>
    </contour>
  </outline>
</glyph>
<glyph name="R" format="1">
  <advance width="1092"/>
  <unicode hex="0052"/>
  <outline>
    <contour>
      <point x="532" y="1749" type="move" name="top"/>
    </contour>
    <contour>
      <point x="552" y="0" type="move" name="bot"/>
    </contour>
    <contour>
      <point x="132" y="0" type="line"/>
      <point x="360" y="0" type="line"/>
      <point x="360" y="834" type="line"/>
      <point x="567" y="834" type="line"/>
      <point x="802" y="0" type="line"/>
      <point x="1041" y="0" type="line"/>
      <point x="1005" y="172"/>
      <point x="802" y="701"/>
      <point x="769" y="865" type="curve"/>
      <point x="971" y="950"/>
      <point x="1011" y="1139"/>
      <point x="1011" y="1305" type="curve" smooth="yes"/>
      <point x="1011" y="1608"/>
      <point x="885" y="1766"/>
      <point x="568" y="1766" type="curve" smooth="yes"/>
      <point x="132" y="1766" type="line"/>
    </contour>
    <contour>
      <point x="360" y="1013" type="line"/>
      <point x="360" y="1561" type="line"/>
      <point x="600" y="1561" type="line" smooth="yes"/>
      <point x="753" y="1561"/>
      <point x="783" y="1401"/>
      <point x="783" y="1290" type="curve" smooth="yes"/>
      <point x="783" y="1183"/>
      <point x="754" y="1013"/>
      <point x="594" y="1013" type="curve" smooth="yes"/>
    </contour>
  </outline>
</glyph>
<glyph name="S" format="1">
  <advance width="1018"/>
  <unicode hex="0053"/>
  <outline>
    <contour>
      <point x="500" y="1749" type="move" name="top"/>
    </contour>
    <contour>
      <point x="72" y="473" type="line"/>
      <point x="100" y="210"/>
      <point x="241" y="-33"/>
      <point x="526" y="-33" type="curve" smooth="yes"/>
      <point x="764" y="-33"/>
      <point x="953" y="121"/>
      <point x="953" y="378" type="curve" smooth="yes"/>
      <point x="953" y="622"/>
      <point x="807" y="779"/>
      <point x="654" y="937" type="curve" smooth="yes"/>
      <point x="639" y="959"/>
      <point x="461" y="1097"/>
      <point x="444" y="1119" type="curve" smooth="yes"/>
      <point x="360" y="1199"/>
      <point x="298" y="1282"/>
      <point x="298" y="1397" type="curve" smooth="yes"/>
      <point x="298" y="1507"/>
      <point x="376" y="1586"/>
      <point x="501" y="1586" type="curve" smooth="yes"/>
      <point x="640" y="1586"/>
      <point x="707" y="1459"/>
      <point x="723" y="1342" type="curve" smooth="yes"/>
      <point x="723" y="1326"/>
      <point x="723" y="1307"/>
      <point x="723" y="1294" type="curve"/>
      <point x="940" y="1341" type="line"/>
      <point x="940" y="1358"/>
      <point x="939" y="1369"/>
      <point x="939" y="1373" type="curve" smooth="yes"/>
      <point x="910" y="1622"/>
      <point x="749" y="1798"/>
      <point x="512" y="1798" type="curve" smooth="yes"/>
      <point x="256" y="1798"/>
      <point x="75" y="1634"/>
      <point x="75" y="1368" type="curve" smooth="yes"/>
      <point x="75" y="1164"/>
      <point x="180" y="1042"/>
      <point x="296" y="928" type="curve" smooth="yes"/>
      <point x="509" y="752" type="line" smooth="yes"/>
      <point x="626" y="643"/>
      <point x="733" y="513"/>
      <point x="733" y="365" type="curve" smooth="yes"/>
      <point x="733" y="254"/>
      <point x="669" y="180"/>
      <point x="538" y="180" type="curve" smooth="yes"/>
      <point x="362" y="180"/>
      <point x="304" y="362"/>
      <point x="291" y="530" type="curve"/>
    </contour>
  </outline>
</glyph>
<glyph name="T" format="1">
  <advance width="815"/>
  <unicode hex="0054"/>
  <outline>
    <contour>
      <point x="293" y="0" type="line"/>
      <point x="522" y="0" type="line"/>
      <point x="522" y="1558" type="line"/>
      <point x="831" y="1558" type="line"/>
      <point x="831" y="1766" type="line"/>
      <point x="-16" y="1766" type="line"/>
      <point x="-16" y="1558" type="line"/>
      <point x="293" y="1558" type="line"/>
    </contour>
  </outline>
</glyph>
<glyph name="U" format="1">
  <advance width="1178"/>
  <unicode hex="0055"/>
  <outline>
    <contour>
      <point x="594" y="1749" type="move" name="top"/>
    </contour>
    <contour>
      <point x="120" y="564" type="line"/>
      <point x="120" y="248"/>
      <point x="203" y="-32"/>
      <point x="594" y="-32" type="curve" smooth="yes"/>
      <point x="976" y="-32"/>
      <point x="1058" y="248"/>
      <point x="1058" y="564" type="curve" smooth="yes"/>
      <point x="1058" y="1766" type="line"/>
      <point x="830" y="1766" type="line"/>
      <point x="830" y="556" type="line" smooth="yes"/>
      <point x="830" y="302"/>
      <point x="785" y="182"/>
      <point x="594" y="182" type="curve" smooth="yes"/>
      <point x="395" y="182"/>
      <point x="349" y="301"/>
      <point x="349" y="556" type="curve" smooth="yes"/>
      <point x="349" y="1766" type="line"/>
      <point x="120" y="1766" type="line"/>
    </contour>
  </outline>
</glyph>
<glyph name="V" format="1">
  <advance width="1009"/>
  <unicode hex="0056"/>
  <outline>
    <contour>
      <point x="381" y="0" type="line"/>
      <point x="628" y="0" type="line"/>
      <point x="984" y="1766" type="line"/>
      <point x="757" y="1766" type="line"/>
      <point x="506" y="484" type="line"/>
      <point x="254" y="1766" type="line"/>
      <point x="25" y="1766" type="line"/>
    </contour>
  </outline>
</glyph>
<glyph name="W" format="1">
  <advance width="1454"/>
  <unicode hex="0057"/>
  <outline>
    <contour>
      <point x="307" y="0" type="line"/>
      <point x="530" y="0" type="line"/>
      <point x="732" y="1323" type="line"/>
      <point x="924" y="0" type="line"/>
      <point x="1148" y="0" type="line"/>
      <point x="1421" y="1766" type="line"/>
      <point x="1219" y="1766" type="line"/>
      <point x="1027" y="459" type="line"/>
      <point x="843" y="1766" type="line"/>
      <point x="623" y="1766" type="line"/>
      <point x="426" y="455" type="line"/>
      <point x="235" y="1766" type="line"/>
      <point x="33" y="1766" type="line"/>
    </contour>
  </outline>
</glyph>
<glyph name="X" format="1">
  <advance width="1031"/>
  <unicode hex="0058"/>
  <outline>
    <contour>
      <point x="46" y="0" type="line"/>
      <point x="270" y="0" type="line"/>
      <point x="519" y="647" type="line"/>
      <point x="771" y="0" type="line"/>
      <point x="988" y="0" type="line"/>
      <point x="650" y="900" type="line"/>
      <point x="990" y="1767" type="line"/>
      <point x="768" y="1767" type="line"/>
      <point x="515" y="1150" type="line"/>
      <point x="261" y="1767" type="line"/>
      <point x="45" y="1767" type="line"/>
      <point x="385" y="903" type="line"/>
    </contour>
  </outline>
</glyph>
<glyph name="Y" format="1">
  <advance width="941"/>
  <unicode hex="0059"/>
  <outline>
    <contour>
      <point x="475" y="1749" type="move" name="top"/>
    </contour>
    <contour>
      <point x="362" y="0" type="line"/>
      <point x="586" y="0" type="line"/>
      <point x="586" y="569" type="line"/>
      <point x="941" y="1766" type="line"/>
      <point x="719" y="1766" type="line"/>
      <point x="618" y="1427"/>
      <point x="572" y="1212"/>
      <point x="472" y="873" type="curve"/>
      <point x="232" y="1766" type="line"/>
      <point x="0" y="1766" type="line"/>
      <point x="362" y="569" type="line"/>
    </contour>
  </outline>
</glyph>
<glyph name="Z" format="1">
  <advance width="933"/>
  <unicode hex="005A"/>
  <outline>
    <contour>
      <point x="72" y="0" type="line"/>
      <point x="859" y="0" type="line"/>
      <point x="859" y="196" type="line"/>
      <point x="300" y="196" type="line"/>
      <point x="859" y="1574" type="line"/>
      <point x="859" y="1766" type="line"/>
      <point x="133" y="1766" type="line"/>
      <point x="133" y="1570" type="line"/>
      <point x="630" y="1570" type="line"/>
      <point x="72" y="191" type="line"/>
    </contour>
  </outline>
</glyph>
<glyph name="bracketleft" format="1">
  <advance width="597"/>
  <unicode hex="005B"/>
  <outline>
    <contour>
      <point x="152" y="-64" type="line"/>
      <point x="561" y="-64" type="line"/>
      <point x="561" y="61" type="line"/>
      <point x="353" y="61" type="line"/>
      <point x="353" y="1727" type="line"/>
      <point x="561" y="1727" type="line"/>
      <point x="561" y="1853" type="line"/>
      <point x="152" y="1853" type="line"/>
    </contour>
  </outline>
</glyph>
<glyph name="backslash" format="1">
  <advance width="635"/>
  <unicode hex="005C"/>
  <outline>
    <contour>
      <point x="441" y="0" type="line"/>
      <point x="638" y="0" type="line"/>
      <point x="213" y="1791" type="line"/>
      <point x="17" y="1791" type="line"/>
    </contour>
  </outline>
</glyph>
<glyph name="bracketright" format="1">
  <advance width="585"/>
  <unicode hex="005D"/>
  <outline>
    <contour>
      <point x="43" y="-64" type="line"/>
      <point x="440" y="-64" type="line"/>
      <point x="440" y="1823" type="line"/>
      <point x="43" y="1823" type="line"/>
      <point x="43" y="1715" type="line"/>
      <point x="250" y="1715" type="line"/>
      <point x="250" y="44" type="line"/>
      <point x="43" y="44" type="line"/>
    </contour>
  </outline>
</glyph>
<glyph name="asciicircum" format="1">
  <advance width="819"/>
  <unicode hex="005E"/>
  <outline>
    <contour>
      <point x="269" y="902" type="line"/>
      <point x="409" y="1372" type="line"/>
      <point x="552" y="902" type="line"/>
      <point x="768" y="902" type="line"/>
      <point x="526" y="1530" type="line"/>
      <point x="294" y="1530" type="line"/>
      <point x="294" y="1530"/>
      <point x="94" y="975"/>
      <point x="51" y="902" type="curve"/>
    </contour>
  </outline>
</glyph>
<glyph name="underscore" format="1">
  <advance width="883"/>
  <unicode hex="005F"/>
  <outline>
    <contour>
      <point x="76" y="0" type="line"/>
      <point x="811" y="0" type="line"/>
      <point x="811" y="177" type="line"/>
      <point x="76" y="177" type="line"/>
    </contour>
  </outline>
</glyph>
<glyph name="grave" format="1">
  <advance width="519"/>
  <unicode hex="0060"/>
  <outline>
    <contour>
      <point x="373" y="1236" type="move" name="_top"/>
    </contour>
    <contour>
      <point x="318" y="1364" type="line"/>
      <point x="428" y="1364" type="line"/>
      <point x="300" y="1787" type="line"/>
      <point x="72" y="1787" type="line"/>
    </contour>
  </outline>
</glyph>
<glyph name="a" format="1">
  <advance width="888"/>
  <unicode hex="0061"/>
  <outline>
    <contour>
      <point x="441" y="1236" type="move" name="top"/>
    </contour>
    <contour>
      <point x="317" y="-28" type="curve" smooth="yes"/>
      <point x="410" y="-28"/>
      <point x="514" y="14"/>
      <point x="572" y="139" type="curve"/>
      <point x="596" y="0" type="line"/>
      <point x="797" y="0" type="line"/>
      <point x="787" y="67"/>
      <point x="770" y="188"/>
      <point x="770" y="317" type="curve" smooth="yes"/>
      <point x="770" y="918" type="line" smooth="yes"/>
      <point x="770" y="1104"/>
      <point x="674" y="1288"/>
      <point x="440" y="1288" type="curve" smooth="yes"/>
      <point x="224" y="1288"/>
      <point x="97" y="1138"/>
      <point x="87" y="877" type="curve"/>
      <point x="304" y="877" type="line"/>
      <point x="304" y="923" type="line" smooth="yes"/>
      <point x="312" y="1047"/>
      <point x="365" y="1099"/>
      <point x="431" y="1099" type="curve" smooth="yes"/>
      <point x="498" y="1099"/>
      <point x="552" y="1057"/>
      <point x="552" y="858" type="curve" smooth="yes"/>
      <point x="552" y="791" type="line"/>
      <point x="153" y="644"/>
      <point x="68" y="520"/>
      <point x="68" y="269" type="curve" smooth="yes"/>
      <point x="68" y="111"/>
      <point x="171" y="-28"/>
    </contour>
    <contour>
      <point x="385" y="171" type="curve" smooth="yes"/>
      <point x="330" y="171"/>
      <point x="283" y="220"/>
      <point x="283" y="299" type="curve" smooth="yes"/>
      <point x="283" y="443"/>
      <point x="389" y="536"/>
      <point x="552" y="637" type="curve"/>
      <point x="553" y="273" type="line"/>
      <point x="516" y="220"/>
      <point x="450" y="171"/>
    </contour>
  </outline>
</glyph>
<glyph name="b" format="1">
  <advance width="918"/>
  <unicode hex="0062"/>
  <outline>
    <contour>
      <point x="111" y="0" type="line"/>
      <point x="328" y="0" type="line"/>
      <point x="328" y="104" type="line"/>
      <point x="392" y="13"/>
      <point x="484" y="-28"/>
      <point x="565" y="-28" type="curve" smooth="yes"/>
      <point x="690" y="-28"/>
      <point x="821" y="72"/>
      <point x="821" y="376" type="curve" smooth="yes"/>
      <point x="821" y="860" type="line" smooth="yes"/>
      <point x="821" y="1180"/>
      <point x="689" y="1288"/>
      <point x="554" y="1288" type="curve" smooth="yes"/>
      <point x="470" y="1288"/>
      <point x="388" y="1239"/>
      <point x="328" y="1161" type="curve"/>
      <point x="328" y="1766" type="line"/>
      <point x="111" y="1766" type="line"/>
    </contour>
    <contour>
      <point x="603" y="415" type="line"/>
      <point x="603" y="200"/>
      <point x="555" y="165"/>
      <point x="488" y="165" type="curve" smooth="yes"/>
      <point x="435" y="165"/>
      <point x="373" y="219"/>
      <point x="328" y="263" type="curve"/>
      <point x="328" y="999" type="line"/>
      <point x="375" y="1043"/>
      <point x="432" y="1094"/>
      <point x="491" y="1094" type="curve" smooth="yes"/>
      <point x="556" y="1094"/>
      <point x="603" y="1058"/>
      <point x="603" y="844" type="curve" smooth="yes"/>
    </contour>
  </outline>
</glyph>
<glyph name="c" format="1">
  <advance width="868"/>
  <unicode hex="0063"/>
  <outline>
    <contour>
      <point x="451" y="1237" type="move" name="top"/>
    </contour>
    <contour>
      <point x="451" y="0" type="move" name="bot"/>
    </contour>
    <contour>
      <point x="97" y="433" type="line"/>
      <point x="97" y="177"/>
      <point x="165" y="-28"/>
      <point x="451" y="-28" type="curve" smooth="yes"/>
      <point x="686" y="-28"/>
      <point x="784" y="133"/>
      <point x="790" y="360" type="curve" smooth="yes"/>
      <point x="790" y="475" type="line"/>
      <point x="575" y="475" type="line"/>
      <point x="575" y="391" type="line" smooth="yes"/>
      <point x="568" y="233"/>
      <point x="543" y="161"/>
      <point x="451" y="161" type="curve" smooth="yes"/>
      <point x="335" y="161"/>
      <point x="315" y="256"/>
      <point x="315" y="434" type="curve" smooth="yes"/>
      <point x="315" y="832" type="line" smooth="yes"/>
      <point x="315" y="1006"/>
      <point x="331" y="1099"/>
      <point x="451" y="1099" type="curve" smooth="yes"/>
      <point x="545" y="1099"/>
      <point x="569" y="1025"/>
      <point x="575" y="881" type="curve" smooth="yes"/>
      <point x="575" y="791" type="line"/>
      <point x="790" y="791" type="line"/>
      <point x="790" y="793"/>
      <point x="789" y="860"/>
      <point x="789" y="861" type="curve" smooth="yes"/>
      <point x="782" y="1107"/>
      <point x="705" y="1288"/>
      <point x="451" y="1288" type="curve" smooth="yes"/>
      <point x="141" y="1288"/>
      <point x="97" y="1054"/>
      <point x="97" y="782" type="curve" smooth="yes"/>
    </contour>
  </outline>
</glyph>
<glyph name="d" format="1">
  <advance width="931"/>
  <unicode hex="0064"/>
  <outline>
    <contour>
      <point x="586" y="0" type="line"/>
      <point x="803" y="0" type="line"/>
      <point x="803" y="1766" type="line"/>
      <point x="586" y="1766" type="line"/>
      <point x="586" y="1161" type="line"/>
      <point x="526" y="1239"/>
      <point x="444" y="1288"/>
      <point x="360" y="1288" type="curve" smooth="yes"/>
      <point x="225" y="1288"/>
      <point x="93" y="1180"/>
      <point x="93" y="860" type="curve" smooth="yes"/>
      <point x="93" y="376" type="line" smooth="yes"/>
      <point x="93" y="72"/>
      <point x="224" y="-28"/>
      <point x="349" y="-28" type="curve" smooth="yes"/>
      <point x="430" y="-28"/>
      <point x="522" y="13"/>
      <point x="586" y="104" type="curve"/>
    </contour>
    <contour>
      <point x="586" y="258" type="line"/>
      <point x="541" y="213"/>
      <point x="479" y="165"/>
      <point x="426" y="165" type="curve" smooth="yes"/>
      <point x="359" y="165"/>
      <point x="310" y="200"/>
      <point x="310" y="415" type="curve" smooth="yes"/>
      <point x="310" y="844" type="line" smooth="yes"/>
      <point x="310" y="1058"/>
      <point x="358" y="1094"/>
      <point x="423" y="1094" type="curve" smooth="yes"/>
      <point x="482" y="1094"/>
      <point x="539" y="1044"/>
      <point x="586" y="1001" type="curve"/>
    </contour>
  </outline>
</glyph>
<glyph name="e" format="1">
  <advance width="875"/>
  <unicode hex="0065"/>
  <outline>
    <contour>
      <point x="456" y="1236" type="move" name="top"/>
    </contour>
    <contour>
      <point x="445" y="0" type="move" name="bot"/>
    </contour>
    <contour>
      <point x="455" y="-28" type="curve" smooth="yes"/>
      <point x="675" y="-28"/>
      <point x="778" y="132"/>
      <point x="789" y="348" type="curve" smooth="yes"/>
      <point x="789" y="435" type="line"/>
      <point x="580" y="435" type="line"/>
      <point x="580" y="350" type="line" smooth="yes"/>
      <point x="579" y="220"/>
      <point x="524" y="161"/>
      <point x="453" y="161" type="curve" smooth="yes"/>
      <point x="361" y="161"/>
      <point x="316" y="220"/>
      <point x="316" y="382" type="curve" smooth="yes"/>
      <point x="316" y="626" type="line"/>
      <point x="790" y="626" type="line"/>
      <point x="792" y="646"/>
      <point x="792" y="812"/>
      <point x="792" y="833" type="curve" smooth="yes"/>
      <point x="792" y="1125"/>
      <point x="694" y="1288"/>
      <point x="454" y="1288" type="curve" smooth="yes"/>
      <point x="232" y="1288"/>
      <point x="100" y="1155"/>
      <point x="98" y="820" type="curve" smooth="yes"/>
      <point x="98" y="430" type="line" smooth="yes"/>
      <point x="95" y="109"/>
      <point x="222" y="-28"/>
    </contour>
    <contour>
      <point x="317" y="759" type="line"/>
      <point x="317" y="864" type="line" smooth="yes"/>
      <point x="317" y="1004"/>
      <point x="321" y="1099"/>
      <point x="459" y="1099" type="curve" smooth="yes"/>
      <point x="585" y="1099"/>
      <point x="574" y="967"/>
      <point x="576" y="863" type="curve" smooth="yes"/>
      <point x="576" y="759" type="line"/>
    </contour>
  </outline>
</glyph>
<glyph name="f" format="1">
  <advance width="602"/>
  <unicode hex="0066"/>
  <outline>
    <contour>
      <point x="170" y="0" type="line"/>
      <point x="388" y="0" type="line"/>
      <point x="388" y="1094" type="line"/>
      <point x="569" y="1094" type="line"/>
      <point x="569" y="1260" type="line"/>
      <point x="388" y="1260" type="line"/>
      <point x="388" y="1371" type="line" smooth="yes"/>
      <point x="388" y="1451"/>
      <point x="394" y="1501"/>
      <point x="489" y="1501" type="curve" smooth="yes"/>
      <point x="505" y="1501"/>
      <point x="561" y="1496"/>
      <point x="569" y="1495" type="curve"/>
      <point x="569" y="1686" type="line"/>
      <point x="545" y="1690"/>
      <point x="475" y="1700"/>
      <point x="414" y="1700" type="curve" smooth="yes"/>
      <point x="173" y="1700"/>
      <point x="171" y="1478"/>
      <point x="170" y="1315" type="curve" smooth="yes"/>
      <point x="170" y="1260" type="line"/>
      <point x="36" y="1260" type="line"/>
      <point x="36" y="1094" type="line"/>
      <point x="170" y="1094" type="line"/>
    </contour>
  </outline>
</glyph>
<glyph name="g" format="1">
  <advance width="942"/>
  <unicode hex="0067"/>
  <outline>
    <contour>
      <point x="924" y="1287" type="line"/>
      <point x="838" y="1278"/>
      <point x="764" y="1226"/>
      <point x="719" y="1161" type="curve"/>
      <point x="653" y="1242"/>
      <point x="574" y="1288"/>
      <point x="454" y="1288" type="curve" smooth="yes"/>
      <point x="190" y="1288"/>
      <point x="91" y="1045"/>
      <point x="91" y="825" type="curve" smooth="yes"/>
      <point x="91" y="695"/>
      <point x="131" y="554"/>
      <point x="218" y="450" type="curve"/>
      <point x="184" y="403"/>
      <point x="78" y="271"/>
      <point x="78" y="206" type="curve" smooth="yes"/>
      <point x="78" y="166"/>
      <point x="210" y="122"/>
      <point x="230" y="110" type="curve"/>
      <point x="132" y="54"/>
      <point x="30" y="-47"/>
      <point x="30" y="-163" type="curve" smooth="yes"/>
      <point x="30" y="-358"/>
      <point x="345" y="-363"/>
      <point x="462" y="-363" type="curve" smooth="yes"/>
      <point x="624" y="-363"/>
      <point x="885" y="-320"/>
      <point x="885" y="-52" type="curve" smooth="yes"/>
      <point x="885" y="138"/>
      <point x="695" y="184"/>
      <point x="536" y="211" type="curve" smooth="yes"/>
      <point x="320" y="241"/>
      <point x="270" y="248"/>
      <point x="270" y="284" type="curve" smooth="yes"/>
      <point x="270" y="312"/>
      <point x="307" y="370"/>
      <point x="322" y="388" type="curve"/>
      <point x="341" y="383"/>
      <point x="403" y="370"/>
      <point x="453" y="370" type="curve" smooth="yes"/>
      <point x="707" y="370"/>
      <point x="820" y="578"/>
      <point x="820" y="813" type="curve" smooth="yes"/>
      <point x="820" y="879"/>
      <point x="809" y="953"/>
      <point x="781" y="1021" type="curve"/>
      <point x="819" y="1060"/>
      <point x="875" y="1082"/>
      <point x="926" y="1086" type="curve"/>
      <point x="949" y="1288" type="line"/>
    </contour>
    <contour>
      <point x="479" y="51" type="line"/>
      <point x="583" y="39"/>
      <point x="677" y="14"/>
      <point x="677" y="-85" type="curve" smooth="yes"/>
      <point x="677" y="-186"/>
      <point x="521" y="-182"/>
      <point x="466" y="-182" type="curve" smooth="yes"/>
      <point x="383" y="-182"/>
      <point x="227" y="-182"/>
      <point x="227" y="-108" type="curve" smooth="yes"/>
      <point x="227" y="-49"/>
      <point x="287" y="30"/>
      <point x="333" y="68" type="curve"/>
    </contour>
    <contour>
      <point x="455" y="562" type="curve" smooth="yes"/>
      <point x="315" y="562"/>
      <point x="302" y="743"/>
      <point x="302" y="819" type="curve" smooth="yes"/>
      <point x="302" y="924"/>
      <point x="316" y="1102"/>
      <point x="457" y="1102" type="curve" smooth="yes"/>
      <point x="596" y="1102"/>
      <point x="609" y="899"/>
      <point x="609" y="827" type="curve" smooth="yes"/>
      <point x="609" y="749"/>
      <point x="595" y="562"/>
    </contour>
  </outline>
</glyph>
<glyph name="h" format="1">
  <advance width="924"/>
  <unicode hex="0068"/>
  <outline>
    <contour>
      <point x="111" y="0" type="line"/>
      <point x="329" y="0" type="line"/>
      <point x="329" y="999" type="line"/>
      <point x="375" y="1038"/>
      <point x="440" y="1083"/>
      <point x="497" y="1083" type="curve" smooth="yes"/>
      <point x="551" y="1083"/>
      <point x="591" y="1020"/>
      <point x="591" y="951" type="curve" smooth="yes"/>
      <point x="591" y="0" type="line"/>
      <point x="809" y="0" type="line"/>
      <point x="809" y="1005" type="line" smooth="yes"/>
      <point x="809" y="1162"/>
      <point x="700" y="1288"/>
      <point x="576" y="1288" type="curve" smooth="yes"/>
      <point x="485" y="1288"/>
      <point x="391" y="1240"/>
      <point x="328" y="1158" type="curve"/>
      <point x="328" y="1766" type="line"/>
      <point x="111" y="1766" type="line"/>
    </contour>
  </outline>
</glyph>
<glyph name="i" format="1">
  <advance width="450"/>
  <unicode hex="0069"/>
  <outline>
    <contour>
      <point x="119" y="0" type="line"/>
      <point x="336" y="0" type="line"/>
      <point x="336" y="1260" type="line"/>
      <point x="119" y="1260" type="line"/>
    </contour>
    <contour>
      <point x="119" y="1442" type="line"/>
      <point x="336" y="1442" type="line"/>
      <point x="336" y="1699" type="line"/>
      <point x="119" y="1699" type="line"/>
    </contour>
  </outline>
</glyph>
<glyph name="j" format="1">
  <advance width="475"/>
  <unicode hex="006A"/>
  <outline>
    <contour>
      <point x="-51" y="-296" type="line"/>
      <point x="-10" y="-307"/>
      <point x="35" y="-315"/>
      <point x="65" y="-315" type="curve" smooth="yes"/>
      <point x="246" y="-315"/>
      <point x="348" y="-206"/>
      <point x="348" y="-5" type="curve" smooth="yes"/>
      <point x="348" y="1260" type="line"/>
      <point x="131" y="1260" type="line"/>
      <point x="131" y="24" type="line" smooth="yes"/>
      <point x="131" y="-32"/>
      <point x="126" y="-120"/>
      <point x="16" y="-120" type="curve" smooth="yes"/>
      <point x="0" y="-120"/>
      <point x="-26" y="-115"/>
      <point x="-51" y="-110" type="curve"/>
    </contour>
    <contour>
      <point x="131" y="1442" type="line"/>
      <point x="348" y="1442" type="line"/>
      <point x="348" y="1699" type="line"/>
      <point x="131" y="1699" type="line"/>
    </contour>
  </outline>
</glyph>
<glyph name="k" format="1">
  <advance width="917"/>
  <unicode hex="006B"/>
  <outline>
    <contour>
      <point x="477" y="0" type="move" name="bot"/>
    </contour>
    <contour>
      <point x="112" y="0" type="line"/>
      <point x="330" y="0" type="line"/>
      <point x="330" y="491" type="line"/>
      <point x="441" y="612" type="line"/>
      <point x="654" y="0" type="line"/>
      <point x="880" y="0" type="line"/>
      <point x="582" y="750" type="line"/>
      <point x="881" y="1260" type="line"/>
      <point x="643" y="1260" type="line"/>
      <point x="330" y="758" type="line"/>
      <point x="330" y="1766" type="line"/>
      <point x="112" y="1766" type="line"/>
    </contour>
  </outline>
</glyph>
<glyph name="l" format="1">
  <advance width="473"/>
  <unicode hex="006C"/>
  <outline>
    <contour>
      <point x="131" y="0" type="line"/>
      <point x="348" y="0" type="line"/>
      <point x="348" y="1766" type="line"/>
      <point x="131" y="1766" type="line"/>
    </contour>
  </outline>
</glyph>
<glyph name="m" format="1">
  <advance width="1414"/>
  <unicode hex="006D"/>
  <outline>
    <contour>
      <point x="111" y="0" type="line"/>
      <point x="328" y="0" type="line"/>
      <point x="328" y="1001" type="line"/>
      <point x="376" y="1046"/>
      <point x="445" y="1094"/>
      <point x="503" y="1094" type="curve" smooth="yes"/>
      <point x="566" y="1094"/>
      <point x="605" y="1043"/>
      <point x="605" y="980" type="curve" smooth="yes"/>
      <point x="605" y="0" type="line"/>
      <point x="822" y="0" type="line"/>
      <point x="822" y="1011" type="line"/>
      <point x="866" y="1048"/>
      <point x="931" y="1094"/>
      <point x="981" y="1094" type="curve" smooth="yes"/>
      <point x="1043" y="1094"/>
      <point x="1082" y="1042"/>
      <point x="1082" y="978" type="curve" smooth="yes"/>
      <point x="1082" y="0" type="line"/>
      <point x="1300" y="0" type="line"/>
      <point x="1300" y="1030" type="line" smooth="yes"/>
      <point x="1300" y="1161"/>
      <point x="1193" y="1288"/>
      <point x="1064" y="1288" type="curve" smooth="yes"/>
      <point x="979" y="1288"/>
      <point x="874" y="1235"/>
      <point x="798" y="1146" type="curve"/>
      <point x="763" y="1226"/>
      <point x="676" y="1288"/>
      <point x="592" y="1288" type="curve" smooth="yes"/>
      <point x="499" y="1288"/>
      <point x="403" y="1240"/>
      <point x="329" y="1159" type="curve"/>
      <point x="329" y="1260" type="line"/>
      <point x="111" y="1260" type="line"/>
    </contour>
  </outline>
</glyph>
<glyph name="n" format="1">
  <advance width="924"/>
  <unicode hex="006E"/>
  <outline>
    <contour>
      <point x="493" y="1240" type="move" name="top"/>
    </contour>
    <contour>
      <point x="111" y="0" type="line"/>
      <point x="328" y="0" type="line"/>
      <point x="328" y="1004" type="line"/>
      <point x="373" y="1048"/>
      <point x="435" y="1094"/>
      <point x="489" y="1094" type="curve" smooth="yes"/>
      <point x="554" y="1094"/>
      <point x="591" y="1042"/>
      <point x="591" y="972" type="curve" smooth="yes"/>
      <point x="591" y="0" type="line"/>
      <point x="809" y="0" type="line"/>
      <point x="809" y="1005" type="line" smooth="yes"/>
      <point x="809" y="1162"/>
      <point x="703" y="1288"/>
      <point x="583" y="1288" type="curve" smooth="yes"/>
      <point x="489" y="1288"/>
      <point x="393" y="1241"/>
      <point x="328" y="1159" type="curve"/>
      <point x="328" y="1260" type="line"/>
      <point x="111" y="1260" type="line"/>
    </contour>
  </outline>
</glyph>
<glyph name="o" format="1">
  <advance width="894"/>
  <unicode hex="006F"/>
  <outline>
    <contour>
      <point x="451" y="1241" type="move" name="top"/>
    </contour>
    <contour>
      <point x="315" y="832" type="line"/>
      <point x="315" y="1006"/>
      <point x="330" y="1099"/>
      <point x="446" y="1099" type="curve" smooth="yes"/>
      <point x="562" y="1099"/>
      <point x="581" y="1008"/>
      <point x="581" y="832" type="curve" smooth="yes"/>
      <point x="581" y="434" type="line" smooth="yes"/>
      <point x="581" y="255"/>
      <point x="561" y="161"/>
      <point x="446" y="161" type="curve" smooth="yes"/>
      <point x="333" y="161"/>
      <point x="315" y="256"/>
      <point x="315" y="434" type="curve" smooth="yes"/>
    </contour>
    <contour>
      <point x="97" y="436" type="line"/>
      <point x="97" y="180"/>
      <point x="165" y="-28"/>
      <point x="446" y="-28" type="curve" smooth="yes"/>
      <point x="728" y="-28"/>
      <point x="797" y="180"/>
      <point x="797" y="436" type="curve" smooth="yes"/>
      <point x="797" y="782" type="line" smooth="yes"/>
      <point x="797" y="1055"/>
      <point x="753" y="1288"/>
      <point x="446" y="1288" type="curve" smooth="yes"/>
      <point x="140" y="1288"/>
      <point x="97" y="1054"/>
      <point x="97" y="782" type="curve" smooth="yes"/>
    </contour>
  </outline>
</glyph>
<glyph name="p" format="1">
  <advance width="918"/>
  <unicode hex="0070"/>
  <outline>
    <contour>
      <point x="111" y="-377" type="line"/>
      <point x="328" y="-377" type="line"/>
      <point x="328" y="104" type="line"/>
      <point x="388" y="20"/>
      <point x="473" y="-28"/>
      <point x="558" y="-28" type="curve" smooth="yes"/>
      <point x="690" y="-28"/>
      <point x="821" y="69"/>
      <point x="821" y="380" type="curve" smooth="yes"/>
      <point x="821" y="864" type="line" smooth="yes"/>
      <point x="821" y="1176"/>
      <point x="689" y="1288"/>
      <point x="561" y="1288" type="curve" smooth="yes"/>
      <point x="482" y="1288"/>
      <point x="392" y="1245"/>
      <point x="328" y="1161" type="curve"/>
      <point x="328" y="1260" type="line"/>
      <point x="111" y="1260" type="line"/>
    </contour>
    <contour>
      <point x="603" y="421" type="line"/>
      <point x="603" y="204"/>
      <point x="557" y="165"/>
      <point x="491" y="165" type="curve" smooth="yes"/>
      <point x="431" y="165"/>
      <point x="375" y="213"/>
      <point x="328" y="257" type="curve"/>
      <point x="328" y="1000" type="line"/>
      <point x="373" y="1044"/>
      <point x="435" y="1094"/>
      <point x="488" y="1094" type="curve" smooth="yes"/>
      <point x="555" y="1094"/>
      <point x="603" y="1062"/>
      <point x="603" y="849" type="curve" smooth="yes"/>
    </contour>
  </outline>
</glyph>
<glyph name="q" format="1">
  <advance width="924"/>
  <unicode hex="0071"/>
  <outline>
    <contour>
      <point x="583" y="-377" type="line"/>
      <point x="801" y="-377" type="line"/>
      <point x="801" y="1260" type="line"/>
      <point x="583" y="1260" type="line"/>
      <point x="583" y="1156" type="line"/>
      <point x="521" y="1247"/>
      <point x="432" y="1288"/>
      <point x="354" y="1288" type="curve" smooth="yes"/>
      <point x="228" y="1288"/>
      <point x="99" y="1188"/>
      <point x="99" y="884" type="curve" smooth="yes"/>
      <point x="99" y="383" type="line" smooth="yes"/>
      <point x="99" y="72"/>
      <point x="228" y="-28"/>
      <point x="361" y="-28" type="curve" smooth="yes"/>
      <point x="444" y="-28"/>
      <point x="525" y="21"/>
      <point x="583" y="99" type="curve"/>
    </contour>
    <contour>
      <point x="583" y="259" type="line"/>
      <point x="537" y="216"/>
      <point x="482" y="165"/>
      <point x="424" y="165" type="curve" smooth="yes"/>
      <point x="362" y="165"/>
      <point x="315" y="200"/>
      <point x="315" y="415" type="curve" smooth="yes"/>
      <point x="315" y="850" type="line" smooth="yes"/>
      <point x="315" y="1063"/>
      <point x="363" y="1094"/>
      <point x="427" y="1094" type="curve" smooth="yes"/>
      <point x="479" y="1094"/>
      <point x="540" y="1045"/>
      <point x="583" y="1002" type="curve"/>
    </contour>
  </outline>
</glyph>
<glyph name="r" format="1">
  <advance width="621"/>
  <unicode hex="0072"/>
  <outline>
    <contour>
      <point x="361" y="1237" type="move" name="top"/>
    </contour>
    <contour>
      <point x="111" y="0" type="line"/>
      <point x="327" y="0" type="line"/>
      <point x="327" y="884" type="line" smooth="yes"/>
      <point x="327" y="1004"/>
      <point x="418" y="1053"/>
      <point x="524" y="1053" type="curve" smooth="yes"/>
      <point x="546" y="1053"/>
      <point x="568" y="1048"/>
      <point x="581" y="1045" type="curve"/>
      <point x="588" y="1273" type="line"/>
      <point x="577" y="1276"/>
      <point x="565" y="1279"/>
      <point x="553" y="1279" type="curve" smooth="yes"/>
      <point x="468" y="1278"/>
      <point x="368" y="1224"/>
      <point x="327" y="1127" type="curve"/>
      <point x="327" y="1260" type="line"/>
      <point x="111" y="1260" type="line"/>
    </contour>
  </outline>
</glyph>
<glyph name="s" format="1">
  <advance width="801"/>
  <unicode hex="0073"/>
  <outline>
    <contour>
      <point x="394" y="1238" type="move" name="top"/>
    </contour>
    <contour>
      <point x="53" y="309" type="line"/>
      <point x="101" y="120"/>
      <point x="228" y="-28"/>
      <point x="424" y="-28" type="curve" smooth="yes"/>
      <point x="611" y="-28"/>
      <point x="756" y="103"/>
      <point x="756" y="304" type="curve"/>
      <point x="754" y="466"/>
      <point x="633" y="586"/>
      <point x="518" y="688" type="curve" smooth="yes"/>
      <point x="435" y="755" type="line" smooth="yes"/>
      <point x="349" y="828"/>
      <point x="273" y="906"/>
      <point x="273" y="981" type="curve" smooth="yes"/>
      <point x="273" y="1044"/>
      <point x="317" y="1098"/>
      <point x="393" y="1098" type="curve" smooth="yes"/>
      <point x="497" y="1098"/>
      <point x="550" y="966"/>
      <point x="570" y="883" type="curve"/>
      <point x="743" y="948" type="line"/>
      <point x="700" y="1120"/>
      <point x="588" y="1287"/>
      <point x="401" y="1287" type="curve" smooth="yes"/>
      <point x="210" y="1287"/>
      <point x="57" y="1178"/>
      <point x="57" y="964" type="curve" smooth="yes"/>
      <point x="57" y="818"/>
      <point x="157" y="711"/>
      <point x="267" y="613" type="curve" smooth="yes"/>
      <point x="343" y="553" type="line" smooth="yes"/>
      <point x="444" y="464"/>
      <point x="546" y="372"/>
      <point x="546" y="278" type="curve" smooth="yes"/>
      <point x="546" y="210"/>
      <point x="510" y="160"/>
      <point x="422" y="160" type="curve" smooth="yes"/>
      <point x="314" y="160"/>
      <point x="249" y="295"/>
      <point x="219" y="378" type="curve"/>
    </contour>
  </outline>
</glyph>
<glyph name="t" format="1">
  <advance width="616"/>
  <unicode hex="0074"/>
  <outline>
    <contour>
      <point x="158" y="378" type="line"/>
      <point x="158" y="182"/>
      <point x="179" y="-16"/>
      <point x="405" y="-16" type="curve" smooth="yes"/>
      <point x="453" y="-16"/>
      <point x="502" y="-15"/>
      <point x="558" y="2" type="curve"/>
      <point x="565" y="196" type="line"/>
      <point x="535" y="191"/>
      <point x="504" y="189"/>
      <point x="474" y="189" type="curve" smooth="yes"/>
      <point x="385" y="189"/>
      <point x="376" y="244"/>
      <point x="376" y="334" type="curve" smooth="yes"/>
      <point x="376" y="1094" type="line"/>
      <point x="557" y="1094" type="line"/>
      <point x="557" y="1260" type="line"/>
      <point x="376" y="1260" type="line"/>
      <point x="376" y="1687" type="line"/>
      <point x="158" y="1687" type="line"/>
      <point x="158" y="1260" type="line"/>
      <point x="19" y="1260" type="line"/>
      <point x="19" y="1094" type="line"/>
      <point x="158" y="1094" type="line"/>
    </contour>
  </outline>
</glyph>
<glyph name="u" format="1">
  <advance width="924"/>
  <unicode hex="0075"/>
  <outline>
    <contour>
      <point x="463" y="1236" type="move" name="top"/>
    </contour>
    <contour>
      <point x="697" y="0" type="move" name="bot"/>
    </contour>
    <contour>
      <point x="114" y="255" type="line"/>
      <point x="114" y="98"/>
      <point x="220" y="-28"/>
      <point x="341" y="-28" type="curve" smooth="yes"/>
      <point x="435" y="-28"/>
      <point x="531" y="27"/>
      <point x="596" y="113" type="curve"/>
      <point x="596" y="0" type="line"/>
      <point x="814" y="0" type="line"/>
      <point x="814" y="1260" type="line"/>
      <point x="596" y="1260" type="line"/>
      <point x="596" y="259" type="line"/>
      <point x="550" y="212"/>
      <point x="487" y="165"/>
      <point x="431" y="165" type="curve" smooth="yes"/>
      <point x="370" y="165"/>
      <point x="333" y="225"/>
      <point x="333" y="301" type="curve" smooth="yes"/>
      <point x="333" y="1260" type="line"/>
      <point x="114" y="1260" type="line"/>
    </contour>
  </outline>
</glyph>
<glyph name="v" format="1">
  <advance width="829"/>
  <unicode hex="0076"/>
  <outline>
    <contour>
      <point x="290" y="0" type="line"/>
      <point x="537" y="0" type="line"/>
      <point x="784" y="1260" type="line"/>
      <point x="579" y="1260" type="line"/>
      <point x="416" y="283" type="line"/>
      <point x="240" y="1260" type="line"/>
      <point x="33" y="1260" type="line"/>
    </contour>
  </outline>
</glyph>
<glyph name="w" format="1">
  <advance width="1229"/>
  <unicode hex="0077"/>
  <outline>
    <contour>
      <point x="242" y="0" type="line"/>
      <point x="454" y="0" type="line"/>
      <point x="614" y="880" type="line"/>
      <point x="776" y="0" type="line"/>
      <point x="979" y="0" type="line"/>
      <point x="1174" y="1260" type="line"/>
      <point x="998" y="1260" type="line"/>
      <point x="868" y="345" type="line"/>
      <point x="712" y="1260" type="line"/>
      <point x="518" y="1260" type="line"/>
      <point x="367" y="354" type="line"/>
      <point x="231" y="1260" type="line"/>
      <point x="46" y="1260" type="line"/>
    </contour>
  </outline>
</glyph>
<glyph name="x" format="1">
  <advance width="875"/>
  <unicode hex="0078"/>
  <outline>
    <contour>
      <point x="58" y="0" type="line"/>
      <point x="272" y="0" type="line"/>
      <point x="438" y="463" type="line"/>
      <point x="604" y="0" type="line"/>
      <point x="817" y="0" type="line"/>
      <point x="566" y="662" type="line"/>
      <point x="817" y="1260" type="line"/>
      <point x="598" y="1260" type="line"/>
      <point x="587" y="1181"/>
      <point x="449" y="891"/>
      <point x="438" y="812" type="curve"/>
      <point x="278" y="1260" type="line"/>
      <point x="59" y="1260" type="line"/>
      <point x="310" y="662" type="line"/>
    </contour>
  </outline>
</glyph>
<glyph name="y" format="1">
  <advance width="832"/>
  <unicode hex="0079"/>
  <outline>
    <contour>
      <point x="426" y="1236" type="move" name="top"/>
    </contour>
    <contour>
      <point x="95" y="-306" type="line"/>
      <point x="113" y="-306" type="line" smooth="yes"/>
      <point x="322" y="-303"/>
      <point x="467" y="-259"/>
      <point x="512" y="-55" type="curve"/>
      <point x="807" y="1260" type="line"/>
      <point x="592" y="1260" type="line"/>
      <point x="429" y="403" type="line"/>
      <point x="259" y="1259" type="line"/>
      <point x="45" y="1259" type="line"/>
      <point x="55" y="1180"/>
      <point x="279" y="328"/>
      <point x="297" y="170" type="curve"/>
      <point x="305" y="118"/>
      <point x="309" y="72"/>
      <point x="309" y="48" type="curve" smooth="yes"/>
      <point x="309" y="-62"/>
      <point x="248" y="-113"/>
      <point x="95" y="-120" type="curve"/>
    </contour>
  </outline>
</glyph>
<glyph name="z" format="1">
  <advance width="761"/>
  <unicode hex="007A"/>
  <outline>
    <contour>
      <point x="64" y="0" type="line"/>
      <point x="707" y="0" type="line"/>
      <point x="707" y="189" type="line"/>
      <point x="286" y="189" type="line"/>
      <point x="711" y="1071" type="line"/>
      <point x="711" y="1260" type="line"/>
      <point x="125" y="1260" type="line"/>
      <point x="125" y="1071" type="line"/>
      <point x="495" y="1071" type="line"/>
      <point x="64" y="192" type="line"/>
    </contour>
  </outline>
</glyph>
<glyph name="braceleft" format="1">
  <advance width="607"/>
  <unicode hex="007B"/>
  <outline>
    <contour>
      <point x="573" y="115" type="line"/>
      <point x="365" y="114"/>
      <point x="372" y="298"/>
      <point x="368" y="548" type="curve" smooth="yes"/>
      <point x="365" y="689"/>
      <point x="344" y="833"/>
      <point x="201" y="897" type="curve"/>
      <point x="346" y="970"/>
      <point x="369" y="1178"/>
      <point x="369" y="1326" type="curve" smooth="yes"/>
      <point x="369" y="1568"/>
      <point x="369" y="1678"/>
      <point x="573" y="1678" type="curve"/>
      <point x="573" y="1853" type="line"/>
      <point x="222" y="1853"/>
      <point x="178" y="1674"/>
      <point x="178" y="1301" type="curve" smooth="yes"/>
      <point x="178" y="1208"/>
      <point x="178" y="1018"/>
      <point x="48" y="1019" type="curve"/>
      <point x="48" y="774" type="line"/>
      <point x="178" y="775"/>
      <point x="178" y="673"/>
      <point x="178" y="565" type="curve" smooth="yes"/>
      <point x="178" y="201"/>
      <point x="208" y="-61"/>
      <point x="573" y="-61" type="curve"/>
    </contour>
  </outline>
</glyph>
<glyph name="bar" format="1">
  <advance width="421"/>
  <unicode hex="007C"/>
  <outline>
    <contour>
      <point x="144" y="-129" type="line"/>
      <point x="300" y="-129" type="line"/>
      <point x="300" y="1876" type="line"/>
      <point x="144" y="1876" type="line"/>
    </contour>
  </outline>
</glyph>
<glyph name="braceright" format="1">
  <advance width="614"/>
  <unicode hex="007D"/>
  <outline>
    <contour>
      <point x="41" y="-61" type="line"/>
      <point x="407" y="-61"/>
      <point x="436" y="201"/>
      <point x="436" y="565" type="curve" smooth="yes"/>
      <point x="436" y="673"/>
      <point x="437" y="775"/>
      <point x="566" y="774" type="curve"/>
      <point x="566" y="1019" type="line"/>
      <point x="436" y="1018"/>
      <point x="436" y="1208"/>
      <point x="436" y="1301" type="curve" smooth="yes"/>
      <point x="436" y="1675"/>
      <point x="392" y="1853"/>
      <point x="41" y="1853" type="curve"/>
      <point x="41" y="1678" type="line"/>
      <point x="245" y="1678"/>
      <point x="245" y="1568"/>
      <point x="245" y="1326" type="curve" smooth="yes"/>
      <point x="245" y="1180"/>
      <point x="268" y="968"/>
      <point x="413" y="897" type="curve"/>
      <point x="267" y="830"/>
      <point x="248" y="679"/>
      <point x="246" y="533" type="curve" smooth="yes"/>
      <point x="243" y="289"/>
      <point x="246" y="114"/>
      <point x="41" y="115" type="curve"/>
    </contour>
  </outline>
</glyph>
<glyph name="asciitilde" format="1">
  <advance width="892"/>
  <unicode hex="007E"/>
  <outline>
    <contour>
      <point x="252" y="892" type="line"/>
      <point x="256" y="928"/>
      <point x="269" y="959"/>
      <point x="304" y="959" type="curve" smooth="yes"/>
      <point x="376" y="959"/>
      <point x="481" y="875"/>
      <point x="588" y="875" type="curve" smooth="yes"/>
      <point x="759" y="875"/>
      <point x="782" y="1037"/>
      <point x="784" y="1132" type="curve"/>
      <point x="644" y="1132" type="line"/>
      <point x="640" y="1096"/>
      <point x="624" y="1064"/>
      <point x="589" y="1064" type="curve" smooth="yes"/>
      <point x="514" y="1064"/>
      <point x="402" y="1147"/>
      <point x="310" y="1147" type="curve" smooth="yes"/>
      <point x="148" y="1147"/>
      <point x="114" y="1002"/>
      <point x="113" y="892" type="curve"/>
    </contour>
  </outline>
</glyph>
<glyph name="exclamdown" format="1">
  <advance width="451"/>
  <unicode hex="00A1"/>
  <outline>
    <contour>
      <point x="152" y="0" type="line"/>
      <point x="326" y="0" type="line"/>
      <point x="326" y="1135" type="line"/>
      <point x="152" y="1135" type="line"/>
    </contour>
    <contour>
      <point x="91" y="1253" type="line"/>
      <point x="326" y="1253" type="line"/>
      <point x="326" y="1511" type="line"/>
      <point x="91" y="1511" type="line"/>
    </contour>
  </outline>
</glyph>
<glyph name="cent" format="1">
  <advance width="834"/>
  <unicode hex="00A2"/>
  <outline>
    <contour>
      <point x="398" y="-114" type="line"/>
      <point x="472" y="-114" type="line"/>
      <point x="472" y="120" type="line"/>
      <point x="680" y="139"/>
      <point x="766" y="296"/>
      <point x="773" y="509" type="curve" smooth="yes"/>
      <point x="773" y="510"/>
      <point x="773" y="585"/>
      <point x="773" y="587" type="curve"/>
      <point x="557" y="587" type="line"/>
      <point x="557" y="539"/>
      <point x="557" y="529"/>
      <point x="557" y="519" type="curve" smooth="yes"/>
      <point x="553" y="420"/>
      <point x="544" y="314"/>
      <point x="432" y="314" type="curve" smooth="yes"/>
      <point x="314" y="314"/>
      <point x="297" y="410"/>
      <point x="297" y="571" type="curve" smooth="yes"/>
      <point x="297" y="889" type="line"/>
      <point x="300" y="1048"/>
      <point x="308" y="1139"/>
      <point x="432" y="1139" type="curve" smooth="yes"/>
      <point x="550" y="1139"/>
      <point x="555" y="1021"/>
      <point x="557" y="923" type="curve" smooth="yes"/>
      <point x="557" y="875" type="line"/>
      <point x="773" y="875" type="line"/>
      <point x="773" y="877"/>
      <point x="772" y="911"/>
      <point x="772" y="913" type="curve" smooth="yes"/>
      <point x="764" y="1145"/>
      <point x="695" y="1318"/>
      <point x="471" y="1335" type="curve"/>
      <point x="471" y="1557" type="line"/>
      <point x="397" y="1557" type="line"/>
      <point x="397" y="1336" type="line"/>
      <point x="119" y="1318"/>
      <point x="80" y="1100"/>
      <point x="80" y="849" type="curve" smooth="yes"/>
      <point x="80" y="567" type="line" smooth="yes"/>
      <point x="80" y="331"/>
      <point x="139" y="138"/>
      <point x="398" y="120" type="curve"/>
    </contour>
  </outline>
</glyph>
<glyph name="sterling" format="1">
  <advance width="945"/>
  <unicode hex="00A3"/>
  <outline>
    <contour>
      <point x="65" y="0" type="line"/>
      <point x="872" y="0" type="line"/>
      <point x="872" y="212" type="line"/>
      <point x="420" y="212" type="line"/>
      <point x="420" y="743" type="line"/>
      <point x="693" y="743" type="line"/>
      <point x="693" y="941" type="line"/>
      <point x="420" y="941" type="line"/>
      <point x="420" y="1187" type="line" smooth="yes"/>
      <point x="420" y="1383"/>
      <point x="423" y="1576"/>
      <point x="552" y="1580" type="curve" smooth="yes"/>
      <point x="681" y="1583"/>
      <point x="681" y="1423"/>
      <point x="681" y="1321" type="curve"/>
      <point x="876" y="1321" type="line"/>
      <point x="876" y="1508"/>
      <point x="869" y="1796"/>
      <point x="556" y="1796" type="curve" smooth="yes"/>
      <point x="218" y="1796"/>
      <point x="191" y="1441"/>
      <point x="191" y="1205" type="curve" smooth="yes"/>
      <point x="191" y="939" type="line"/>
      <point x="65" y="939" type="line"/>
      <point x="65" y="743" type="line"/>
      <point x="191" y="743" type="line"/>
      <point x="191" y="190" type="line"/>
      <point x="65" y="135" type="line"/>
    </contour>
  </outline>
</glyph>
<glyph name="currency" format="1">
  <advance width="1037"/>
  <unicode hex="00A4"/>
  <outline>
    <contour>
      <point x="151" y="413" type="line"/>
      <point x="218" y="345" type="line"/>
      <point x="298" y="448" type="line"/>
      <point x="357" y="410"/>
      <point x="430" y="388"/>
      <point x="520" y="388" type="curve" smooth="yes"/>
      <point x="614" y="388"/>
      <point x="691" y="412"/>
      <point x="751" y="451" type="curve"/>
      <point x="836" y="345" type="line"/>
      <point x="903" y="413" type="line"/>
      <point x="816" y="521" type="line"/>
      <point x="886" y="594"/>
      <point x="921" y="689"/>
      <point x="921" y="786" type="curve" smooth="yes"/>
      <point x="921" y="880"/>
      <point x="887" y="975"/>
      <point x="819" y="1047" type="curve"/>
      <point x="903" y="1152" type="line"/>
      <point x="836" y="1220" type="line"/>
      <point x="754" y="1117" type="line"/>
      <point x="693" y="1158"/>
      <point x="616" y="1183"/>
      <point x="520" y="1183" type="curve" smooth="yes"/>
      <point x="429" y="1183"/>
      <point x="354" y="1160"/>
      <point x="295" y="1121" type="curve"/>
      <point x="218" y="1220" type="line"/>
      <point x="151" y="1152" type="line"/>
      <point x="228" y="1053" type="line"/>
      <point x="155" y="980"/>
      <point x="119" y="882"/>
      <point x="119" y="786" type="curve" smooth="yes"/>
      <point x="119" y="687"/>
      <point x="156" y="589"/>
      <point x="232" y="515" type="curve"/>
    </contour>
    <contour>
      <point x="520" y="524" type="curve"/>
      <point x="345" y="526"/>
      <point x="256" y="654"/>
      <point x="256" y="786" type="curve" smooth="yes"/>
      <point x="256" y="916"/>
      <point x="341" y="1044"/>
      <point x="520" y="1046" type="curve"/>
      <point x="698" y="1044"/>
      <point x="784" y="915"/>
      <point x="784" y="785" type="curve" smooth="yes"/>
      <point x="784" y="656"/>
      <point x="698" y="526"/>
    </contour>
  </outline>
</glyph>
<glyph name="yen" format="1">
  <advance width="976"/>
  <unicode hex="00A5"/>
  <outline>
    <contour>
      <point x="390" y="0" type="line"/>
      <point x="591" y="0" type="line"/>
      <point x="591" y="245" type="line"/>
      <point x="792" y="245" type="line"/>
      <point x="792" y="398" type="line"/>
      <point x="591" y="398" type="line"/>
      <point x="591" y="544" type="line"/>
      <point x="792" y="544" type="line"/>
      <point x="792" y="695" type="line"/>
      <point x="622" y="695" type="line"/>
      <point x="947" y="1791" type="line"/>
      <point x="739" y="1791" type="line"/>
      <point x="660" y="1602"/>
      <point x="567" y="1024"/>
      <point x="489" y="835" type="curve"/>
      <point x="239" y="1791" type="line"/>
      <point x="25" y="1791" type="line"/>
      <point x="60" y="1582"/>
      <point x="321" y="903"/>
      <point x="356" y="695" type="curve"/>
      <point x="184" y="695" type="line"/>
      <point x="184" y="544" type="line"/>
      <point x="390" y="544" type="line"/>
      <point x="390" y="398" type="line"/>
      <point x="184" y="398" type="line"/>
      <point x="184" y="245" type="line"/>
      <point x="390" y="245" type="line"/>
    </contour>
  </outline>
</glyph>
<glyph name="brokenbar" format="1">
  <advance width="417"/>
  <unicode hex="00A6"/>
  <outline>
    <contour>
      <point x="123" y="-15" type="line"/>
      <point x="292" y="-15" type="line"/>
      <point x="292" y="602" type="line"/>
      <point x="123" y="602" type="line"/>
    </contour>
    <contour>
      <point x="123" y="895" type="line"/>
      <point x="292" y="895" type="line"/>
      <point x="292" y="1512" type="line"/>
      <point x="123" y="1512" type="line"/>
    </contour>
  </outline>
</glyph>
<glyph name="section" format="1">
  <advance width="904"/>
  <unicode hex="00A7"/>
  <outline>
    <contour>
      <point x="86" y="328" type="line"/>
      <point x="133" y="136"/>
      <point x="251" y="-22"/>
      <point x="453" y="-22" type="curve" smooth="yes"/>
      <point x="647" y="-22"/>
      <point x="793" y="91"/>
      <point x="793" y="306" type="curve"/>
      <point x="792" y="413"/>
      <point x="740" y="502"/>
      <point x="673" y="572" type="curve"/>
      <point x="765" y="628"/>
      <point x="816" y="726"/>
      <point x="816" y="845" type="curve"/>
      <point x="814" y="1025"/>
      <point x="676" y="1151"/>
      <point x="543" y="1251" type="curve" smooth="yes"/>
      <point x="527" y="1267"/>
      <point x="450" y="1314"/>
      <point x="436" y="1327" type="curve" smooth="yes"/>
      <point x="371" y="1370"/>
      <point x="311" y="1421"/>
      <point x="311" y="1481" type="curve" smooth="yes"/>
      <point x="311" y="1563"/>
      <point x="361" y="1617"/>
      <point x="445" y="1617" type="curve" smooth="yes"/>
      <point x="552" y="1617"/>
      <point x="607" y="1490"/>
      <point x="628" y="1403" type="curve"/>
      <point x="792" y="1463" type="line"/>
      <point x="751" y="1646"/>
      <point x="645" y="1802"/>
      <point x="450" y="1802" type="curve" smooth="yes"/>
      <point x="254" y="1802"/>
      <point x="112" y="1692"/>
      <point x="112" y="1476" type="curve" smooth="yes"/>
      <point x="112" y="1371"/>
      <point x="180" y="1296"/>
      <point x="259" y="1233" type="curve"/>
      <point x="151" y="1182"/>
      <point x="89" y="1078"/>
      <point x="89" y="946" type="curve" smooth="yes"/>
      <point x="89" y="773"/>
      <point x="216" y="685"/>
      <point x="337" y="599" type="curve" smooth="yes"/>
      <point x="353" y="585"/>
      <point x="424" y="538"/>
      <point x="437" y="522" type="curve" smooth="yes"/>
      <point x="519" y="460"/>
      <point x="599" y="385"/>
      <point x="599" y="305" type="curve" smooth="yes"/>
      <point x="599" y="219"/>
      <point x="553" y="163"/>
      <point x="457" y="163" type="curve" smooth="yes"/>
      <point x="344" y="163"/>
      <point x="271" y="297"/>
      <point x="240" y="386" type="curve"/>
    </contour>
    <contour>
      <point x="430" y="780" type="curve"/>
      <point x="358" y="828"/>
      <point x="287" y="878"/>
      <point x="287" y="951" type="curve" smooth="yes"/>
      <point x="287" y="1018"/>
      <point x="329" y="1075"/>
      <point x="393" y="1096" type="curve"/>
      <point x="453" y="1051" type="line" smooth="yes"/>
      <point x="534" y="990"/>
      <point x="622" y="908"/>
      <point x="622" y="844" type="curve" smooth="yes"/>
      <point x="622" y="780"/>
      <point x="592" y="734"/>
      <point x="539" y="710" type="curve"/>
      <point x="534" y="715"/>
      <point x="436" y="774"/>
    </contour>
  </outline>
</glyph>
<glyph name="dieresis" format="1">
  <advance width="843"/>
  <unicode hex="00A8"/>
  <outline>
    <contour>
      <point x="434" y="1237" type="move" name="_top"/>
    </contour>
    <contour>
      <point x="114" y="1447" type="line"/>
      <point x="341" y="1447" type="line"/>
      <point x="341" y="1700" type="line"/>
      <point x="114" y="1700" type="line"/>
    </contour>
    <contour>
      <point x="523" y="1447" type="line"/>
      <point x="750" y="1447" type="line"/>
      <point x="750" y="1700" type="line"/>
      <point x="523" y="1700" type="line"/>
    </contour>
  </outline>
</glyph>
<glyph name="copyright" format="1">
  <advance width="1465"/>
  <unicode hex="00A9"/>
  <outline>
    <contour>
      <point x="854" y="568" type="line"/>
      <point x="852" y="483"/>
      <point x="841" y="354"/>
      <point x="738" y="354" type="curve" smooth="yes"/>
      <point x="625" y="354"/>
      <point x="603" y="418"/>
      <point x="603" y="703" type="curve" smooth="yes"/>
      <point x="603" y="963"/>
      <point x="624" y="1045"/>
      <point x="741" y="1045" type="curve" smooth="yes"/>
      <point x="839" y="1045"/>
      <point x="851" y="920"/>
      <point x="853" y="842" type="curve"/>
      <point x="986" y="842" type="line"/>
      <point x="986" y="956"/>
      <point x="967" y="1176"/>
      <point x="741" y="1176" type="curve" smooth="yes"/>
      <point x="476" y="1176"/>
      <point x="473" y="926"/>
      <point x="473" y="695" type="curve" smooth="yes"/>
      <point x="473" y="472"/>
      <point x="477" y="220"/>
      <point x="738" y="220" type="curve" smooth="yes"/>
      <point x="954" y="220"/>
      <point x="985" y="439"/>
      <point x="985" y="568" type="curve"/>
    </contour>
    <contour>
      <point x="733" y="-9" type="curve" smooth="yes"/>
      <point x="1146" y="-9"/>
      <point x="1394" y="326"/>
      <point x="1394" y="695" type="curve" smooth="yes"/>
      <point x="1394" y="1064"/>
      <point x="1146" y="1399"/>
      <point x="733" y="1399" type="curve" smooth="yes"/>
      <point x="320" y="1399"/>
      <point x="72" y="1064"/>
      <point x="72" y="695" type="curve" smooth="yes"/>
      <point x="72" y="325"/>
      <point x="320" y="-9"/>
    </contour>
    <contour>
      <point x="733" y="122" type="curve" smooth="yes"/>
      <point x="395" y="122"/>
      <point x="202" y="401"/>
      <point x="202" y="693" type="curve" smooth="yes"/>
      <point x="202" y="985"/>
      <point x="395" y="1263"/>
      <point x="733" y="1263" type="curve" smooth="yes"/>
      <point x="1071" y="1263"/>
      <point x="1264" y="984"/>
      <point x="1264" y="693" type="curve" smooth="yes"/>
      <point x="1264" y="401"/>
      <point x="1071" y="122"/>
    </contour>
  </outline>
</glyph>
<glyph name="guillemotleft" format="1">
  <advance width="939"/>
  <unicode hex="00AB"/>
  <outline>
    <contour>
      <point x="488" y="89" type="line"/>
      <point x="488" y="359" type="line"/>
      <point x="219" y="641" type="line"/>
      <point x="488" y="921" type="line"/>
      <point x="488" y="1191" type="line"/>
      <point x="78" y="704" type="line"/>
      <point x="78" y="576" type="line"/>
    </contour>
    <contour>
      <point x="849" y="89" type="line"/>
      <point x="849" y="359" type="line"/>
      <point x="580" y="641" type="line"/>
      <point x="849" y="921" type="line"/>
      <point x="849" y="1191" type="line"/>
      <point x="439" y="704" type="line"/>
      <point x="439" y="576" type="line"/>
    </contour>
  </outline>
</glyph>
<glyph name="logicalnot" format="1">
  <advance width="719"/>
  <unicode hex="00AC"/>
  <outline>
    <contour>
      <point x="113" y="451" type="line"/>
      <point x="499" y="451" type="line"/>
      <point x="499" y="258" type="line"/>
      <point x="592" y="258" type="line"/>
      <point x="592" y="628" type="line"/>
      <point x="113" y="628" type="line"/>
    </contour>
  </outline>
</glyph>
<glyph name="uni00AD" format="1">
  <advance width="711"/>
  <unicode hex="00AD"/>
  <outline>
    <contour>
      <point x="126" y="439" type="line"/>
      <point x="603" y="439" type="line"/>
      <point x="603" y="635" type="line"/>
      <point x="126" y="635" type="line"/>
    </contour>
  </outline>
</glyph>
<glyph name="registered" format="1">
  <advance width="1465"/>
  <unicode hex="00AE"/>
  <outline>
    <contour>
      <point x="515" y="247" type="line"/>
      <point x="628" y="247" type="line"/>
      <point x="628" y="643" type="line"/>
      <point x="740" y="643" type="line"/>
      <point x="871" y="248" type="line"/>
      <point x="999" y="248" type="line"/>
      <point x="890" y="488"/>
      <point x="853" y="590"/>
      <point x="844" y="671" type="curve"/>
      <point x="917" y="707"/>
      <point x="984" y="785"/>
      <point x="984" y="886" type="curve" smooth="yes"/>
      <point x="984" y="1046"/>
      <point x="924" y="1156"/>
      <point x="730" y="1156" type="curve" smooth="yes"/>
      <point x="515" y="1156" type="line"/>
    </contour>
    <contour>
      <point x="628" y="736" type="line"/>
      <point x="628" y="1049" type="line"/>
      <point x="716" y="1049" type="line" smooth="yes"/>
      <point x="822" y="1049"/>
      <point x="864" y="988"/>
      <point x="864" y="888" type="curve" smooth="yes"/>
      <point x="864" y="754"/>
      <point x="791" y="736"/>
      <point x="678" y="736" type="curve" smooth="yes"/>
    </contour>
    <contour>
      <point x="733" y="-9" type="curve" smooth="yes"/>
      <point x="1146" y="-9"/>
      <point x="1394" y="326"/>
      <point x="1394" y="695" type="curve" smooth="yes"/>
      <point x="1394" y="1064"/>
      <point x="1146" y="1399"/>
      <point x="733" y="1399" type="curve" smooth="yes"/>
      <point x="320" y="1399"/>
      <point x="72" y="1064"/>
      <point x="72" y="695" type="curve" smooth="yes"/>
      <point x="72" y="325"/>
      <point x="320" y="-9"/>
    </contour>
    <contour>
      <point x="733" y="122" type="curve" smooth="yes"/>
      <point x="395" y="122"/>
      <point x="202" y="401"/>
      <point x="202" y="693" type="curve" smooth="yes"/>
      <point x="202" y="985"/>
      <point x="395" y="1263"/>
      <point x="733" y="1263" type="curve" smooth="yes"/>
      <point x="1071" y="1263"/>
      <point x="1264" y="984"/>
      <point x="1264" y="693" type="curve" smooth="yes"/>
      <point x="1264" y="401"/>
      <point x="1071" y="122"/>
    </contour>
  </outline>
</glyph>
<glyph name="macron" format="1">
  <advance width="604"/>
  <unicode hex="00AF"/>
  <outline>
    <contour>
      <point x="71" y="1426" type="line"/>
      <point x="536" y="1426" type="line"/>
      <point x="536" y="1585" type="line"/>
      <point x="71" y="1585" type="line"/>
    </contour>
  </outline>
</glyph>
<glyph name="degree" format="1">
  <advance width="802"/>
  <unicode hex="00B0"/>
  <outline>
    <contour>
      <point x="242" y="1478" type="curve"/>
      <point x="242" y="1569"/>
      <point x="287" y="1656"/>
      <point x="397" y="1656" type="curve" smooth="yes"/>
      <point x="509" y="1656"/>
      <point x="552" y="1569"/>
      <point x="552" y="1478" type="curve" smooth="yes"/>
      <point x="552" y="1387"/>
      <point x="508" y="1298"/>
      <point x="397" y="1298" type="curve"/>
      <point x="287" y="1298"/>
      <point x="242" y="1387"/>
    </contour>
    <contour>
      <point x="397" y="1802" type="curve"/>
      <point x="211" y="1802"/>
      <point x="112" y="1665"/>
      <point x="112" y="1478" type="curve" smooth="yes"/>
      <point x="112" y="1292"/>
      <point x="211" y="1153"/>
      <point x="397" y="1153" type="curve"/>
      <point x="585" y="1153"/>
      <point x="683" y="1292"/>
      <point x="683" y="1478" type="curve" smooth="yes"/>
      <point x="683" y="1665"/>
      <point x="584" y="1802"/>
    </contour>
  </outline>
</glyph>
<glyph name="plusminus" format="1">
  <advance width="772"/>
  <unicode hex="00B1"/>
  <outline>
    <contour>
      <point x="117" y="0" type="line"/>
      <point x="659" y="0" type="line"/>
      <point x="659" y="177" type="line"/>
      <point x="117" y="177" type="line"/>
    </contour>
    <contour>
      <point x="310" y="387" type="line"/>
      <point x="467" y="387" type="line"/>
      <point x="467" y="580" type="line"/>
      <point x="659" y="580" type="line"/>
      <point x="659" y="757" type="line"/>
      <point x="467" y="757" type="line"/>
      <point x="467" y="950" type="line"/>
      <point x="310" y="950" type="line"/>
      <point x="310" y="757" type="line"/>
      <point x="117" y="757" type="line"/>
      <point x="117" y="580" type="line"/>
      <point x="310" y="580" type="line"/>
    </contour>
  </outline>
</glyph>
<glyph name="twosuperior" format="1">
  <advance width="739"/>
  <unicode hex="00B2"/>
  <outline>
    <contour>
      <point x="89" y="584" type="line"/>
      <point x="638" y="584" type="line"/>
      <point x="638" y="723" type="line"/>
      <point x="283" y="723" type="line"/>
      <point x="297" y="752"/>
      <point x="489" y="968"/>
      <point x="510" y="1013" type="curve"/>
      <point x="573" y="1108"/>
      <point x="647" y="1231"/>
      <point x="647" y="1321" type="curve" smooth="yes"/>
      <point x="647" y="1500"/>
      <point x="557" y="1614"/>
      <point x="378" y="1614" type="curve" smooth="yes"/>
      <point x="181" y="1614"/>
      <point x="90" y="1487"/>
      <point x="90" y="1290" type="curve"/>
      <point x="262" y="1290" type="line"/>
      <point x="262" y="1370"/>
      <point x="271" y="1477"/>
      <point x="379" y="1477" type="curve" smooth="yes"/>
      <point x="456" y="1477"/>
      <point x="476" y="1394"/>
      <point x="476" y="1321" type="curve" smooth="yes"/>
      <point x="476" y="1257"/>
      <point x="417" y="1164"/>
      <point x="369" y="1087" type="curve"/>
      <point x="339" y="1014"/>
      <point x="102" y="739"/>
      <point x="89" y="712" type="curve"/>
    </contour>
  </outline>
</glyph>
<glyph name="threesuperior" format="1">
  <advance width="791"/>
  <unicode hex="00B3"/>
  <outline>
    <contour>
      <point x="116" y="943" type="line"/>
      <point x="116" y="748"/>
      <point x="203" y="622"/>
      <point x="392" y="622" type="curve" smooth="yes"/>
      <point x="574" y="622"/>
      <point x="665" y="739"/>
      <point x="665" y="918" type="curve" smooth="yes"/>
      <point x="665" y="1011"/>
      <point x="605" y="1103"/>
      <point x="516" y="1146" type="curve"/>
      <point x="606" y="1184"/>
      <point x="665" y="1267"/>
      <point x="665" y="1364" type="curve" smooth="yes"/>
      <point x="665" y="1532"/>
      <point x="575" y="1651"/>
      <point x="398" y="1651" type="curve" smooth="yes"/>
      <point x="205" y="1651"/>
      <point x="116" y="1525"/>
      <point x="116" y="1329" type="curve"/>
      <point x="279" y="1329" type="line"/>
      <point x="279" y="1408"/>
      <point x="290" y="1516"/>
      <point x="399" y="1516" type="curve" smooth="yes"/>
      <point x="481" y="1516"/>
      <point x="502" y="1434"/>
      <point x="502" y="1359" type="curve" smooth="yes"/>
      <point x="502" y="1273"/>
      <point x="457" y="1223"/>
      <point x="352" y="1210" type="curve"/>
      <point x="352" y="1083" type="line"/>
      <point x="449" y="1075"/>
      <point x="502" y="1005"/>
      <point x="502" y="918" type="curve" smooth="yes"/>
      <point x="502" y="836"/>
      <point x="479" y="758"/>
      <point x="392" y="758" type="curve" smooth="yes"/>
      <point x="289" y="758"/>
      <point x="279" y="863"/>
      <point x="279" y="943" type="curve"/>
    </contour>
  </outline>
</glyph>
<glyph name="acute" format="1">
  <advance width="514"/>
  <unicode hex="00B4"/>
  <outline>
    <contour>
      <point x="179" y="1236" type="move" name="_top"/>
    </contour>
    <contour>
      <point x="102" y="1364" type="line"/>
      <point x="211" y="1364" type="line"/>
      <point x="458" y="1787" type="line"/>
      <point x="230" y="1787" type="line"/>
    </contour>
  </outline>
</glyph>
<glyph name="mu" format="1">
  <advance width="967"/>
  <unicode hex="00B5"/>
  <outline>
    <contour>
      <point x="141" y="-202" type="line"/>
      <point x="346" y="-202" type="line"/>
      <point x="351" y="6" type="line"/>
      <point x="395" y="6"/>
      <point x="440" y="25"/>
      <point x="479" y="54" type="curve" smooth="yes"/>
      <point x="530" y="54"/>
      <point x="585" y="6"/>
      <point x="622" y="48" type="curve"/>
      <point x="743" y="0" type="line"/>
      <point x="839" y="751" type="line"/>
      <point x="718" y="1260" type="line"/>
      <point x="623" y="681" type="line"/>
      <point x="615" y="666"/>
      <point x="600" y="213"/>
      <point x="584" y="213" type="curve"/>
      <point x="531" y="181"/>
      <point x="480" y="188"/>
      <point x="440" y="209" type="curve" smooth="yes"/>
      <point x="396" y="216"/>
      <point x="359" y="241"/>
      <point x="359" y="301" type="curve" smooth="yes"/>
      <point x="359" y="1260" type="line"/>
      <point x="141" y="1260" type="line"/>
    </contour>
  </outline>
</glyph>
<glyph name="paragraph" format="1">
  <advance width="987"/>
  <unicode hex="00B6"/>
  <outline>
    <contour>
      <point x="391" y="0" type="line"/>
      <point x="553" y="0" type="line"/>
      <point x="553" y="882" type="line"/>
      <point x="728" y="882" type="line"/>
      <point x="728" y="0" type="line"/>
      <point x="871" y="0" type="line"/>
      <point x="871" y="1530" type="line"/>
      <point x="414" y="1530" type="line" smooth="yes"/>
      <point x="168" y="1530"/>
      <point x="23" y="1431"/>
      <point x="23" y="1204" type="curve" smooth="yes"/>
      <point x="23" y="999"/>
      <point x="173" y="885"/>
      <point x="391" y="882" type="curve"/>
    </contour>
  </outline>
</glyph>
<glyph name="periodcentered" format="1">
  <advance width="473"/>
  <unicode hex="00B7"/>
  <outline>
    <contour>
      <point x="119" y="690" type="line"/>
      <point x="354" y="690" type="line"/>
      <point x="354" y="947" type="line"/>
      <point x="119" y="947" type="line"/>
    </contour>
  </outline>
</glyph>
<glyph name="cedilla" format="1">
  <advance width="498"/>
  <unicode hex="00B8"/>
  <outline>
    <contour>
      <point x="220" y="0" type="move" name="_bot"/>
    </contour>
    <contour>
      <point x="119" y="-490" type="line"/>
      <point x="270" y="-490"/>
      <point x="440" y="-469"/>
      <point x="440" y="-326" type="curve" smooth="yes"/>
      <point x="440" y="-240"/>
      <point x="364" y="-171"/>
      <point x="269" y="-123" type="curve"/>
      <point x="269" y="0" type="line"/>
      <point x="167" y="0" type="line"/>
      <point x="167" y="-196" type="line"/>
      <point x="220" y="-222"/>
      <point x="292" y="-267"/>
      <point x="292" y="-320" type="curve" smooth="yes"/>
      <point x="292" y="-367"/>
      <point x="198" y="-372"/>
      <point x="119" y="-372" type="curve"/>
    </contour>
  </outline>
</glyph>
<glyph name="onesuperior" format="1">
  <advance width="536"/>
  <unicode hex="00B9"/>
  <outline>
    <contour>
      <point x="227" y="623" type="line"/>
      <point x="394" y="623" type="line"/>
      <point x="394" y="1642" type="line"/>
      <point x="308" y="1642" type="line"/>
      <point x="242" y="1548"/>
      <point x="133" y="1485"/>
      <point x="57" y="1447" type="curve"/>
      <point x="57" y="1306" type="line"/>
      <point x="86" y="1310"/>
      <point x="189" y="1327"/>
      <point x="227" y="1344" type="curve"/>
    </contour>
  </outline>
</glyph>
<glyph name="ordmasculine" format="1">
  <advance width="805"/>
  <unicode hex="00BA"/>
  <outline>
    <contour>
      <point x="236" y="953" type="line"/>
      <point x="236" y="1124"/>
      <point x="242" y="1263"/>
      <point x="362" y="1263" type="curve" smooth="yes"/>
      <point x="482" y="1263"/>
      <point x="488" y="1125"/>
      <point x="488" y="953" type="curve" smooth="yes"/>
      <point x="488" y="795" type="line" smooth="yes"/>
      <point x="488" y="621"/>
      <point x="480" y="485"/>
      <point x="362" y="485" type="curve" smooth="yes"/>
      <point x="246" y="485"/>
      <point x="236" y="623"/>
      <point x="236" y="795" type="curve" smooth="yes"/>
    </contour>
    <contour>
      <point x="73" y="772" type="line"/>
      <point x="73" y="523"/>
      <point x="102" y="319"/>
      <point x="364" y="319" type="curve" smooth="yes"/>
      <point x="620" y="319"/>
      <point x="655" y="531"/>
      <point x="655" y="772" type="curve" smooth="yes"/>
      <point x="655" y="978" type="line" smooth="yes"/>
      <point x="655" y="1209"/>
      <point x="620" y="1430"/>
      <point x="364" y="1430" type="curve" smooth="yes"/>
      <point x="102" y="1430"/>
      <point x="73" y="1218"/>
      <point x="73" y="978" type="curve" smooth="yes"/>
    </contour>
  </outline>
</glyph>
<glyph name="guillemotright" format="1">
  <advance width="938"/>
  <unicode hex="00BB"/>
  <outline>
    <contour>
      <point x="99" y="89" type="line"/>
      <point x="509" y="576" type="line"/>
      <point x="509" y="704" type="line"/>
      <point x="99" y="1191" type="line"/>
      <point x="99" y="921" type="line"/>
      <point x="368" y="641" type="line"/>
      <point x="99" y="359" type="line"/>
    </contour>
    <contour>
      <point x="460" y="89" type="line"/>
      <point x="870" y="576" type="line"/>
      <point x="870" y="704" type="line"/>
      <point x="460" y="1191" type="line"/>
      <point x="460" y="921" type="line"/>
      <point x="729" y="641" type="line"/>
      <point x="460" y="359" type="line"/>
    </contour>
  </outline>
</glyph>
<glyph name="onequarter" format="1">
  <advance width="1570"/>
  <unicode hex="00BC"/>
  <outline>
    <contour>
      <point x="902" y="258" type="line"/>
      <point x="1259" y="258" type="line"/>
      <point x="1259" y="-9" type="line"/>
      <point x="1426" y="-9" type="line"/>
      <point x="1426" y="258" type="line"/>
      <point x="1558" y="258" type="line"/>
      <point x="1558" y="392" type="line"/>
      <point x="1426" y="392" type="line"/>
      <point x="1426" y="1047" type="line"/>
      <point x="1221" y="1047" type="line"/>
      <point x="902" y="383" type="line"/>
    </contour>
    <contour>
      <point x="1078" y="392" type="line"/>
      <point x="1258" y="769" type="line"/>
      <point x="1259" y="392" type="line"/>
    </contour>
    <contour>
      <point x="375" y="0" type="line"/>
      <point x="532" y="0" type="line"/>
      <point x="1094" y="1787" type="line"/>
      <point x="936" y="1787" type="line"/>
    </contour>
    <contour>
      <point x="194" y="623" type="line"/>
      <point x="362" y="623" type="line"/>
      <point x="362" y="1642" type="line"/>
      <point x="275" y="1642" type="line"/>
      <point x="210" y="1548"/>
      <point x="100" y="1485"/>
      <point x="25" y="1447" type="curve"/>
      <point x="25" y="1306" type="line"/>
      <point x="54" y="1310"/>
      <point x="156" y="1327"/>
      <point x="194" y="1344" type="curve"/>
    </contour>
  </outline>
</glyph>
<glyph name="onehalf" format="1">
  <advance width="1708"/>
  <unicode hex="00BD"/>
  <outline>
    <contour>
      <point x="194" y="623" type="line"/>
      <point x="362" y="623" type="line"/>
      <point x="362" y="1642" type="line"/>
      <point x="275" y="1642" type="line"/>
      <point x="210" y="1548"/>
      <point x="100" y="1485"/>
      <point x="25" y="1447" type="curve"/>
      <point x="25" y="1306" type="line"/>
      <point x="54" y="1310"/>
      <point x="156" y="1327"/>
      <point x="194" y="1344" type="curve"/>
    </contour>
    <contour>
      <point x="452" y="0" type="line"/>
      <point x="609" y="0" type="line"/>
      <point x="1171" y="1787" type="line"/>
      <point x="1013" y="1787" type="line"/>
    </contour>
    <contour>
      <point x="1105" y="-9" type="line"/>
      <point x="1654" y="-9" type="line"/>
      <point x="1654" y="130" type="line"/>
      <point x="1299" y="130" type="line"/>
      <point x="1313" y="159"/>
      <point x="1505" y="375"/>
      <point x="1526" y="420" type="curve"/>
      <point x="1589" y="515"/>
      <point x="1663" y="637"/>
      <point x="1663" y="728" type="curve" smooth="yes"/>
      <point x="1663" y="907"/>
      <point x="1572" y="1020"/>
      <point x="1394" y="1020" type="curve" smooth="yes"/>
      <point x="1197" y="1020"/>
      <point x="1106" y="894"/>
      <point x="1106" y="697" type="curve"/>
      <point x="1278" y="697" type="line"/>
      <point x="1278" y="777"/>
      <point x="1287" y="884"/>
      <point x="1394" y="884" type="curve" smooth="yes"/>
      <point x="1472" y="884"/>
      <point x="1492" y="800"/>
      <point x="1492" y="727" type="curve" smooth="yes"/>
      <point x="1492" y="664"/>
      <point x="1433" y="570"/>
      <point x="1385" y="494" type="curve"/>
      <point x="1355" y="421"/>
      <point x="1118" y="146"/>
      <point x="1105" y="119" type="curve"/>
    </contour>
  </outline>
</glyph>
<glyph name="threequarters" format="1">
  <advance width="1892"/>
  <unicode hex="00BE"/>
  <outline>
    <contour>
      <point x="87" y="943" type="line"/>
      <point x="87" y="748"/>
      <point x="174" y="622"/>
      <point x="363" y="622" type="curve" smooth="yes"/>
      <point x="545" y="622"/>
      <point x="636" y="739"/>
      <point x="636" y="918" type="curve" smooth="yes"/>
      <point x="636" y="1011"/>
      <point x="576" y="1103"/>
      <point x="488" y="1146" type="curve"/>
      <point x="577" y="1184"/>
      <point x="636" y="1267"/>
      <point x="636" y="1364" type="curve" smooth="yes"/>
      <point x="636" y="1532"/>
      <point x="546" y="1651"/>
      <point x="369" y="1651" type="curve" smooth="yes"/>
      <point x="176" y="1651"/>
      <point x="87" y="1525"/>
      <point x="87" y="1329" type="curve"/>
      <point x="250" y="1329" type="line"/>
      <point x="250" y="1408"/>
      <point x="261" y="1516"/>
      <point x="370" y="1516" type="curve" smooth="yes"/>
      <point x="452" y="1516"/>
      <point x="473" y="1434"/>
      <point x="473" y="1359" type="curve" smooth="yes"/>
      <point x="473" y="1273"/>
      <point x="428" y="1223"/>
      <point x="323" y="1210" type="curve"/>
      <point x="323" y="1083" type="line"/>
      <point x="420" y="1075"/>
      <point x="473" y="1005"/>
      <point x="473" y="918" type="curve" smooth="yes"/>
      <point x="473" y="836"/>
      <point x="450" y="758"/>
      <point x="364" y="758" type="curve" smooth="yes"/>
      <point x="261" y="758"/>
      <point x="250" y="863"/>
      <point x="250" y="943" type="curve"/>
    </contour>
    <contour>
      <point x="624" y="0" type="line"/>
      <point x="781" y="0" type="line"/>
      <point x="1343" y="1787" type="line"/>
      <point x="1185" y="1787" type="line"/>
    </contour>
    <contour>
      <point x="1199" y="258" type="line"/>
      <point x="1556" y="258" type="line"/>
      <point x="1556" y="-9" type="line"/>
      <point x="1723" y="-9" type="line"/>
      <point x="1723" y="258" type="line"/>
      <point x="1856" y="258" type="line"/>
      <point x="1856" y="392" type="line"/>
      <point x="1723" y="392" type="line"/>
      <point x="1723" y="1047" type="line"/>
      <point x="1518" y="1047" type="line"/>
      <point x="1199" y="383" type="line"/>
    </contour>
    <contour>
      <point x="1375" y="392" type="line"/>
      <point x="1555" y="769" type="line"/>
      <point x="1556" y="392" type="line"/>
    </contour>
  </outline>
</glyph>
<glyph name="AE" format="1">
  <advance width="1463"/>
  <unicode hex="00C6"/>
  <outline>
    <contour>
      <point x="24" y="0" type="line"/>
      <point x="259" y="0" type="line"/>
      <point x="416" y="412" type="line"/>
      <point x="768" y="412" type="line"/>
      <point x="768" y="0" type="line"/>
      <point x="1413" y="0" type="line"/>
      <point x="1413" y="196" type="line"/>
      <point x="987" y="196" type="line"/>
      <point x="987" y="816" type="line"/>
      <point x="1290" y="816" type="line"/>
      <point x="1290" y="1012" type="line"/>
      <point x="987" y="1012" type="line"/>
      <point x="987" y="1571" type="line"/>
      <point x="1413" y="1571" type="line"/>
      <point x="1413" y="1766" type="line"/>
      <point x="709" y="1766" type="line"/>
    </contour>
    <contour>
      <point x="465" y="584" type="line"/>
      <point x="768" y="1344" type="line"/>
      <point x="768" y="584" type="line"/>
    </contour>
  </outline>
</glyph>
<glyph name="Eth" format="1">
  <advance width="1138"/>
  <unicode hex="00D0"/>
  <outline>
    <contour>
      <point x="152" y="0" type="line"/>
      <point x="534" y="0" type="line" smooth="yes"/>
      <point x="939" y="0"/>
      <point x="1031" y="217"/>
      <point x="1031" y="576" type="curve" smooth="yes"/>
      <point x="1031" y="1213" type="line" smooth="yes"/>
      <point x="1031" y="1569"/>
      <point x="922" y="1766"/>
      <point x="535" y="1766" type="curve" smooth="yes"/>
      <point x="152" y="1766" type="line"/>
      <point x="152" y="986" type="line"/>
      <point x="33" y="986" type="line"/>
      <point x="33" y="809" type="line"/>
      <point x="152" y="809" type="line"/>
    </contour>
    <contour>
      <point x="380" y="198" type="line"/>
      <point x="380" y="809" type="line"/>
      <point x="553" y="809" type="line"/>
      <point x="553" y="986" type="line"/>
      <point x="380" y="986" type="line"/>
      <point x="380" y="1567" type="line"/>
      <point x="535" y="1567" type="line" smooth="yes"/>
      <point x="734" y="1567"/>
      <point x="803" y="1488"/>
      <point x="803" y="1331" type="curve" smooth="yes"/>
      <point x="803" y="447" type="line" smooth="yes"/>
      <point x="803" y="274"/>
      <point x="744" y="199"/>
      <point x="536" y="198" type="curve" smooth="yes"/>
    </contour>
  </outline>
</glyph>
<glyph name="multiply" format="1">
  <advance width="730"/>
  <unicode hex="00D7"/>
  <outline>
    <contour>
      <point x="56" y="443" type="line"/>
      <point x="159" y="325" type="line"/>
      <point x="351" y="519" type="line"/>
      <point x="545" y="325" type="line"/>
      <point x="647" y="443" type="line"/>
      <point x="607" y="490"/>
      <point x="477" y="599"/>
      <point x="454" y="637" type="curve"/>
      <point x="647" y="830" type="line"/>
      <point x="545" y="948" type="line"/>
      <point x="351" y="755" type="line"/>
      <point x="159" y="948" type="line"/>
      <point x="56" y="830" type="line"/>
      <point x="249" y="637" type="line"/>
    </contour>
  </outline>
</glyph>
<glyph name="Oslash" format="1">
  <advance width="1154"/>
  <unicode hex="00D8"/>
  <outline>
    <contour>
      <point x="222" y="-200" type="line"/>
      <point x="297" y="-220" type="line"/>
      <point x="359" y="5" type="line"/>
      <point x="418" y="-18"/>
      <point x="489" y="-32"/>
      <point x="577" y="-32" type="curve" smooth="yes"/>
      <point x="939" y="-32"/>
      <point x="1047" y="235"/>
      <point x="1047" y="558" type="curve" smooth="yes"/>
      <point x="1047" y="1207" type="line" smooth="yes"/>
      <point x="1047" y="1424"/>
      <point x="1000" y="1611"/>
      <point x="870" y="1713" type="curve"/>
      <point x="939" y="1963" type="line"/>
      <point x="862" y="1983" type="line"/>
      <point x="800" y="1755" type="line"/>
      <point x="740" y="1782"/>
      <point x="665" y="1797"/>
      <point x="577" y="1797" type="curve" smooth="yes"/>
      <point x="219" y="1797"/>
      <point x="106" y="1536"/>
      <point x="106" y="1207" type="curve" smooth="yes"/>
      <point x="106" y="552" type="line" smooth="yes"/>
      <point x="106" y="333"/>
      <point x="154" y="143"/>
      <point x="290" y="44" type="curve"/>
    </contour>
    <contour>
      <point x="819" y="486" type="line"/>
      <point x="819" y="332"/>
      <point x="771" y="176"/>
      <point x="577" y="176" type="curve" smooth="yes"/>
      <point x="383" y="176"/>
      <point x="335" y="332"/>
      <point x="335" y="486" type="curve"/>
      <point x="335" y="1274" type="line" smooth="yes"/>
      <point x="335" y="1425"/>
      <point x="384" y="1583"/>
      <point x="577" y="1583" type="curve" smooth="yes"/>
      <point x="770" y="1583"/>
      <point x="819" y="1425"/>
      <point x="819" y="1274" type="curve"/>
    </contour>
  </outline>
</glyph>
<glyph name="Thorn" format="1">
  <advance width="1044"/>
  <unicode hex="00DE"/>
  <outline>
    <contour>
      <point x="128" y="0" type="line"/>
      <point x="357" y="0" type="line"/>
      <point x="357" y="522" type="line"/>
      <point x="533" y="522" type="line" smooth="yes"/>
      <point x="857" y="525"/>
      <point x="977" y="692"/>
      <point x="977" y="1031" type="curve" smooth="yes"/>
      <point x="977" y="1319"/>
      <point x="868" y="1521"/>
      <point x="554" y="1521" type="curve" smooth="yes"/>
      <point x="356" y="1521" type="line"/>
      <point x="356" y="1766" type="line"/>
      <point x="128" y="1766" type="line"/>
    </contour>
    <contour>
      <point x="357" y="722" type="line"/>
      <point x="357" y="1320" type="line"/>
      <point x="547" y="1320" type="line" smooth="yes"/>
      <point x="704" y="1320"/>
      <point x="755" y="1217"/>
      <point x="755" y="1033" type="curve" smooth="yes"/>
      <point x="755" y="822"/>
      <point x="714" y="721"/>
      <point x="545" y="721" type="curve" smooth="yes"/>
    </contour>
  </outline>
</glyph>
<glyph name="germandbls" format="1">
  <advance width="1103"/>
  <unicode hex="00DF"/>
  <outline>
    <contour>
      <point x="123" y="0" type="line"/>
      <point x="352" y="0" type="line"/>
      <point x="352" y="1351" type="line" smooth="yes"/>
      <point x="352" y="1495"/>
      <point x="421" y="1608"/>
      <point x="529" y="1608" type="curve" smooth="yes"/>
      <point x="631" y="1608"/>
      <point x="698" y="1489"/>
      <point x="698" y="1339" type="curve" smooth="yes"/>
      <point x="698" y="1201"/>
      <point x="653" y="1042"/>
      <point x="500" y="1042" type="curve" smooth="yes"/>
      <point x="431" y="1042" type="line"/>
      <point x="431" y="846" type="line"/>
      <point x="498" y="846" type="line" smooth="yes"/>
      <point x="728" y="846"/>
      <point x="793" y="694"/>
      <point x="793" y="500" type="curve" smooth="yes"/>
      <point x="793" y="297"/>
      <point x="744" y="161"/>
      <point x="436" y="161" type="curve"/>
      <point x="436" y="-32" type="line"/>
      <point x="878" y="-32"/>
      <point x="1019" y="168"/>
      <point x="1019" y="477" type="curve" smooth="yes"/>
      <point x="1019" y="668"/>
      <point x="948" y="909"/>
      <point x="692" y="973" type="curve"/>
      <point x="852" y="1039"/>
      <point x="922" y="1194"/>
      <point x="922" y="1340" type="curve" smooth="yes"/>
      <point x="922" y="1632"/>
      <point x="753" y="1797"/>
      <point x="525" y="1797" type="curve" smooth="yes"/>
      <point x="292" y="1797"/>
      <point x="123" y="1612"/>
      <point x="123" y="1350" type="curve" smooth="yes"/>
    </contour>
  </outline>
</glyph>
<glyph name="ae" format="1">
  <advance width="1350"/>
  <unicode hex="00E6"/>
  <outline>
    <contour>
      <point x="348" y="-28" type="curve" smooth="yes"/>
      <point x="437" y="-28"/>
      <point x="548" y="17"/>
      <point x="637" y="130" type="curve"/>
      <point x="690" y="20"/>
      <point x="786" y="-28"/>
      <point x="920" y="-28" type="curve" smooth="yes"/>
      <point x="1136" y="-28"/>
      <point x="1241" y="128"/>
      <point x="1253" y="342" type="curve" smooth="yes"/>
      <point x="1255" y="435" type="line"/>
      <point x="1045" y="435" type="line"/>
      <point x="1045" y="423"/>
      <point x="1046" y="391"/>
      <point x="1046" y="368" type="curve" smooth="yes"/>
      <point x="1043" y="235"/>
      <point x="989" y="167"/>
      <point x="919" y="167" type="curve" smooth="yes"/>
      <point x="826" y="167"/>
      <point x="781" y="226"/>
      <point x="781" y="388" type="curve" smooth="yes"/>
      <point x="781" y="626" type="line"/>
      <point x="1256" y="626" type="line"/>
      <point x="1257" y="646"/>
      <point x="1257" y="812"/>
      <point x="1257" y="833" type="curve" smooth="yes"/>
      <point x="1257" y="1125"/>
      <point x="1160" y="1288"/>
      <point x="920" y="1288" type="curve" smooth="yes"/>
      <point x="818" y="1288"/>
      <point x="734" y="1266"/>
      <point x="675" y="1206" type="curve"/>
      <point x="624" y="1256"/>
      <point x="551" y="1288"/>
      <point x="449" y="1288" type="curve" smooth="yes"/>
      <point x="233" y="1288"/>
      <point x="106" y="1138"/>
      <point x="96" y="877" type="curve"/>
      <point x="314" y="877" type="line"/>
      <point x="314" y="893"/>
      <point x="313" y="912"/>
      <point x="313" y="932" type="curve" smooth="yes"/>
      <point x="323" y="1049"/>
      <point x="377" y="1093"/>
      <point x="436" y="1093" type="curve" smooth="yes"/>
      <point x="512" y="1093"/>
      <point x="560" y="1016"/>
      <point x="562" y="826" type="curve" smooth="yes"/>
      <point x="562" y="791" type="line"/>
      <point x="163" y="644"/>
      <point x="78" y="519"/>
      <point x="78" y="269" type="curve" smooth="yes"/>
      <point x="78" y="74"/>
      <point x="212" y="-28"/>
    </contour>
    <contour>
      <point x="562" y="282" type="line"/>
      <point x="526" y="229"/>
      <point x="459" y="180"/>
      <point x="394" y="180" type="curve" smooth="yes"/>
      <point x="339" y="180"/>
      <point x="293" y="229"/>
      <point x="293" y="307" type="curve" smooth="yes"/>
      <point x="293" y="438"/>
      <point x="398" y="520"/>
      <point x="562" y="614" type="curve"/>
    </contour>
    <contour>
      <point x="782" y="759" type="line"/>
      <point x="782" y="854" type="line" smooth="yes"/>
      <point x="782" y="995"/>
      <point x="787" y="1089"/>
      <point x="924" y="1089" type="curve" smooth="yes"/>
      <point x="1050" y="1089"/>
      <point x="1040" y="958"/>
      <point x="1042" y="854" type="curve" smooth="yes"/>
      <point x="1042" y="759" type="line"/>
    </contour>
  </outline>
</glyph>
<glyph name="eth" format="1">
  <advance width="917"/>
  <unicode hex="00F0"/>
  <outline>
    <contour>
      <point x="85" y="422" type="line"/>
      <point x="85" y="159"/>
      <point x="209" y="-28"/>
      <point x="438" y="-28" type="curve" smooth="yes"/>
      <point x="675" y="-28"/>
      <point x="806" y="140"/>
      <point x="806" y="413" type="curve" smooth="yes"/>
      <point x="805" y="911" type="line" smooth="yes"/>
      <point x="805" y="1147"/>
      <point x="778" y="1327"/>
      <point x="720" y="1460" type="curve"/>
      <point x="858" y="1513" type="line"/>
      <point x="834" y="1634" type="line"/>
      <point x="668" y="1574" type="line"/>
      <point x="573" y="1719"/>
      <point x="421" y="1790"/>
      <point x="192" y="1797" type="curve"/>
      <point x="184" y="1593" type="line"/>
      <point x="323" y="1587"/>
      <point x="415" y="1560"/>
      <point x="479" y="1477" type="curve"/>
      <point x="341" y="1419" type="line"/>
      <point x="365" y="1299" type="line"/>
      <point x="526" y="1359" type="line"/>
      <point x="547" y="1294"/>
      <point x="562" y="1211"/>
      <point x="573" y="1108" type="curve"/>
      <point x="527" y="1143"/>
      <point x="465" y="1161"/>
      <point x="394" y="1161" type="curve" smooth="yes"/>
      <point x="194" y="1161"/>
      <point x="86" y="991"/>
      <point x="85" y="741" type="curve" smooth="yes"/>
    </contour>
    <contour>
      <point x="438" y="176" type="curve" smooth="yes"/>
      <point x="343" y="176"/>
      <point x="302" y="254"/>
      <point x="302" y="421" type="curve" smooth="yes"/>
      <point x="302" y="731" type="line" smooth="yes"/>
      <point x="303" y="901"/>
      <point x="352" y="957"/>
      <point x="433" y="957" type="curve" smooth="yes"/>
      <point x="487" y="957"/>
      <point x="559" y="936"/>
      <point x="579" y="898" type="curve"/>
      <point x="586" y="833"/>
      <point x="588" y="473"/>
      <point x="588" y="430" type="curve" smooth="yes"/>
      <point x="588" y="232"/>
      <point x="538" y="176"/>
    </contour>
  </outline>
</glyph>
<glyph name="divide" format="1">
  <advance width="682"/>
  <unicode hex="00F7"/>
  <outline>
    <contour>
      <point x="25" y="580" type="line"/>
      <point x="631" y="580" type="line"/>
      <point x="631" y="757" type="line"/>
      <point x="25" y="757" type="line"/>
    </contour>
    <contour>
      <point x="217" y="885" type="line"/>
      <point x="438" y="885" type="line"/>
      <point x="438" y="1126" type="line"/>
      <point x="217" y="1126" type="line"/>
    </contour>
    <contour>
      <point x="217" y="235" type="line"/>
      <point x="438" y="235" type="line"/>
      <point x="438" y="476" type="line"/>
      <point x="217" y="476" type="line"/>
    </contour>
  </outline>
</glyph>
<glyph name="oslash" format="1">
  <advance width="899"/>
  <unicode hex="00F8"/>
  <outline>
    <contour>
      <point x="166" y="-236" type="line"/>
      <point x="225" y="-254" type="line"/>
      <point x="303" y="-3" type="line"/>
      <point x="344" y="-19"/>
      <point x="391" y="-28"/>
      <point x="448" y="-28" type="curve" smooth="yes"/>
      <point x="729" y="-28"/>
      <point x="799" y="180"/>
      <point x="799" y="436" type="curve" smooth="yes"/>
      <point x="799" y="782" type="line" smooth="yes"/>
      <point x="799" y="965"/>
      <point x="779" y="1131"/>
      <point x="671" y="1220" type="curve"/>
      <point x="765" y="1510" type="line"/>
      <point x="706" y="1529" type="line"/>
      <point x="617" y="1254" type="line"/>
      <point x="572" y="1276"/>
      <point x="517" y="1288"/>
      <point x="448" y="1288" type="curve" smooth="yes"/>
      <point x="142" y="1288"/>
      <point x="99" y="1054"/>
      <point x="99" y="782" type="curve" smooth="yes"/>
      <point x="99" y="436" type="line" smooth="yes"/>
      <point x="99" y="259"/>
      <point x="128" y="103"/>
      <point x="248" y="26" type="curve"/>
    </contour>
    <contour>
      <point x="369" y="467" type="line"/>
      <point x="369" y="591"/>
      <point x="378" y="613"/>
      <point x="448" y="613" type="curve" smooth="yes"/>
      <point x="519" y="613"/>
      <point x="530" y="592"/>
      <point x="530" y="467" type="curve"/>
      <point x="530" y="796" type="line" smooth="yes"/>
      <point x="530" y="667"/>
      <point x="516" y="643"/>
      <point x="448" y="643" type="curve" smooth="yes"/>
      <point x="381" y="643"/>
      <point x="369" y="669"/>
      <point x="369" y="796" type="curve"/>
    </contour>
  </outline>
</glyph>
<glyph name="thorn" format="1">
  <advance width="915"/>
  <unicode hex="00FE"/>
  <outline>
    <contour>
      <point x="112" y="-377" type="line"/>
      <point x="330" y="-377" type="line"/>
      <point x="330" y="104" type="line"/>
      <point x="392" y="13"/>
      <point x="481" y="-28"/>
      <point x="559" y="-28" type="curve" smooth="yes"/>
      <point x="685" y="-28"/>
      <point x="814" y="72"/>
      <point x="814" y="376" type="curve" smooth="yes"/>
      <point x="814" y="877" type="line" smooth="yes"/>
      <point x="814" y="1188"/>
      <point x="685" y="1288"/>
      <point x="552" y="1288" type="curve" smooth="yes"/>
      <point x="469" y="1288"/>
      <point x="388" y="1239"/>
      <point x="330" y="1161" type="curve"/>
      <point x="330" y="1766" type="line"/>
      <point x="112" y="1766" type="line"/>
    </contour>
    <contour>
      <point x="598" y="410" type="line"/>
      <point x="598" y="195"/>
      <point x="550" y="160"/>
      <point x="486" y="160" type="curve" smooth="yes"/>
      <point x="434" y="160"/>
      <point x="373" y="213"/>
      <point x="330" y="258" type="curve"/>
      <point x="330" y="1001" type="line"/>
      <point x="376" y="1044"/>
      <point x="431" y="1096"/>
      <point x="489" y="1096" type="curve" smooth="yes"/>
      <point x="551" y="1096"/>
      <point x="598" y="1060"/>
      <point x="598" y="845" type="curve" smooth="yes"/>
    </contour>
  </outline>
</glyph>
<glyph name="Hbar" format="1">
  <advance width="1142"/>
  <unicode hex="0126"/>
  <outline>
    <contour>
      <point x="124" y="0" type="line"/>
      <point x="353" y="0" type="line"/>
      <point x="353" y="817" type="line"/>
      <point x="786" y="817" type="line"/>
      <point x="786" y="0" type="line"/>
      <point x="1015" y="0" type="line"/>
      <point x="1015" y="1333" type="line"/>
      <point x="1077" y="1333" type="line"/>
      <point x="1077" y="1439" type="line"/>
      <point x="1015" y="1439" type="line"/>
      <point x="1015" y="1766" type="line"/>
      <point x="786" y="1766" type="line"/>
      <point x="786" y="1439" type="line"/>
      <point x="353" y="1439" type="line"/>
      <point x="353" y="1766" type="line"/>
      <point x="124" y="1766" type="line"/>
      <point x="124" y="1439" type="line"/>
      <point x="63" y="1439" type="line"/>
      <point x="63" y="1333" type="line"/>
      <point x="124" y="1333" type="line"/>
    </contour>
    <contour>
      <point x="353" y="1011" type="line"/>
      <point x="353" y="1333" type="line"/>
      <point x="786" y="1333" type="line"/>
      <point x="786" y="1011" type="line"/>
    </contour>
  </outline>
</glyph>
<glyph name="hbar" format="1">
  <advance width="938"/>
  <unicode hex="0127"/>
  <outline>
    <contour>
      <point x="134" y="0" type="line"/>
      <point x="352" y="0" type="line"/>
      <point x="352" y="999" type="line"/>
      <point x="398" y="1038"/>
      <point x="463" y="1083"/>
      <point x="520" y="1083" type="curve" smooth="yes"/>
      <point x="575" y="1083"/>
      <point x="614" y="1020"/>
      <point x="614" y="951" type="curve" smooth="yes"/>
      <point x="614" y="0" type="line"/>
      <point x="833" y="0" type="line"/>
      <point x="833" y="1005" type="line" smooth="yes"/>
      <point x="833" y="1162"/>
      <point x="724" y="1288"/>
      <point x="600" y="1288" type="curve" smooth="yes"/>
      <point x="508" y="1288"/>
      <point x="415" y="1240"/>
      <point x="352" y="1158" type="curve"/>
      <point x="352" y="1427" type="line"/>
      <point x="561" y="1427" type="line"/>
      <point x="561" y="1581" type="line"/>
      <point x="352" y="1581" type="line"/>
      <point x="352" y="1766" type="line"/>
      <point x="134" y="1766" type="line"/>
      <point x="134" y="1581" type="line"/>
      <point x="25" y="1581" type="line"/>
      <point x="25" y="1427" type="line"/>
      <point x="134" y="1427" type="line"/>
    </contour>
  </outline>
</glyph>
<glyph name="dotlessi" format="1">
  <advance width="451"/>
  <unicode hex="0131"/>
  <outline>
    <contour>
      <point x="241" y="1241" type="move" name="top"/>
    </contour>
    <contour>
      <point x="129" y="0" type="line"/>
      <point x="347" y="0" type="line"/>
      <point x="347" y="1260" type="line"/>
      <point x="129" y="1260" type="line"/>
    </contour>
  </outline>
</glyph>
<glyph name="kgreenlandic" format="1">
  <advance width="927"/>
  <unicode hex="0138"/>
  <outline>
    <contour>
      <point x="112" y="0" type="line"/>
      <point x="330" y="0" type="line"/>
      <point x="330" y="433" type="line"/>
      <point x="433" y="552" type="line"/>
      <point x="646" y="0" type="line"/>
      <point x="872" y="0" type="line"/>
      <point x="586" y="733" type="line"/>
      <point x="872" y="1260" type="line"/>
      <point x="643" y="1260" type="line"/>
      <point x="330" y="762" type="line"/>
      <point x="330" y="1260" type="line"/>
      <point x="112" y="1260" type="line"/>
    </contour>
  </outline>
</glyph>
<glyph name="Lslash" format="1">
  <advance width="837"/>
  <unicode hex="0141"/>
  <outline>
    <contour>
      <point x="152" y="0" type="line"/>
      <point x="817" y="0" type="line"/>
      <point x="817" y="196" type="line"/>
      <point x="380" y="196" type="line"/>
      <point x="380" y="978" type="line"/>
      <point x="634" y="1075" type="line"/>
      <point x="634" y="1229" type="line"/>
      <point x="380" y="1132" type="line"/>
      <point x="380" y="1766" type="line"/>
      <point x="152" y="1766" type="line"/>
      <point x="152" y="1029" type="line"/>
      <point x="33" y="989" type="line"/>
      <point x="33" y="835" type="line"/>
      <point x="152" y="875" type="line"/>
    </contour>
  </outline>
</glyph>
<glyph name="lslash" format="1">
  <advance width="566"/>
  <unicode hex="0142"/>
  <outline>
    <contour>
      <point x="176" y="0" type="line"/>
      <point x="393" y="0" type="line"/>
      <point x="393" y="1007" type="line"/>
      <point x="547" y="1075" type="line"/>
      <point x="547" y="1229" type="line"/>
      <point x="393" y="1161" type="line"/>
      <point x="393" y="1766" type="line"/>
      <point x="176" y="1766" type="line"/>
      <point x="176" y="1056" type="line"/>
      <point x="21" y="989" type="line"/>
      <point x="21" y="835" type="line"/>
      <point x="176" y="902" type="line"/>
    </contour>
  </outline>
</glyph>
<glyph name="OE" format="1">
  <advance width="1519"/>
  <unicode hex="0152"/>
  <outline>
    <contour>
      <point x="104" y="562" type="line"/>
      <point x="104" y="243"/>
      <point x="212" y="1"/>
      <point x="574" y="1" type="curve" smooth="yes"/>
      <point x="1471" y="0" type="line"/>
      <point x="1471" y="196" type="line"/>
      <point x="1045" y="196" type="line"/>
      <point x="1045" y="816" type="line"/>
      <point x="1348" y="816" type="line"/>
      <point x="1348" y="1012" type="line"/>
      <point x="1045" y="1012" type="line"/>
      <point x="1045" y="1571" type="line"/>
      <point x="1471" y="1571" type="line"/>
      <point x="1471" y="1766" type="line"/>
      <point x="574" y="1766" type="line" smooth="yes"/>
      <point x="216" y="1765"/>
      <point x="104" y="1511"/>
      <point x="104" y="1197" type="curve" smooth="yes"/>
    </contour>
    <contour>
      <point x="574" y="197" type="line"/>
      <point x="381" y="198"/>
      <point x="332" y="350"/>
      <point x="332" y="495" type="curve" smooth="yes"/>
      <point x="332" y="1264" type="line" smooth="yes"/>
      <point x="332" y="1410"/>
      <point x="381" y="1563"/>
      <point x="574" y="1563" type="curve" smooth="yes"/>
      <point x="816" y="1563" type="line"/>
      <point x="816" y="197" type="line"/>
    </contour>
  </outline>
</glyph>
<glyph name="oe" format="1">
  <advance width="1369"/>
  <unicode hex="0153"/>
  <outline>
    <contour>
      <point x="99" y="436" type="line"/>
      <point x="99" y="180"/>
      <point x="164" y="-29"/>
      <point x="441" y="-29" type="curve" smooth="yes"/>
      <point x="553" y="-29"/>
      <point x="634" y="8"/>
      <point x="691" y="70" type="curve"/>
      <point x="750" y="2"/>
      <point x="834" y="-29"/>
      <point x="943" y="-29" type="curve" smooth="yes"/>
      <point x="1161" y="-29"/>
      <point x="1262" y="132"/>
      <point x="1273" y="347" type="curve" smooth="yes"/>
      <point x="1273" y="349"/>
      <point x="1274" y="434"/>
      <point x="1274" y="435" type="curve"/>
      <point x="1064" y="435" type="line"/>
      <point x="1064" y="423"/>
      <point x="1065" y="395"/>
      <point x="1065" y="372" type="curve" smooth="yes"/>
      <point x="1063" y="235"/>
      <point x="1009" y="167"/>
      <point x="938" y="167" type="curve" smooth="yes"/>
      <point x="845" y="167"/>
      <point x="801" y="226"/>
      <point x="801" y="388" type="curve" smooth="yes"/>
      <point x="801" y="626" type="line"/>
      <point x="1275" y="626" type="line"/>
      <point x="1277" y="646"/>
      <point x="1277" y="812"/>
      <point x="1277" y="833" type="curve" smooth="yes"/>
      <point x="1277" y="1125"/>
      <point x="1181" y="1288"/>
      <point x="946" y="1288" type="curve" smooth="yes"/>
      <point x="840" y="1288"/>
      <point x="752" y="1260"/>
      <point x="691" y="1191" type="curve"/>
      <point x="639" y="1251"/>
      <point x="562" y="1288"/>
      <point x="448" y="1288" type="curve" smooth="yes"/>
      <point x="142" y="1288"/>
      <point x="99" y="1054"/>
      <point x="99" y="782" type="curve" smooth="yes"/>
    </contour>
    <contour>
      <point x="369" y="463" type="line"/>
      <point x="369" y="587"/>
      <point x="377" y="613"/>
      <point x="448" y="613" type="curve" smooth="yes"/>
      <point x="517" y="613"/>
      <point x="530" y="592"/>
      <point x="530" y="467" type="curve" smooth="yes"/>
      <point x="530" y="796" type="line" smooth="yes"/>
      <point x="530" y="667"/>
      <point x="516" y="643"/>
      <point x="448" y="643" type="curve" smooth="yes"/>
      <point x="381" y="643"/>
      <point x="369" y="669"/>
      <point x="369" y="796" type="curve" smooth="yes"/>
    </contour>
    <contour>
      <point x="801" y="759" type="line"/>
      <point x="801" y="860" type="line" smooth="yes"/>
      <point x="801" y="997"/>
      <point x="808" y="1089"/>
      <point x="943" y="1089" type="curve" smooth="yes"/>
      <point x="1067" y="1089"/>
      <point x="1060" y="962"/>
      <point x="1061" y="859" type="curve" smooth="yes"/>
      <point x="1061" y="759" type="line"/>
    </contour>
  </outline>
</glyph>
<glyph name="dotlessj" format="1">
  <advance width="493"/>
  <unicode hex="0237"/>
  <outline>
    <contour>
      <point x="263" y="1237" type="move" name="top"/>
    </contour>
    <contour>
      <point x="-29" y="-296" type="line"/>
      <point x="12" y="-307"/>
      <point x="58" y="-315"/>
      <point x="88" y="-315" type="curve" smooth="yes"/>
      <point x="268" y="-315"/>
      <point x="370" y="-206"/>
      <point x="370" y="-5" type="curve" smooth="yes"/>
      <point x="370" y="1260" type="line"/>
      <point x="153" y="1260" type="line"/>
      <point x="153" y="24" type="line" smooth="yes"/>
      <point x="153" y="-32"/>
      <point x="148" y="-120"/>
      <point x="39" y="-120" type="curve" smooth="yes"/>
      <point x="22" y="-120"/>
      <point x="-4" y="-115"/>
      <point x="-29" y="-110" type="curve"/>
    </contour>
  </outline>
</glyph>
<glyph name="circumflex" format="1">
  <advance width="778"/>
  <unicode hex="02C6"/>
  <outline>
    <contour>
      <point x="391" y="1237" type="move" name="_top"/>
    </contour>
    <contour>
      <point x="99" y="1399" type="line"/>
      <point x="270" y="1399" type="line"/>
      <point x="391" y="1643" type="line"/>
      <point x="514" y="1399" type="line"/>
      <point x="684" y="1399" type="line"/>
      <point x="512" y="1763" type="line"/>
      <point x="271" y="1763" type="line"/>
    </contour>
  </outline>
</glyph>
<glyph name="caron" format="1">
  <advance width="705"/>
  <unicode hex="02C7"/>
  <outline>
    <contour>
      <point x="357" y="1242" type="move" name="_top"/>
    </contour>
    <contour>
      <point x="282" y="1359" type="line"/>
      <point x="423" y="1359" type="line"/>
      <point x="631" y="1740" type="line"/>
      <point x="441" y="1740" type="line"/>
      <point x="353" y="1524" type="line"/>
      <point x="266" y="1740" type="line"/>
      <point x="76" y="1740" type="line"/>
    </contour>
  </outline>
</glyph>
<glyph name="breve" format="1">
  <advance width="735"/>
  <unicode hex="02D8"/>
  <outline>
    <contour>
      <point x="361" y="1238" type="move" name="_top"/>
    </contour>
    <contour>
      <point x="93" y="1641" type="line"/>
      <point x="99" y="1464"/>
      <point x="237" y="1385"/>
      <point x="361" y="1385" type="curve" smooth="yes"/>
      <point x="484" y="1385"/>
      <point x="623" y="1464"/>
      <point x="628" y="1641" type="curve"/>
      <point x="496" y="1641" type="line"/>
      <point x="483" y="1555"/>
      <point x="430" y="1501"/>
      <point x="361" y="1501" type="curve" smooth="yes"/>
      <point x="292" y="1501"/>
      <point x="239" y="1555"/>
      <point x="226" y="1641" type="curve"/>
    </contour>
  </outline>
</glyph>
<glyph name="dotaccent" format="1">
  <advance width="471"/>
  <unicode hex="02D9"/>
  <outline>
    <contour>
      <point x="258" y="1241" type="move" name="_top"/>
    </contour>
    <contour>
      <point x="125" y="1448" type="line"/>
      <point x="359" y="1448" type="line"/>
      <point x="359" y="1707" type="line"/>
      <point x="125" y="1707" type="line"/>
    </contour>
  </outline>
</glyph>
<glyph name="ring" format="1">
  <advance width="680"/>
  <unicode hex="02DA"/>
  <outline>
    <contour>
      <point x="344" y="1241" type="move" name="_top"/>
    </contour>
    <contour>
      <point x="217" y="1604" type="curve"/>
      <point x="217" y="1660"/>
      <point x="247" y="1734"/>
      <point x="337" y="1734" type="curve" smooth="yes"/>
      <point x="426" y="1734"/>
      <point x="455" y="1657"/>
      <point x="455" y="1603" type="curve" smooth="yes"/>
      <point x="455" y="1548"/>
      <point x="426" y="1473"/>
      <point x="337" y="1473" type="curve"/>
      <point x="247" y="1473"/>
      <point x="217" y="1548"/>
    </contour>
    <contour>
      <point x="337" y="1834" type="curve"/>
      <point x="187" y="1834"/>
      <point x="106" y="1734"/>
      <point x="106" y="1603" type="curve" smooth="yes"/>
      <point x="106" y="1473"/>
      <point x="187" y="1373"/>
      <point x="337" y="1373" type="curve"/>
      <point x="487" y="1373"/>
      <point x="568" y="1473"/>
      <point x="568" y="1603" type="curve" smooth="yes"/>
      <point x="568" y="1734"/>
      <point x="486" y="1834"/>
    </contour>
  </outline>
</glyph>
<glyph name="ogonek" format="1">
  <advance width="511"/>
  <unicode hex="02DB"/>
  <outline>
    <contour>
      <point x="265" y="3" type="move" name="_bot"/>
    </contour>
    <contour>
      <point x="410" y="-328" type="line"/>
      <point x="303" y="-328"/>
      <point x="221" y="-329"/>
      <point x="221" y="-228" type="curve" smooth="yes"/>
      <point x="221" y="-141"/>
      <point x="276" y="-67"/>
      <point x="331" y="9" type="curve"/>
      <point x="234" y="9" type="line"/>
      <point x="179" y="-43"/>
      <point x="80" y="-155"/>
      <point x="80" y="-263" type="curve" smooth="yes"/>
      <point x="80" y="-441"/>
      <point x="228" y="-452"/>
      <point x="403" y="-450" type="curve"/>
    </contour>
  </outline>
</glyph>
<glyph name="tilde" format="1">
  <advance width="807"/>
  <unicode hex="02DC"/>
  <outline>
    <contour>
      <point x="421" y="1236" type="move" name="_top"/>
    </contour>
    <contour>
      <point x="243" y="1407" type="line"/>
      <point x="247" y="1446"/>
      <point x="258" y="1471"/>
      <point x="300" y="1471" type="curve" smooth="yes"/>
      <point x="368" y="1471"/>
      <point x="452" y="1396"/>
      <point x="533" y="1396" type="curve" smooth="yes"/>
      <point x="703" y="1396"/>
      <point x="705" y="1581"/>
      <point x="707" y="1648" type="curve"/>
      <point x="577" y="1648" type="line"/>
      <point x="572" y="1611"/>
      <point x="558" y="1593"/>
      <point x="522" y="1593" type="curve" smooth="yes"/>
      <point x="468" y="1593"/>
      <point x="377" y="1658"/>
      <point x="295" y="1658" type="curve" smooth="yes"/>
      <point x="128" y="1658"/>
      <point x="110" y="1513"/>
      <point x="109" y="1407" type="curve"/>
    </contour>
  </outline>
</glyph>
<glyph name="hungarumlaut" format="1">
  <advance width="774"/>
  <unicode hex="02DD"/>
  <outline>
    <contour>
      <point x="315" y="1240" type="move" name="_top"/>
    </contour>
    <contour>
      <point x="105" y="1406" type="line"/>
      <point x="216" y="1406" type="line"/>
      <point x="426" y="1793" type="line"/>
      <point x="222" y="1793" type="line"/>
    </contour>
    <contour>
      <point x="366" y="1406" type="line"/>
      <point x="479" y="1406" type="line"/>
      <point x="689" y="1793" type="line"/>
      <point x="484" y="1793" type="line"/>
    </contour>
  </outline>
</glyph>
<glyph name="uni030F" format="1">
  <advance width="781"/>
  <unicode hex="030F"/>
  <outline>
    <contour>
      <point x="444" y="1236" type="move" name="_top"/>
    </contour>
    <contour>
      <point x="556" y="1406" type="line"/>
      <point x="668" y="1406" type="line"/>
      <point x="551" y="1793" type="line"/>
      <point x="347" y="1793" type="line"/>
    </contour>
    <contour>
      <point x="294" y="1406" type="line"/>
      <point x="406" y="1406" type="line"/>
      <point x="289" y="1793" type="line"/>
      <point x="84" y="1793" type="line"/>
    </contour>
  </outline>
</glyph>
<glyph name="uni0311" format="1">
  <advance width="734"/>
  <unicode hex="0311"/>
  <outline>
    <contour>
      <point x="360" y="1238" type="move" name="_top"/>
    </contour>
    <contour>
      <point x="225" y="1385" type="line"/>
      <point x="238" y="1472"/>
      <point x="290" y="1525"/>
      <point x="360" y="1525" type="curve" smooth="yes"/>
      <point x="429" y="1525"/>
      <point x="481" y="1472"/>
      <point x="494" y="1385" type="curve"/>
      <point x="627" y="1385" type="line"/>
      <point x="621" y="1562"/>
      <point x="483" y="1641"/>
      <point x="360" y="1641" type="curve" smooth="yes"/>
      <point x="236" y="1641"/>
      <point x="98" y="1562"/>
      <point x="92" y="1385" type="curve"/>
    </contour>
  </outline>
</glyph>
<glyph name="uni0326" format="1">
  <advance width="503"/>
  <unicode hex="0326"/>
  <outline>
    <contour>
      <point x="241" y="0" type="move" name="_bot"/>
    </contour>
    <contour>
      <point x="186" y="-589" type="line"/>
      <point x="194" y="-590"/>
      <point x="202" y="-591"/>
      <point x="209" y="-591" type="curve" smooth="yes"/>
      <point x="381" y="-581"/>
      <point x="365" y="-365"/>
      <point x="365" y="-82" type="curve"/>
      <point x="130" y="-82" type="line"/>
      <point x="130" y="-341" type="line"/>
      <point x="252" y="-341" type="line"/>
      <point x="251" y="-409"/>
      <point x="239" y="-456"/>
      <point x="155" y="-470" type="curve"/>
    </contour>
  </outline>
</glyph>
<glyph name="endash" format="1">
  <advance width="697"/>
  <unicode hex="2013"/>
  <outline>
    <contour>
      <point x="76" y="451" type="line"/>
      <point x="630" y="451" type="line"/>
      <point x="630" y="628" type="line"/>
      <point x="76" y="628" type="line"/>
    </contour>
  </outline>
</glyph>
<glyph name="emdash" format="1">
  <advance width="1062"/>
  <unicode hex="2014"/>
  <outline>
    <contour>
      <point x="76" y="451" type="line"/>
      <point x="994" y="451" type="line"/>
      <point x="994" y="628" type="line"/>
      <point x="76" y="628" type="line"/>
    </contour>
  </outline>
</glyph>
<glyph name="quoteleft" format="1">
  <advance width="460"/>
  <unicode hex="2018"/>
  <outline>
    <contour>
      <point x="343" y="1294" type="line"/>
      <point x="343" y="1541" type="line"/>
      <point x="215" y="1541" type="line"/>
      <point x="215" y="1598"/>
      <point x="247" y="1663"/>
      <point x="332" y="1676" type="curve"/>
      <point x="285" y="1797" type="line"/>
      <point x="105" y="1791"/>
      <point x="117" y="1536"/>
      <point x="117" y="1294" type="curve"/>
    </contour>
  </outline>
</glyph>
<glyph name="quoteright" format="1">
  <advance width="454"/>
  <unicode hex="2019"/>
  <outline>
    <contour>
      <point x="167" y="1283" type="line"/>
      <point x="347" y="1289"/>
      <point x="335" y="1544"/>
      <point x="335" y="1786" type="curve"/>
      <point x="110" y="1786" type="line"/>
      <point x="110" y="1539" type="line"/>
      <point x="238" y="1539" type="line"/>
      <point x="237" y="1481"/>
      <point x="205" y="1417"/>
      <point x="119" y="1404" type="curve"/>
    </contour>
  </outline>
</glyph>
<glyph name="quotesinglbase" format="1">
  <advance width="412"/>
  <unicode hex="201A"/>
  <outline>
    <contour>
      <point x="156" y="-321" type="line"/>
      <point x="259" y="-321" type="line"/>
      <point x="275" y="-256"/>
      <point x="300" y="-12"/>
      <point x="316" y="53" type="curve"/>
      <point x="99" y="53" type="line"/>
    </contour>
  </outline>
</glyph>
<glyph name="quotedblleft" format="1">
  <advance width="793"/>
  <unicode hex="201C"/>
  <outline>
    <contour>
      <point x="344" y="1294" type="line"/>
      <point x="344" y="1541" type="line"/>
      <point x="216" y="1541" type="line"/>
      <point x="217" y="1598"/>
      <point x="248" y="1663"/>
      <point x="334" y="1676" type="curve"/>
      <point x="287" y="1797" type="line"/>
      <point x="107" y="1791"/>
      <point x="118" y="1536"/>
      <point x="118" y="1294" type="curve"/>
    </contour>
    <contour>
      <point x="670" y="1294" type="line"/>
      <point x="670" y="1541" type="line"/>
      <point x="542" y="1541" type="line"/>
      <point x="544" y="1598"/>
      <point x="574" y="1663"/>
      <point x="660" y="1676" type="curve"/>
      <point x="613" y="1797" type="line"/>
      <point x="433" y="1791"/>
      <point x="445" y="1536"/>
      <point x="445" y="1294" type="curve"/>
    </contour>
  </outline>
</glyph>
<glyph name="quotedblright" format="1">
  <advance width="786"/>
  <unicode hex="201D"/>
  <outline>
    <contour>
      <point x="168" y="1283" type="line"/>
      <point x="348" y="1289"/>
      <point x="337" y="1544"/>
      <point x="337" y="1786" type="curve"/>
      <point x="111" y="1786" type="line"/>
      <point x="111" y="1539" type="line"/>
      <point x="239" y="1539" type="line"/>
      <point x="238" y="1481"/>
      <point x="206" y="1417"/>
      <point x="121" y="1404" type="curve"/>
    </contour>
    <contour>
      <point x="495" y="1283" type="line"/>
      <point x="675" y="1289"/>
      <point x="663" y="1543"/>
      <point x="663" y="1786" type="curve"/>
      <point x="438" y="1786" type="line"/>
      <point x="438" y="1539" type="line"/>
      <point x="566" y="1539" type="line"/>
      <point x="565" y="1481"/>
      <point x="533" y="1417"/>
      <point x="447" y="1404" type="curve"/>
    </contour>
  </outline>
</glyph>
<glyph name="quotedblbase" format="1">
  <advance width="738"/>
  <unicode hex="201E"/>
  <outline>
    <contour>
      <point x="158" y="-320" type="line"/>
      <point x="260" y="-320" type="line"/>
      <point x="276" y="-255"/>
      <point x="301" y="-11"/>
      <point x="317" y="54" type="curve"/>
      <point x="100" y="54" type="line"/>
    </contour>
    <contour>
      <point x="481" y="-320" type="line"/>
      <point x="583" y="-320" type="line"/>
      <point x="599" y="-255"/>
      <point x="624" y="-11"/>
      <point x="641" y="54" type="curve"/>
      <point x="423" y="54" type="line"/>
    </contour>
  </outline>
</glyph>
<glyph name="daggerdbl" format="1">
  <advance width="665"/>
  <unicode hex="2021"/>
  <outline>
    <contour>
      <point x="254" y="0" type="line"/>
      <point x="421" y="0" type="line"/>
      <point x="421" y="448" type="line"/>
      <point x="634" y="448" type="line"/>
      <point x="634" y="633" type="line"/>
      <point x="421" y="633" type="line"/>
      <point x="421" y="1062" type="line"/>
      <point x="634" y="1062" type="line"/>
      <point x="634" y="1245" type="line"/>
      <point x="421" y="1245" type="line"/>
      <point x="421" y="1503" type="line"/>
      <point x="254" y="1503" type="line"/>
      <point x="254" y="1245" type="line"/>
      <point x="40" y="1245" type="line"/>
      <point x="40" y="1062" type="line"/>
      <point x="254" y="1062" type="line"/>
      <point x="254" y="633" type="line"/>
      <point x="40" y="633" type="line"/>
      <point x="40" y="448" type="line"/>
      <point x="254" y="448" type="line"/>
    </contour>
  </outline>
</glyph>
<glyph name="bullet" format="1">
  <advance width="718"/>
  <unicode hex="2022"/>
  <outline>
    <contour>
      <point x="245" y="519" type="curve" smooth="yes"/>
      <point x="312" y="471"/>
      <point x="426" y="517"/>
      <point x="496" y="663" type="curve" smooth="yes"/>
      <point x="568" y="811"/>
      <point x="546" y="913"/>
      <point x="478" y="961" type="curve" smooth="yes"/>
      <point x="411" y="1011"/>
      <point x="299" y="965"/>
      <point x="227" y="816" type="curve" smooth="yes"/>
      <point x="156" y="669"/>
      <point x="177" y="564"/>
    </contour>
  </outline>
</glyph>
<glyph name="guilsinglleft" format="1">
  <advance width="582"/>
  <unicode hex="2039"/>
  <outline>
    <contour>
      <point x="488" y="89" type="line"/>
      <point x="488" y="359" type="line"/>
      <point x="219" y="641" type="line"/>
      <point x="488" y="921" type="line"/>
      <point x="488" y="1191" type="line"/>
      <point x="78" y="704" type="line"/>
      <point x="78" y="576" type="line"/>
    </contour>
  </outline>
</glyph>
<glyph name="guilsinglright" format="1">
  <advance width="575"/>
  <unicode hex="203A"/>
  <outline>
    <contour>
      <point x="78" y="89" type="line"/>
      <point x="488" y="576" type="line"/>
      <point x="488" y="704" type="line"/>
      <point x="78" y="1191" type="line"/>
      <point x="78" y="921" type="line"/>
      <point x="347" y="641" type="line"/>
      <point x="78" y="359" type="line"/>
    </contour>
  </outline>
</glyph>
<glyph name="fraction" format="1">
  <advance width="639"/>
  <unicode hex="2044"/>
  <outline>
    <contour>
      <point x="-8" y="0" type="line"/>
      <point x="155" y="0" type="line"/>
      <point x="602" y="1767" type="line"/>
      <point x="438" y="1767" type="line"/>
    </contour>
  </outline>
</glyph>
<glyph name="foursuperior" format="1">
  <advance width="770"/>
  <unicode hex="2074"/>
  <outline>
    <contour>
      <point x="51" y="852" type="line"/>
      <point x="407" y="852" type="line"/>
      <point x="407" y="586" type="line"/>
      <point x="574" y="586" type="line"/>
      <point x="574" y="852" type="line"/>
      <point x="707" y="852" type="line"/>
      <point x="707" y="986" type="line"/>
      <point x="574" y="986" type="line"/>
      <point x="574" y="1642" type="line"/>
      <point x="370" y="1642" type="line"/>
      <point x="51" y="978" type="line"/>
    </contour>
    <contour>
      <point x="227" y="986" type="line"/>
      <point x="407" y="1363" type="line"/>
      <point x="407" y="986" type="line"/>
    </contour>
  </outline>
</glyph>
<glyph name="Euro" format="1">
  <advance width="1076"/>
  <unicode hex="20AC"/>
  <outline>
    <contour>
      <point x="132" y="503" type="line"/>
      <point x="136" y="210"/>
      <point x="230" y="-27"/>
      <point x="572" y="-27" type="curve" smooth="yes"/>
      <point x="905" y="-27"/>
      <point x="986" y="246"/>
      <point x="986" y="539" type="curve" smooth="yes"/>
      <point x="986" y="579" type="line"/>
      <point x="793" y="579" type="line"/>
      <point x="793" y="525" type="line" smooth="yes"/>
      <point x="793" y="376"/>
      <point x="753" y="176"/>
      <point x="573" y="176" type="curve" smooth="yes"/>
      <point x="377" y="176"/>
      <point x="335" y="335"/>
      <point x="333" y="490" type="curve" smooth="yes"/>
      <point x="333" y="591" type="line"/>
      <point x="575" y="591" type="line"/>
      <point x="575" y="741" type="line"/>
      <point x="332" y="741" type="line"/>
      <point x="332" y="871" type="line"/>
      <point x="575" y="871" type="line"/>
      <point x="575" y="1022" type="line"/>
      <point x="332" y="1022" type="line"/>
      <point x="332" y="1131" type="line" smooth="yes"/>
      <point x="332" y="1291"/>
      <point x="369" y="1452"/>
      <point x="571" y="1452" type="curve" smooth="yes"/>
      <point x="747" y="1452"/>
      <point x="790" y="1274"/>
      <point x="790" y="1130" type="curve" smooth="yes"/>
      <point x="790" y="1082" type="line"/>
      <point x="985" y="1082" type="line"/>
      <point x="985" y="1115" type="line" smooth="yes"/>
      <point x="983" y="1407"/>
      <point x="890" y="1652"/>
      <point x="569" y="1652" type="curve" smooth="yes"/>
      <point x="233" y="1652"/>
      <point x="138" y="1407"/>
      <point x="133" y="1117" type="curve" smooth="yes"/>
      <point x="133" y="1022" type="line"/>
      <point x="29" y="1022" type="line"/>
      <point x="29" y="871" type="line"/>
      <point x="132" y="871" type="line"/>
      <point x="132" y="741" type="line"/>
      <point x="29" y="741" type="line"/>
      <point x="29" y="591" type="line"/>
      <point x="132" y="591" type="line"/>
    </contour>
  </outline>
</glyph>
<glyph name="trademark" format="1">
  <advance width="1700"/>
  <unicode hex="2122"/>
  <outline>
    <contour>
      <point x="260" y="686" type="line"/>
      <point x="384" y="686" type="line"/>
      <point x="384" y="1364" type="line"/>
      <point x="548" y="1364" type="line"/>
      <point x="548" y="1485" type="line"/>
      <point x="97" y="1485" type="line"/>
      <point x="97" y="1364" type="line"/>
      <point x="260" y="1364" type="line"/>
    </contour>
    <contour>
      <point x="686" y="686" type="line"/>
      <point x="798" y="686" type="line"/>
      <point x="798" y="1309" type="line"/>
      <point x="976" y="686" type="line"/>
      <point x="1043" y="686" type="line"/>
      <point x="1221" y="1313" type="line"/>
      <point x="1221" y="686" type="line"/>
      <point x="1335" y="686" type="line"/>
      <point x="1335" y="1485" type="line"/>
      <point x="1152" y="1485" type="line"/>
      <point x="1009" y="996" type="line"/>
      <point x="877" y="1485" type="line"/>
      <point x="686" y="1485" type="line"/>
    </contour>
  </outline>
</glyph>
<glyph name="Delta" format="1">
  <advance width="1012"/>
  <unicode hex="2206"/>
  <outline>
    <contour>
      <point x="325" y="159" type="line"/>
      <point x="526" y="891" type="line"/>
      <point x="686" y="159" type="line"/>
    </contour>
    <contour>
      <point x="86" y="0" type="line"/>
      <point x="926" y="0" type="line"/>
      <point x="837" y="239"/>
      <point x="708" y="1008"/>
      <point x="618" y="1247" type="curve"/>
      <point x="395" y="1247" type="line"/>
    </contour>
  </outline>
</glyph>
<glyph name="product" format="1">
  <advance width="1209"/>
  <unicode hex="220F"/>
  <outline>
    <contour>
      <point x="149" y="0" type="line"/>
      <point x="359" y="0" type="line"/>
      <point x="359" y="1600" type="line"/>
      <point x="853" y="1600" type="line"/>
      <point x="853" y="0" type="line"/>
      <point x="1063" y="0" type="line"/>
      <point x="1063" y="1759" type="line"/>
      <point x="149" y="1759" type="line"/>
    </contour>
  </outline>
</glyph>
<glyph name="integral" format="1">
  <advance width="584"/>
  <unicode hex="222B"/>
  <outline>
    <contour>
      <point x="-21" y="-302" type="line"/>
      <point x="29" y="-311"/>
      <point x="71" y="-315"/>
      <point x="114" y="-315" type="curve" smooth="yes"/>
      <point x="350" y="-315"/>
      <point x="357" y="-130"/>
      <point x="357" y="27" type="curve" smooth="yes"/>
      <point x="357" y="1377" type="line" smooth="yes"/>
      <point x="357" y="1456"/>
      <point x="358" y="1536"/>
      <point x="469" y="1536" type="curve" smooth="yes"/>
      <point x="485" y="1536"/>
      <point x="528" y="1531"/>
      <point x="548" y="1528" type="curve"/>
      <point x="548" y="1683" type="line"/>
      <point x="498" y="1692"/>
      <point x="456" y="1696"/>
      <point x="413" y="1696" type="curve" smooth="yes"/>
      <point x="177" y="1696"/>
      <point x="169" y="1511"/>
      <point x="169" y="1354" type="curve" smooth="yes"/>
      <point x="169" y="4" type="line" smooth="yes"/>
      <point x="169" y="-75"/>
      <point x="169" y="-155"/>
      <point x="58" y="-155" type="curve" smooth="yes"/>
      <point x="42" y="-155"/>
      <point x="-2" y="-151"/>
      <point x="-21" y="-147" type="curve"/>
    </contour>
  </outline>
</glyph>
<glyph name="commaaccent" format="1">
  <advance width="503"/>
  <unicode hex="F6C3"/>
  <outline>
    <contour>
      <point x="241" y="0" type="move" name="_bot"/>
    </contour>
    <contour>
      <point x="186" y="-589" type="line"/>
      <point x="375" y="-583"/>
      <point x="366" y="-379"/>
      <point x="365" y="-82" type="curve"/>
      <point x="130" y="-82" type="line"/>
      <point x="130" y="-341" type="line"/>
      <point x="252" y="-341" type="line"/>
      <point x="251" y="-409"/>
      <point x="239" y="-456"/>
      <point x="155" y="-470" type="curve"/>
    </contour>
  </outline>
</glyph>
<glyph name="fi" format="1">
  <advance width="1040"/>
  <unicode hex="FB01"/>
  <outline>
    <contour>
      <point x="170" y="0" type="line"/>
      <point x="388" y="0" type="line"/>
      <point x="388" y="1094" type="line"/>
      <point x="710" y="1094" type="line"/>
      <point x="710" y="0" type="line"/>
      <point x="927" y="0" type="line"/>
      <point x="927" y="1260" type="line"/>
      <point x="388" y="1260" type="line"/>
      <point x="388" y="1371" type="line" smooth="yes"/>
      <point x="388" y="1451"/>
      <point x="394" y="1501"/>
      <point x="489" y="1501" type="curve" smooth="yes"/>
      <point x="505" y="1501"/>
      <point x="561" y="1496"/>
      <point x="569" y="1495" type="curve"/>
      <point x="569" y="1686" type="line"/>
      <point x="545" y="1690"/>
      <point x="475" y="1700"/>
      <point x="414" y="1700" type="curve" smooth="yes"/>
      <point x="177" y="1700"/>
      <point x="173" y="1489"/>
      <point x="171" y="1331" type="curve" smooth="yes"/>
      <point x="171" y="1325"/>
      <point x="170" y="1265"/>
      <point x="170" y="1260" type="curve"/>
      <point x="36" y="1260" type="line"/>
      <point x="36" y="1094" type="line"/>
      <point x="170" y="1094" type="line"/>
    </contour>
    <contour>
      <point x="710" y="1442" type="line"/>
      <point x="927" y="1442" type="line"/>
      <point x="927" y="1699" type="line"/>
      <point x="710" y="1699" type="line"/>
    </contour>
  </outline>
</glyph>
<glyph name="fl" format="1">
  <advance width="1061"/>
  <unicode hex="FB02"/>
  <outline>
    <contour>
      <point x="170" y="0" type="line"/>
      <point x="388" y="0" type="line"/>
      <point x="388" y="1094" type="line"/>
      <point x="569" y="1094" type="line"/>
      <point x="569" y="1260" type="line"/>
      <point x="388" y="1260" type="line"/>
      <point x="388" y="1371" type="line" smooth="yes"/>
      <point x="388" y="1479"/>
      <point x="432" y="1503"/>
      <point x="536" y="1503" type="curve" smooth="yes"/>
      <point x="576" y="1503"/>
      <point x="697" y="1497"/>
      <point x="718" y="1496" type="curve"/>
      <point x="718" y="0" type="line"/>
      <point x="936" y="0" type="line"/>
      <point x="936" y="1664" type="line"/>
      <point x="835" y="1671"/>
      <point x="689" y="1700"/>
      <point x="513" y="1700" type="curve" smooth="yes"/>
      <point x="270" y="1700"/>
      <point x="173" y="1567"/>
      <point x="171" y="1348" type="curve" smooth="yes"/>
      <point x="171" y="1342"/>
      <point x="170" y="1265"/>
      <point x="170" y="1260" type="curve"/>
      <point x="36" y="1260" type="line"/>
      <point x="36" y="1094" type="line"/>
      <point x="170" y="1094" type="line"/>
    </contour>
  </outline>
</glyph>
<glyph name="ffi" format="1">
  <advance width="1590"/>
  <unicode hex="FB03"/>
  <outline>
    <contour>
      <point x="170" y="0" type="line"/>
      <point x="388" y="0" type="line"/>
      <point x="388" y="1094" type="line"/>
      <point x="711" y="1094" type="line"/>
      <point x="711" y="0" type="line"/>
      <point x="929" y="0" type="line"/>
      <point x="929" y="1094" type="line"/>
      <point x="1259" y="1094" type="line"/>
      <point x="1259" y="0" type="line"/>
      <point x="1477" y="0" type="line"/>
      <point x="1477" y="1260" type="line"/>
      <point x="929" y="1260" type="line"/>
      <point x="929" y="1371" type="line" smooth="yes"/>
      <point x="929" y="1451"/>
      <point x="935" y="1501"/>
      <point x="1030" y="1501" type="curve" smooth="yes"/>
      <point x="1046" y="1501"/>
      <point x="1102" y="1496"/>
      <point x="1110" y="1495" type="curve"/>
      <point x="1110" y="1686" type="line"/>
      <point x="1086" y="1690"/>
      <point x="1016" y="1700"/>
      <point x="955" y="1700" type="curve" smooth="yes"/>
      <point x="718" y="1700"/>
      <point x="714" y="1489"/>
      <point x="712" y="1331" type="curve" smooth="yes"/>
      <point x="712" y="1325"/>
      <point x="711" y="1265"/>
      <point x="711" y="1260" type="curve"/>
      <point x="388" y="1260" type="line"/>
      <point x="388" y="1371" type="line" smooth="yes"/>
      <point x="388" y="1451"/>
      <point x="394" y="1501"/>
      <point x="489" y="1501" type="curve" smooth="yes"/>
      <point x="505" y="1501"/>
      <point x="561" y="1496"/>
      <point x="569" y="1495" type="curve"/>
      <point x="569" y="1686" type="line"/>
      <point x="545" y="1690"/>
      <point x="475" y="1700"/>
      <point x="414" y="1700" type="curve" smooth="yes"/>
      <point x="177" y="1700"/>
      <point x="173" y="1489"/>
      <point x="171" y="1331" type="curve" smooth="yes"/>
      <point x="171" y="1325"/>
      <point x="170" y="1265"/>
      <point x="170" y="1260" type="curve"/>
      <point x="36" y="1260" type="line"/>
      <point x="36" y="1094" type="line"/>
      <point x="170" y="1094" type="line"/>
    </contour>
    <contour>
      <point x="1259" y="1442" type="line"/>
      <point x="1477" y="1442" type="line"/>
      <point x="1477" y="1699" type="line"/>
      <point x="1259" y="1699" type="line"/>
    </contour>
  </outline>
</glyph>
<glyph name="ffl" format="1">
  <advance width="1617"/>
  <unicode hex="FB04"/>
  <outline>
    <contour>
      <point x="170" y="0" type="line"/>
      <point x="388" y="0" type="line"/>
      <point x="388" y="1094" type="line"/>
      <point x="726" y="1094" type="line"/>
      <point x="726" y="0" type="line"/>
      <point x="944" y="0" type="line"/>
      <point x="944" y="1094" type="line"/>
      <point x="1162" y="1094" type="line"/>
      <point x="1162" y="1260" type="line"/>
      <point x="944" y="1260" type="line"/>
      <point x="944" y="1371" type="line" smooth="yes"/>
      <point x="944" y="1479"/>
      <point x="994" y="1503"/>
      <point x="1114" y="1503" type="curve" smooth="yes"/>
      <point x="1150" y="1503"/>
      <point x="1256" y="1497"/>
      <point x="1274" y="1497" type="curve"/>
      <point x="1274" y="0" type="line"/>
      <point x="1491" y="0" type="line"/>
      <point x="1491" y="1658" type="line"/>
      <point x="1391" y="1671"/>
      <point x="1249" y="1700"/>
      <point x="1076" y="1700" type="curve" smooth="yes"/>
      <point x="827" y="1700"/>
      <point x="729" y="1567"/>
      <point x="727" y="1348" type="curve" smooth="yes"/>
      <point x="727" y="1342"/>
      <point x="726" y="1265"/>
      <point x="726" y="1260" type="curve"/>
      <point x="388" y="1260" type="line"/>
      <point x="388" y="1371" type="line" smooth="yes"/>
      <point x="388" y="1451"/>
      <point x="394" y="1501"/>
      <point x="489" y="1501" type="curve" smooth="yes"/>
      <point x="505" y="1501"/>
      <point x="561" y="1496"/>
      <point x="569" y="1495" type="curve"/>
      <point x="569" y="1686" type="line"/>
      <point x="545" y="1690"/>
      <point x="475" y="1700"/>
      <point x="414" y="1700" type="curve" smooth="yes"/>
      <point x="177" y="1700"/>
      <point x="173" y="1489"/>
      <point x="171" y="1331" type="curve" smooth="yes"/>
      <point x="171" y="1325"/>
      <point x="170" y="1265"/>
      <point x="170" y="1260" type="curve"/>
      <point x="36" y="1260" type="line"/>
      <point x="36" y="1094" type="line"/>
      <point x="170" y="1094" type="line"/>
    </contour>
  </outline>
</glyph>
<glyph name=".notdef" format="1">
  <advance width="748"/>
  <outline>
    <contour>
      <point x="179" y="78" type="line"/>
      <point x="179" y="1269" type="line"/>
      <point x="570" y="1269" type="line"/>
      <point x="570" y="78" type="line"/>
    </contour>
    <contour>
      <point x="119" y="-4" type="line"/>
      <point x="631" y="-4" type="line"/>
      <point x="631" y="1350" type="line"/>
      <point x="119" y="1350" type="line"/>
    </contour>
  </outline>
</glyph>
<glyph name="foundryicon" format="1">
  <advance width="1455"/>
  <outline>
    <contour>
      <point x="266" y="277" type="line"/>
      <point x="725" y="604" type="line"/>
      <point x="1194" y="277" type="line"/>
      <point x="1024" y="819" type="line"/>
      <point x="1485" y="1168" type="line"/>
      <point x="913" y="1168" type="line"/>
      <point x="725" y="1710" type="line"/>
      <point x="547" y="1168" type="line"/>
      <point x="-25" y="1157" type="line"/>
      <point x="434" y="819" type="line"/>
    </contour>
  </outline>
</glyph>
<glyph name="tt" format="1">
  <advance width="1147"/>
  <outline>
    <contour>
      <point x="157" y="378" type="line"/>
      <point x="157" y="182"/>
      <point x="178" y="-16"/>
      <point x="404" y="-16" type="curve" smooth="yes"/>
      <point x="452" y="-16"/>
      <point x="500" y="-15"/>
      <point x="556" y="2" type="curve"/>
      <point x="564" y="196" type="line"/>
      <point x="533" y="191"/>
      <point x="503" y="189"/>
      <point x="472" y="189" type="curve" smooth="yes"/>
      <point x="384" y="189"/>
      <point x="374" y="244"/>
      <point x="374" y="334" type="curve" smooth="yes"/>
      <point x="374" y="1094" type="line"/>
      <point x="686" y="1094" type="line"/>
      <point x="686" y="378" type="line" smooth="yes"/>
      <point x="686" y="182"/>
      <point x="707" y="-16"/>
      <point x="933" y="-16" type="curve" smooth="yes"/>
      <point x="981" y="-16"/>
      <point x="1029" y="-15"/>
      <point x="1086" y="2" type="curve"/>
      <point x="1093" y="196" type="line"/>
      <point x="1062" y="191"/>
      <point x="1032" y="189"/>
      <point x="1001" y="189" type="curve" smooth="yes"/>
      <point x="913" y="189"/>
      <point x="903" y="244"/>
      <point x="903" y="334" type="curve" smooth="yes"/>
      <point x="903" y="1094" type="line"/>
      <point x="1084" y="1094" type="line"/>
      <point x="1084" y="1260" type="line"/>
      <point x="903" y="1260" type="line"/>
      <point x="903" y="1687" type="line"/>
      <point x="686" y="1687" type="line"/>
      <point x="686" y="1260" type="line"/>
      <point x="374" y="1260" type="line"/>
      <point x="374" y="1687" type="line"/>
      <point x="157" y="1687" type="line"/>
      <point x="157" y="1260" type="line"/>
      <point x="18" y="1260" type="line"/>
      <point x="18" y="1094" type="line"/>
      <point x="157" y="1094" type="line"/>
    </contour>
  </outline>
</glyph>
